<?xml version="1.0" encoding="UTF-8"?>
<svg version="1.1" xmlns="http://www.w3.org/2000/svg" width="1200" height="1200">
<path d="M0 0 C396 0 792 0 1200 0 C1200 396 1200 792 1200 1200 C804 1200 408 1200 0 1200 C0 804 0 408 0 0 Z " fill="#000000" transform="translate(0,0)"/>
<path d="M0 0 C3.13884033 1.3926284 5.26598811 3.01609604 7.68834192 5.43879426 C8.4108127 6.15651422 9.13328348 6.87423419 9.87764731 7.61370325 C10.6657067 8.40673082 11.45376609 9.19975839 12.26570606 10.01681709 C13.53323107 11.28043117 13.53323107 11.28043117 14.82636264 12.56957281 C17.18133458 14.91931535 19.53171963 17.27348447 21.8803196 19.62958586 C24.4326327 22.18785651 26.99072577 24.74033631 29.54810017 27.2935456 C34.03301443 31.77276493 38.51418286 36.25570477 42.99294472 40.74107552 C49.65314952 47.41108108 56.31905102 54.07537136 62.98612719 60.7385077 C74.20207007 71.94816789 85.41327237 83.16255817 96.6217289 94.37970352 C107.72765831 105.49424044 118.83543271 116.60692766 129.94576073 127.71706772 C130.63625694 128.40755628 131.32675315 129.09804485 132.03817349 129.80945731 C134.84100241 132.61224533 137.64384369 135.41502099 140.4467018 138.21777981 C166.75806707 164.52823836 193.06399812 190.84412394 219.36721785 217.16272553 C242.73981836 240.54894377 266.11610325 263.93147252 289.49584961 287.31054688 C290.99635678 288.81101364 292.49686393 290.31148043 293.99737106 291.81194724 C294.7391894 292.55374524 295.48100775 293.29554324 296.24530545 294.05981996 C299.97946442 297.79387814 303.71361829 301.52794143 307.4477663 305.26201057 C308.18444329 305.99867085 308.92112027 306.73533112 309.6801208 307.49431443 C329.20753196 327.02136036 348.73249048 346.55085829 368.25661725 366.08118808 C368.95121527 366.77600638 369.64581329 367.47082467 370.36145974 368.18669807 C373.15466994 370.9807965 375.94788005 373.77489502 378.74107721 376.56900649 C388.45989454 386.29098368 398.17953685 396.01213539 407.89971311 405.73275388 C420.42933937 418.26297735 432.95726399 430.79489824 445.48226897 443.32974119 C452.10684685 449.95943264 458.73277277 456.58776986 465.36066843 463.21414447 C469.78796485 467.6407061 474.21343745 472.06908553 478.63742963 476.49894948 C481.15806308 479.02283033 483.67946743 481.54592732 486.20307521 484.06683446 C488.92367994 486.78457007 491.64040441 489.50616362 494.35677052 492.22813606 C495.13780641 493.00711663 495.91884229 493.7860972 496.72354594 494.58868325 C500.82702133 498.7076721 504.76499023 502.91263909 508.55096398 507.32608382 C510.36934182 509.42666107 512.28998379 511.39883654 514.26525879 513.35186768 C515.03360046 514.11435822 515.80194214 514.87684875 516.59356689 515.66244507 C517.41153748 516.46896515 518.22950806 517.27548523 519.07226562 518.10644531 C519.95271545 518.9790097 520.83316528 519.8515741 521.74029541 520.75057983 C523.63863695 522.63181268 525.53783394 524.51213896 527.43830872 526.39121246 C530.44238024 529.36242283 533.44029089 532.33979789 536.43688965 535.31854248 C537.46619375 536.34158748 538.49549825 537.36463206 539.52480316 538.38767624 C540.03971408 538.89947103 540.554625 539.41126582 541.08513927 539.93856955 C548.05159105 546.86209809 555.02267217 553.78087022 562.0078125 560.68554688 C566.73641071 565.35977047 571.45614667 570.04274377 576.16581488 574.73604274 C578.65462693 577.21547072 581.14785056 579.69007886 583.65205383 582.15396881 C586.43576266 584.89297487 589.20004195 587.65107801 591.96289062 590.41113281 C592.79705505 591.22574982 593.63121948 592.04036682 594.49066162 592.87966919 C595.2364447 593.63088043 595.98222778 594.38209167 596.75061035 595.15606689 C597.40613136 595.80568012 598.06165237 596.45529335 598.73703766 597.12459183 C600 599 600 599 599.90050465 600.77239746 C598.59424129 604.00373622 596.29577677 606.11227807 593.85488796 608.51704884 C593.31078619 609.06491174 592.76668442 609.61277464 592.20609471 610.17723945 C590.36821709 612.02411015 588.51977019 613.86002971 586.67124939 615.69624329 C585.34313731 617.02637841 584.01568299 618.35717057 582.6888333 619.68856496 C579.0305687 623.35550674 575.36296762 627.01298597 571.69382107 630.66903484 C567.7421003 634.60988678 563.79900958 638.55935675 559.8548584 642.50778198 C552.12143101 650.24685299 544.38003378 657.97790475 536.63599574 665.70635668 C527.6201132 674.7047257 518.61226964 683.71112402 509.60481185 692.71792497 C493.53044643 708.79060081 477.44903441 724.85620336 461.36352539 740.91772461 C445.75390613 756.50407072 430.14883521 772.09495106 414.54907227 787.69116211 C413.82879623 788.41127088 413.82879623 788.41127088 413.09396915 789.1459273 C411.15802571 791.08142188 409.22208571 793.0169199 407.2861459 794.95241812 C406.32134024 795.9170034 405.35653413 796.88158822 404.39172756 797.84617258 C403.42926345 798.80841533 402.46680064 799.77065937 401.50433913 800.73290471 C386.16366547 816.07006002 370.81901447 831.4032354 355.47369511 846.73574239 C350.08569997 852.11930457 344.69820179 857.50336349 339.3110479 862.88776747 C330.76149197 871.43288646 322.21026479 879.97632569 313.65565526 888.51638571 C309.74669528 892.4187481 305.83850094 896.32186864 301.93244362 900.22713661 C298.35488479 903.80390642 294.77501641 907.37834779 291.19330329 910.95095744 C289.89960767 912.24215243 288.60673932 913.53417696 287.31479513 914.82712439 C281.6804382 920.46501054 276.06039357 926.05086751 269.99532324 931.23040754 C265.4513296 935.2603395 261.22661549 939.64042115 256.9395752 943.94017029 C255.83568696 945.04362181 254.73157874 946.14685328 253.62727118 947.24988514 C250.6102817 950.26464936 247.59640106 953.2825045 244.58303976 956.30089462 C241.32661629 959.5616508 238.06728861 962.81950184 234.80831909 966.07771301 C229.16792484 971.71758381 223.52935927 977.35927749 217.89204407 983.00222588 C209.74150561 991.16090359 201.58819564 999.31680701 193.43421429 1007.47204364 C180.20385947 1020.70458518 166.97573771 1033.93935669 153.74902344 1047.17553711 C140.90319233 1060.0305522 128.05630766 1072.88451288 115.20800781 1085.73706055 C114.41556878 1086.52976231 113.62312974 1087.32246407 112.8066774 1088.13918709 C108.83109674 1092.11607282 104.8554954 1096.09293786 100.87988377 1100.06979263 C67.91671454 1133.04332259 34.95717061 1166.02047448 2 1199 C-1.28042271 1197.56353953 -3.45135812 1195.79788744 -5.97573256 1193.27151376 C-6.76245089 1192.48903379 -7.54916922 1191.70655382 -8.3597275 1190.90036234 C-9.21969659 1190.03485338 -10.07966567 1189.16934442 -10.96569443 1188.27760792 C-11.88638832 1187.35892212 -12.80708221 1186.44023632 -13.75567591 1185.49371156 C-16.32376275 1182.93094543 -18.88554159 1180.36195225 -21.44638256 1177.79194846 C-24.22878218 1175.00179508 -27.0169754 1172.21744168 -29.80445504 1169.43236512 C-34.69338489 1164.54604579 -39.57858038 1159.65601751 -44.46138 1154.76357269 C-51.72238877 1147.48826112 -58.98911512 1140.21868085 -66.25706559 1132.95030477 C-78.48360824 1120.7227402 -90.70555359 1108.49059024 -102.92498016 1096.25591469 C-115.03247914 1084.13336571 -127.14225529 1072.01309851 -139.25501251 1059.89580345 C-140.0077492 1059.14278416 -140.7604859 1058.38976486 -141.53603279 1057.6139268 C-145.35885723 1053.78969784 -149.18172789 1049.96551508 -153.00461987 1046.14135363 C-180.1015983 1019.03528001 -207.19431372 991.92494929 -234.28417969 964.81176758 C-235.92310277 963.17143692 -237.56202595 961.53110636 -239.20094922 959.89077588 C-240.01298608 959.07804142 -240.82502294 958.26530696 -241.66166698 957.42794418 C-245.76980339 953.31627905 -249.87794203 949.20461614 -253.98608398 945.09295654 C-255.20797661 943.87001623 -255.20797661 943.87001623 -256.45455393 942.62237005 C-275.36681108 923.69393983 -294.28034449 904.76678511 -313.19433594 885.84008789 C-314.00431174 885.02956597 -314.81428755 884.21904405 -315.64880807 883.38396086 C-334.13996218 864.88036164 -352.63171196 846.377358 -371.1246376 827.87552929 C-371.90184451 827.09794699 -372.67905141 826.32036469 -373.47981004 825.5192193 C-380.47127159 818.52439129 -387.46275716 811.52958731 -394.45436934 804.53490987 C-411.89778155 787.08384676 -429.33970706 769.63130209 -446.77798352 752.17510686 C-458.93247942 740.00813176 -471.08858323 727.84276538 -483.24640819 715.67911682 C-490.47162955 708.45030303 -497.69540335 701.22004938 -504.91715731 693.98777156 C-509.74056903 689.15759869 -514.565788 684.3292363 -519.39247758 679.50233894 C-522.14300577 676.75158266 -524.89272768 674.00003342 -527.6402249 671.24624947 C-530.60108491 668.27864591 -533.56581992 665.31494382 -536.53094101 662.35159779 C-537.38154543 661.49779466 -538.23214985 660.64399153 -539.10853016 659.76431558 C-543.38676879 655.49539259 -547.73401847 651.37696529 -552.32516463 647.44518555 C-554.62550263 645.46026494 -556.79704905 643.35949851 -558.96313477 641.22973633 C-559.8466713 640.36226273 -560.73020782 639.49478912 -561.64051819 638.60102844 C-565.58379197 634.70265272 -569.52501559 630.80230957 -573.45727539 626.89282227 C-575.53670303 624.82684893 -577.62321299 622.7684368 -579.71606445 620.71606445 C-582.25857306 618.22269282 -584.78875469 615.71743488 -587.31037712 613.20294762 C-588.73549417 611.78781434 -590.17268667 610.38487548 -591.61000061 608.98213196 C-592.46516769 608.12411484 -593.32033478 607.26609772 -594.20141602 606.38208008 C-594.96116226 605.63042068 -595.72090851 604.87876129 -596.50367737 604.10432434 C-598 602 -598 602 -597.84005874 600.13823361 C-596.73896231 597.33557081 -595.18658791 595.81315998 -593.05538273 593.68393791 C-592.19907501 592.82114453 -591.34276729 591.95835116 -590.46051085 591.06941253 C-589.4977356 590.11462388 -588.53482446 589.15997225 -587.5717926 588.20544243 C-586.55385423 587.18558943 -585.53657502 586.16507816 -584.51989877 585.14396697 C-581.70671841 582.32237839 -578.88420371 579.51028827 -576.06016771 576.6995705 C-572.99615254 573.64672573 -569.94082489 570.5852079 -566.88441563 567.52475178 C-561.52069849 562.15634532 -556.15141631 556.7935552 -550.77850723 551.43434906 C-542.78907806 543.46523927 -534.80823613 535.4875715 -526.8291876 527.50806978 C-513.40803688 514.08662561 -499.97997372 500.67211752 -486.54806519 487.26144028 C-473.24291515 473.97724704 -459.94107443 460.68975386 -446.64358521 447.397892 C-445.81753639 446.57219453 -444.99148757 445.74649705 -444.14040697 444.89577844 C-439.94550738 440.70262165 -435.75067243 436.50940019 -431.55586588 432.31615032 C-401.82330352 402.59478513 -372.08416669 372.88000651 -342.34082031 343.16943359 C-335.12941649 335.96596113 -327.91801994 328.7624814 -320.70666504 321.55895996 C-319.8121025 320.66536933 -318.91753997 319.77177871 -317.99586948 318.85110958 C-297.21497627 298.09267932 -276.43671943 277.33161097 -255.65917969 256.56982422 C-254.32411559 255.23577658 -254.32411559 255.23577658 -252.96208049 253.87477848 C-232.65329405 233.58142682 -212.34524639 213.28733604 -192.03813171 192.99231148 C-191.18535072 192.14004028 -190.33256972 191.28776908 -189.45394688 190.40967148 C-181.78396546 182.74427294 -174.11398797 175.07887046 -166.44413412 167.41334428 C-146.47010605 147.45061415 -126.49384225 127.4901271 -106.51368022 107.53353621 C-93.98654651 95.0211144 -81.46102311 82.50708216 -68.93679261 69.9917544 C-60.99798491 62.05873167 -53.0577108 54.12718278 -45.11542963 46.19763755 C-39.81963083 40.91007102 -34.52560746 35.62073145 -29.2330556 30.32991492 C-26.21140714 27.30937012 -23.18893911 24.28965725 -20.16428006 21.2721269 C-17.41804809 18.53234402 -14.67408231 15.79031346 -11.9319808 13.0463968 C-10.94062572 12.05520778 -9.94841275 11.06487594 -8.9552844 10.07546366 C-7.61610466 8.74105865 -6.28025813 7.40331092 -4.94461727 6.06536376 C-4.20128138 5.32285507 -3.45794548 4.58034637 -2.69208425 3.81533741 C-0.93086554 2.09732766 -0.93086554 2.09732766 0 0 Z " fill="#65B1DD" transform="translate(599,0)"/>
<path d="M0 0 C3.13884033 1.3926284 5.26598811 3.01609604 7.68834192 5.43879426 C8.4108127 6.15651422 9.13328348 6.87423419 9.87764731 7.61370325 C10.6657067 8.40673082 11.45376609 9.19975839 12.26570606 10.01681709 C13.53323107 11.28043117 13.53323107 11.28043117 14.82636264 12.56957281 C17.18133458 14.91931535 19.53171963 17.27348447 21.8803196 19.62958586 C24.4326327 22.18785651 26.99072577 24.74033631 29.54810017 27.2935456 C34.03301443 31.77276493 38.51418286 36.25570477 42.99294472 40.74107552 C49.65314952 47.41108108 56.31905102 54.07537136 62.98612719 60.7385077 C74.20207007 71.94816789 85.41327237 83.16255817 96.6217289 94.37970352 C107.72765831 105.49424044 118.83543271 116.60692766 129.94576073 127.71706772 C130.63625694 128.40755628 131.32675315 129.09804485 132.03817349 129.80945731 C134.84100241 132.61224533 137.64384369 135.41502099 140.4467018 138.21777981 C166.75806707 164.52823836 193.06399812 190.84412394 219.36721785 217.16272553 C242.73981836 240.54894377 266.11610325 263.93147252 289.49584961 287.31054688 C290.99635678 288.81101364 292.49686393 290.31148043 293.99737106 291.81194724 C294.7391894 292.55374524 295.48100775 293.29554324 296.24530545 294.05981996 C299.97946442 297.79387814 303.71361829 301.52794143 307.4477663 305.26201057 C308.18444329 305.99867085 308.92112027 306.73533112 309.6801208 307.49431443 C329.20753196 327.02136036 348.73249048 346.55085829 368.25661725 366.08118808 C368.95121527 366.77600638 369.64581329 367.47082467 370.36145974 368.18669807 C373.15466994 370.9807965 375.94788005 373.77489502 378.74107721 376.56900649 C388.45989454 386.29098368 398.17953685 396.01213539 407.89971311 405.73275388 C420.42933937 418.26297735 432.95726399 430.79489824 445.48226897 443.32974119 C452.10684685 449.95943264 458.73277277 456.58776986 465.36066843 463.21414447 C469.78796485 467.6407061 474.21343745 472.06908553 478.63742963 476.49894948 C481.15806308 479.02283033 483.67946743 481.54592732 486.20307521 484.06683446 C488.92367994 486.78457007 491.64040441 489.50616362 494.35677052 492.22813606 C495.13780641 493.00711663 495.91884229 493.7860972 496.72354594 494.58868325 C500.82702133 498.7076721 504.76499023 502.91263909 508.55096398 507.32608382 C510.36934182 509.42666107 512.28998379 511.39883654 514.26525879 513.35186768 C515.03360046 514.11435822 515.80194214 514.87684875 516.59356689 515.66244507 C517.41153748 516.46896515 518.22950806 517.27548523 519.07226562 518.10644531 C519.95271545 518.9790097 520.83316528 519.8515741 521.74029541 520.75057983 C523.63863695 522.63181268 525.53783394 524.51213896 527.43830872 526.39121246 C530.44238024 529.36242283 533.44029089 532.33979789 536.43688965 535.31854248 C537.46619375 536.34158748 538.49549825 537.36463206 539.52480316 538.38767624 C540.03971408 538.89947103 540.554625 539.41126582 541.08513927 539.93856955 C548.05159105 546.86209809 555.02267217 553.78087022 562.0078125 560.68554688 C566.73641071 565.35977047 571.45614667 570.04274377 576.16581488 574.73604274 C578.65462693 577.21547072 581.14785056 579.69007886 583.65205383 582.15396881 C586.43576266 584.89297487 589.20004195 587.65107801 591.96289062 590.41113281 C592.79705505 591.22574982 593.63121948 592.04036682 594.49066162 592.87966919 C595.2364447 593.63088043 595.98222778 594.38209167 596.75061035 595.15606689 C597.40613136 595.80568012 598.06165237 596.45529335 598.73703766 597.12459183 C600 599 600 599 599.90050465 600.77239746 C598.59424129 604.00373622 596.29577677 606.11227807 593.85488796 608.51704884 C593.31078619 609.06491174 592.76668442 609.61277464 592.20609471 610.17723945 C590.36821709 612.02411015 588.51977019 613.86002971 586.67124939 615.69624329 C585.34313731 617.02637841 584.01568299 618.35717057 582.6888333 619.68856496 C579.0305687 623.35550674 575.36296762 627.01298597 571.69382107 630.66903484 C567.7421003 634.60988678 563.79900958 638.55935675 559.8548584 642.50778198 C552.12143101 650.24685299 544.38003378 657.97790475 536.63599574 665.70635668 C527.6201132 674.7047257 518.61226964 683.71112402 509.60481185 692.71792497 C493.53044643 708.79060081 477.44903441 724.85620336 461.36352539 740.91772461 C445.75390613 756.50407072 430.14883521 772.09495106 414.54907227 787.69116211 C413.82879623 788.41127088 413.82879623 788.41127088 413.09396915 789.1459273 C411.15802571 791.08142188 409.22208571 793.0169199 407.2861459 794.95241812 C406.32134024 795.9170034 405.35653413 796.88158822 404.39172756 797.84617258 C403.42926345 798.80841533 402.46680064 799.77065937 401.50433913 800.73290471 C386.16366547 816.07006002 370.81901447 831.4032354 355.47369511 846.73574239 C350.08569997 852.11930457 344.69820179 857.50336349 339.3110479 862.88776747 C330.76149197 871.43288646 322.21026479 879.97632569 313.65565526 888.51638571 C309.74669528 892.4187481 305.83850094 896.32186864 301.93244362 900.22713661 C298.35488479 903.80390642 294.77501641 907.37834779 291.19330329 910.95095744 C289.89960767 912.24215243 288.60673932 913.53417696 287.31479513 914.82712439 C281.6804382 920.46501054 276.06039357 926.05086751 269.99532324 931.23040754 C265.4513296 935.2603395 261.22661549 939.64042115 256.9395752 943.94017029 C255.83568696 945.04362181 254.73157874 946.14685328 253.62727118 947.24988514 C250.6102817 950.26464936 247.59640106 953.2825045 244.58303976 956.30089462 C241.32661629 959.5616508 238.06728861 962.81950184 234.80831909 966.07771301 C229.16792484 971.71758381 223.52935927 977.35927749 217.89204407 983.00222588 C209.74150561 991.16090359 201.58819564 999.31680701 193.43421429 1007.47204364 C180.20385947 1020.70458518 166.97573771 1033.93935669 153.74902344 1047.17553711 C140.90319233 1060.0305522 128.05630766 1072.88451288 115.20800781 1085.73706055 C114.41556878 1086.52976231 113.62312974 1087.32246407 112.8066774 1088.13918709 C108.83109674 1092.11607282 104.8554954 1096.09293786 100.87988377 1100.06979263 C67.91671454 1133.04332259 34.95717061 1166.02047448 2 1199 C-1.28042271 1197.56353953 -3.45135812 1195.79788744 -5.97573256 1193.27151376 C-6.76245089 1192.48903379 -7.54916922 1191.70655382 -8.3597275 1190.90036234 C-9.21969659 1190.03485338 -10.07966567 1189.16934442 -10.96569443 1188.27760792 C-11.88638832 1187.35892212 -12.80708221 1186.44023632 -13.75567591 1185.49371156 C-16.32376275 1182.93094543 -18.88554159 1180.36195225 -21.44638256 1177.79194846 C-24.22878218 1175.00179508 -27.0169754 1172.21744168 -29.80445504 1169.43236512 C-34.69338489 1164.54604579 -39.57858038 1159.65601751 -44.46138 1154.76357269 C-51.72238877 1147.48826112 -58.98911512 1140.21868085 -66.25706559 1132.95030477 C-78.48360824 1120.7227402 -90.70555359 1108.49059024 -102.92498016 1096.25591469 C-115.03247914 1084.13336571 -127.14225529 1072.01309851 -139.25501251 1059.89580345 C-140.0077492 1059.14278416 -140.7604859 1058.38976486 -141.53603279 1057.6139268 C-145.35885723 1053.78969784 -149.18172789 1049.96551508 -153.00461987 1046.14135363 C-180.1015983 1019.03528001 -207.19431372 991.92494929 -234.28417969 964.81176758 C-235.92310277 963.17143692 -237.56202595 961.53110636 -239.20094922 959.89077588 C-240.01298608 959.07804142 -240.82502294 958.26530696 -241.66166698 957.42794418 C-245.76980339 953.31627905 -249.87794203 949.20461614 -253.98608398 945.09295654 C-255.20797661 943.87001623 -255.20797661 943.87001623 -256.45455393 942.62237005 C-275.36681108 923.69393983 -294.28034449 904.76678511 -313.19433594 885.84008789 C-314.00431174 885.02956597 -314.81428755 884.21904405 -315.64880807 883.38396086 C-334.13996218 864.88036164 -352.63171196 846.377358 -371.1246376 827.87552929 C-371.90184451 827.09794699 -372.67905141 826.32036469 -373.47981004 825.5192193 C-380.47127159 818.52439129 -387.46275716 811.52958731 -394.45436934 804.53490987 C-411.89778155 787.08384676 -429.33970706 769.63130209 -446.77798352 752.17510686 C-458.93247942 740.00813176 -471.08858323 727.84276538 -483.24640819 715.67911682 C-490.47162955 708.45030303 -497.69540335 701.22004938 -504.91715731 693.98777156 C-509.74056903 689.15759869 -514.565788 684.3292363 -519.39247758 679.50233894 C-522.14300577 676.75158266 -524.89272768 674.00003342 -527.6402249 671.24624947 C-530.60108491 668.27864591 -533.56581992 665.31494382 -536.53094101 662.35159779 C-537.38154543 661.49779466 -538.23214985 660.64399153 -539.10853016 659.76431558 C-543.38676879 655.49539259 -547.73401847 651.37696529 -552.32516463 647.44518555 C-554.62550263 645.46026494 -556.79704905 643.35949851 -558.96313477 641.22973633 C-559.8466713 640.36226273 -560.73020782 639.49478912 -561.64051819 638.60102844 C-565.58379197 634.70265272 -569.52501559 630.80230957 -573.45727539 626.89282227 C-575.53670303 624.82684893 -577.62321299 622.7684368 -579.71606445 620.71606445 C-582.25857306 618.22269282 -584.78875469 615.71743488 -587.31037712 613.20294762 C-588.73549417 611.78781434 -590.17268667 610.38487548 -591.61000061 608.98213196 C-592.46516769 608.12411484 -593.32033478 607.26609772 -594.20141602 606.38208008 C-594.96116226 605.63042068 -595.72090851 604.87876129 -596.50367737 604.10432434 C-598 602 -598 602 -597.84005874 600.13823361 C-596.73896231 597.33557081 -595.18658791 595.81315998 -593.05538273 593.68393791 C-592.19907501 592.82114453 -591.34276729 591.95835116 -590.46051085 591.06941253 C-589.4977356 590.11462388 -588.53482446 589.15997225 -587.5717926 588.20544243 C-586.55385423 587.18558943 -585.53657502 586.16507816 -584.51989877 585.14396697 C-581.70671841 582.32237839 -578.88420371 579.51028827 -576.06016771 576.6995705 C-572.99615254 573.64672573 -569.94082489 570.5852079 -566.88441563 567.52475178 C-561.52069849 562.15634532 -556.15141631 556.7935552 -550.77850723 551.43434906 C-542.78907806 543.46523927 -534.80823613 535.4875715 -526.8291876 527.50806978 C-513.40803688 514.08662561 -499.97997372 500.67211752 -486.54806519 487.26144028 C-473.24291515 473.97724704 -459.94107443 460.68975386 -446.64358521 447.397892 C-445.81753639 446.57219453 -444.99148757 445.74649705 -444.14040697 444.89577844 C-439.94550738 440.70262165 -435.75067243 436.50940019 -431.55586588 432.31615032 C-401.82330352 402.59478513 -372.08416669 372.88000651 -342.34082031 343.16943359 C-335.12941649 335.96596113 -327.91801994 328.7624814 -320.70666504 321.55895996 C-319.8121025 320.66536933 -318.91753997 319.77177871 -317.99586948 318.85110958 C-297.21497627 298.09267932 -276.43671943 277.33161097 -255.65917969 256.56982422 C-254.32411559 255.23577658 -254.32411559 255.23577658 -252.96208049 253.87477848 C-232.65329405 233.58142682 -212.34524639 213.28733604 -192.03813171 192.99231148 C-191.18535072 192.14004028 -190.33256972 191.28776908 -189.45394688 190.40967148 C-181.78396546 182.74427294 -174.11398797 175.07887046 -166.44413412 167.41334428 C-146.47010605 147.45061415 -126.49384225 127.4901271 -106.51368022 107.53353621 C-93.98654651 95.0211144 -81.46102311 82.50708216 -68.93679261 69.9917544 C-60.99798491 62.05873167 -53.0577108 54.12718278 -45.11542963 46.19763755 C-39.81963083 40.91007102 -34.52560746 35.62073145 -29.2330556 30.32991492 C-26.21140714 27.30937012 -23.18893911 24.28965725 -20.16428006 21.2721269 C-17.41804809 18.53234402 -14.67408231 15.79031346 -11.9319808 13.0463968 C-10.94062572 12.05520778 -9.94841275 11.06487594 -8.9552844 10.07546366 C-7.61610466 8.74105865 -6.28025813 7.40331092 -4.94461727 6.06536376 C-4.20128138 5.32285507 -3.45794548 4.58034637 -2.69208425 3.81533741 C-0.93086554 2.09732766 -0.93086554 2.09732766 0 0 Z M-57.3125 236.28515625 C-60.84893682 236.97071551 -64.36541571 237.4788119 -67.9375 237.9375 C-127.55159242 246.33948618 -185.95946451 276.94461988 -232 315 C-232.969375 315.79535156 -233.93875 316.59070313 -234.9375 317.41015625 C-248.34023448 328.51385113 -261.591994 340.38906635 -272.9453125 353.609375 C-274.4875053 355.40371339 -276.04791375 357.18242209 -277.6171875 358.953125 C-294.78070763 378.43517488 -309.60569895 400.12137887 -321.90527344 422.97949219 C-323.034148 425.06302606 -324.19173772 427.1288708 -325.3515625 429.1953125 C-346.76140573 467.9257189 -358.81705935 511.27699912 -364.6875 554.9375 C-364.80706055 555.82405273 -364.92662109 556.71060547 -365.04980469 557.62402344 C-366.81815641 571.55043395 -367.23823269 585.48028618 -367.25 599.5 C-367.25100708 600.34361084 -367.25201416 601.18722168 -367.25305176 602.05639648 C-367.23989475 618.52742437 -366.17720934 634.66263808 -364 651 C-363.86609863 652.00804687 -363.73219727 653.01609375 -363.59423828 654.0546875 C-358.67181583 689.28133253 -347.61995146 725.05866059 -332 757 C-331.58282715 757.87237305 -331.1656543 758.74474609 -330.73583984 759.64355469 C-313.99667667 794.63516589 -291.78429053 828.0269366 -263.84765625 855.15234375 C-262.25190421 856.74809579 -260.83539726 858.35802095 -259.4375 860.125 C-256.95106075 863.05772321 -254.33483553 865.41523346 -251.4140625 867.8984375 C-249.05884874 869.94876922 -246.78229094 872.06971695 -244.51098633 874.2121582 C-237.34556945 880.94771423 -229.86242352 887.09819605 -222 893 C-221.3287207 893.50644043 -220.65744141 894.01288086 -219.96582031 894.53466797 C-146.2067543 949.87951912 -49.04484178 978.46898446 43 966 C132.34251738 953.06533704 215.96363547 913.6388602 276 845 C276.93612481 843.95045562 277.87232497 842.90097845 278.80859375 841.8515625 C300.2354828 817.58665114 318.06543015 790.11677327 332.05712891 760.94628906 C332.98896224 759.02278431 333.95039081 757.11666881 334.91796875 755.2109375 C352.43066165 720.1372711 361.77280982 680.64857663 367 642 C367.12004395 641.16871582 367.24008789 640.33743164 367.36376953 639.48095703 C371.48159563 610.31251079 370.22752098 579.0557472 366 550 C365.85546387 549.00097656 365.71092773 548.00195312 365.56201172 546.97265625 C364.55818907 540.27605867 363.3345902 533.63785997 362 527 C361.81131348 526.03191406 361.62262695 525.06382812 361.42822266 524.06640625 C352.51298669 479.14705189 334.25225201 436.12148976 309 398 C308.46052734 397.18192871 307.92105469 396.36385742 307.36523438 395.52099609 C300.73689722 385.51423211 293.8496185 376.08693125 286 367 C284.62183071 365.27335824 283.24686447 363.54415534 281.875 361.8125 C270.51734523 347.88825776 257.68781347 334.63464145 244 323 C243.06671875 322.18917969 242.1334375 321.37835938 241.171875 320.54296875 C227.27409521 308.53148816 212.4527802 297.91553396 197 288 C196.38898437 287.60748047 195.77796875 287.21496094 195.1484375 286.81054688 C177.13669564 275.36137912 157.85138744 265.79150019 138 258 C136.85789062 257.54367187 135.71578125 257.08734375 134.5390625 256.6171875 C131.37221957 255.37390842 128.19051096 254.18110261 125 253 C123.80375 252.54109375 122.6075 252.0821875 121.375 251.609375 C99.71169062 243.4676963 77.21422077 238.96465366 54.40332031 235.51708984 C52.1508744 235.17486026 49.90013584 234.82117986 47.65136719 234.45556641 C46.56758789 234.2807373 45.48380859 234.1059082 44.3671875 233.92578125 C43.4272998 233.77149658 42.48741211 233.61721191 41.51904297 233.45825195 C32.56519056 232.29227575 23.65249963 231.84242769 14.62890625 231.83203125 C13.06437965 231.82703865 13.06437965 231.82703865 11.46824646 231.82194519 C9.27416417 231.81691972 7.08007436 231.8145355 4.88598633 231.81469727 C1.60159033 231.81252584 -1.68246069 231.79436383 -4.96679688 231.77539062 C-22.67194947 231.72790966 -39.94015364 232.76515462 -57.3125 236.28515625 Z " fill="#59A9D6" transform="translate(599,0)"/>
<path d="M0 0 C1.0548761 -0.0033284 2.1097522 -0.0066568 3.19659424 -0.01008606 C5.4116574 -0.01510978 7.62672802 -0.01749581 9.84179688 -0.01733398 C13.18112002 -0.01951687 16.52011018 -0.03771222 19.859375 -0.05664062 C31.58830258 -0.08802387 42.86200313 0.35232692 54.453125 2.16796875 C56.73382079 2.47035567 59.01506608 2.76863067 61.296875 3.0625 C82.44442343 5.93892966 103.02252508 9.60656152 123.27001953 16.44482422 C125.42493274 17.15863018 127.58826 17.82940765 129.76171875 18.484375 C130.45845703 18.69513672 131.15519531 18.90589844 131.87304688 19.12304688 C133.73131494 19.68250609 135.59023677 20.23979258 137.44921875 20.796875 C179.38060042 34.45264698 219.45902781 59.21493534 252.453125 88.16796875 C253.51660156 89.08255859 253.51660156 89.08255859 254.6015625 90.015625 C266.13054922 99.96819925 277.60861588 110.2806422 287.50390625 121.8828125 C289.00360508 123.64097646 290.52631516 125.37953125 292.05859375 127.109375 C322.1774011 161.28234372 344.76065651 201.54318087 360.453125 244.16796875 C360.72962891 244.90160645 361.00613281 245.63524414 361.29101562 246.39111328 C369.81807542 269.18210918 375.10373669 294.10960673 378.453125 318.16796875 C378.67524658 319.70928467 378.67524658 319.70928467 378.90185547 321.28173828 C388.46205735 390.09666832 376.63309625 462.66604467 346.453125 525.16796875 C346.11958008 525.86535156 345.78603516 526.56273437 345.44238281 527.28125 C343.19698865 531.95524461 340.85618802 536.57324929 338.453125 541.16796875 C338.10233887 541.8444043 337.75155273 542.52083984 337.39013672 543.21777344 C327.60036406 561.9433822 315.76617129 579.76104551 302.453125 596.16796875 C301.35484375 597.55242187 301.35484375 597.55242187 300.234375 598.96484375 C295.03666222 605.44368291 289.50726452 611.57627226 283.8515625 617.65185547 C282.47404495 619.14528843 281.11712823 620.65489166 279.765625 622.171875 C273.07455288 629.65558369 265.95631311 636.503089 258.453125 643.16796875 C257.91880859 643.6470166 257.38449219 644.12606445 256.83398438 644.61962891 C232.17971015 666.64302078 204.18987369 684.93602608 174.39941406 699.22509766 C172.47590931 700.15693099 170.56979381 701.11835956 168.6640625 702.0859375 C142.72034369 715.03994051 113.84487837 723.51899807 85.453125 729.16796875 C84.41768555 729.37631348 84.41768555 729.37631348 83.36132812 729.58886719 C74.10672013 731.4354439 64.8258734 733.04731405 55.453125 734.16796875 C54.68806641 734.25965332 53.92300781 734.35133789 53.13476562 734.44580078 C-39.39585697 745.08502217 -137.39222512 718.01343362 -210.546875 660.16796875 C-211.15837402 659.68505371 -211.76987305 659.20213867 -212.39990234 658.70458984 C-220.46096098 652.31431878 -228.2860655 645.75185307 -235.80078125 638.7265625 C-238.44652103 636.26147067 -241.14443577 633.86879875 -243.859375 631.48046875 C-247.50671029 628.21185039 -250.75642654 624.79652531 -253.91015625 621.0546875 C-255.50303225 619.21850825 -257.17199656 617.54127842 -258.921875 615.85546875 C-262.59911176 612.2271531 -265.82550188 608.30176502 -269.0546875 604.2734375 C-270.75884422 602.14991934 -272.47568895 600.05237725 -274.2265625 597.96875 C-288.73159657 580.53272455 -300.85288993 561.13513559 -311.546875 541.16796875 C-312.04670898 540.23549316 -312.54654297 539.30301758 -313.06152344 538.34228516 C-356.13744371 457.09350592 -368.09009336 355.75585891 -340.97784424 267.31170654 C-321.01754138 202.53270746 -286.06366084 139.98280975 -234.00390625 95.2890625 C-232.10835831 93.65268328 -230.235897 91.99894049 -228.37109375 90.328125 C-188.07822601 54.46408302 -138.40822393 27.78287921 -86.546875 13.16796875 C-85.20737793 12.78946777 -85.20737793 12.78946777 -83.84082031 12.40332031 C-68.91451254 8.26366211 -53.97714286 5.65497688 -38.63476562 3.60742188 C-34.70368866 3.04797069 -30.80031974 2.3604852 -26.89550781 1.64160156 C-17.95499308 0.37704932 -9.0197206 0.01022592 0 0 Z M-229.19140625 142.00170898 C-279.45353927 195.72004805 -308.23976013 263.5455249 -316.546875 336.16796875 C-316.70373779 337.37525635 -316.70373779 337.37525635 -316.86376953 338.60693359 C-321.93800484 380.84381531 -316.88827951 428.66402404 -302.43505859 468.69970703 C-301.40826127 471.55317622 -300.42749524 474.42127852 -299.44140625 477.2890625 C-283.36266171 523.14562847 -257.6475727 566.2799631 -222.546875 600.16796875 C-219.95047817 602.74747845 -217.3751539 605.34411819 -214.8203125 607.96484375 C-208.40763636 614.52198431 -201.78822633 620.51790186 -194.546875 626.16796875 C-193.60972656 626.92207031 -192.67257812 627.67617188 -191.70703125 628.453125 C-164.62696582 649.88715362 -133.88014959 667.0726362 -101.546875 679.16796875 C-100.63679687 679.52117188 -99.72671875 679.874375 -98.7890625 680.23828125 C-65.54025799 692.84305191 -29.95772924 698.1674266 5.453125 699.16796875 C6.69964844 699.20921875 7.94617188 699.25046875 9.23046875 699.29296875 C19.21884063 699.45521641 29.17286909 698.87053888 39.140625 698.29296875 C39.84173401 698.25376312 40.54284302 698.2145575 41.26519775 698.17416382 C53.92114324 697.45402864 66.33811977 696.07621548 78.67578125 693.0703125 C81.57514734 692.37770281 84.47165963 691.72909457 87.38671875 691.109375 C97.15197126 689.01121657 106.74163284 686.62782468 116.265625 683.60546875 C117.1537085 683.32477539 118.04179199 683.04408203 118.95678711 682.75488281 C123.84538093 681.16068556 128.52171588 679.32473185 133.19360352 677.17993164 C135.50858875 676.14312842 137.84691175 675.21198168 140.2109375 674.29296875 C170.10856916 662.4399933 197.59508092 645.46308959 222.453125 625.16796875 C222.97938477 624.74080566 223.50564453 624.31364258 224.04785156 623.87353516 C231.04604941 618.16654183 237.73191274 612.14641556 244.328125 605.98046875 C245.02977783 605.32731689 245.73143066 604.67416504 246.4543457 604.0012207 C250.5168405 600.16573489 254.28978953 596.18961761 257.92529297 591.94750977 C259.7520494 589.81979682 261.66431195 587.77987584 263.578125 585.73046875 C293.19130115 552.76013049 313.99720517 512.76874844 328.453125 471.16796875 C328.81100098 470.14630615 329.16887695 469.12464355 329.53759766 468.07202148 C331.74170658 461.64671939 333.5187026 455.24287691 334.953125 448.60546875 C335.16179199 447.6520459 335.37045898 446.69862305 335.58544922 445.71630859 C336.00934133 443.77570274 336.43109059 441.83462744 336.85058594 439.89306641 C337.38660818 437.46880372 337.96004703 435.05883585 338.5546875 432.6484375 C346.62127948 399.0502495 346.34795701 362.31327224 342.453125 328.16796875 C342.35660645 327.26788086 342.26008789 326.36779297 342.16064453 325.44042969 C333.52445152 246.50931258 291.62086099 168.0411348 230.453125 117.16796875 C229.6477832 116.49193604 229.6477832 116.49193604 228.82617188 115.80224609 C177.88781108 73.15839379 115.43270958 44.84919847 49.02539062 38.41796875 C47.38684075 38.25871713 45.74972007 38.08334861 44.11523438 37.88671875 C-54.4419997 26.92721695 -151.336476 66.32116458 -229.19140625 142.00170898 Z " fill="#FDFEFE" transform="translate(586.546875,231.83203125)"/>
<path d="M0 0 C1.01199463 0.00499512 2.02398926 0.00999023 3.06665039 0.01513672 C15.69347943 0.30857212 25.68855606 4.38043718 34.6484375 13.4140625 C38.38953122 17.50243074 41.07288376 21.66373132 43.75 26.5 C44.52601563 25.81035156 45.30203125 25.12070312 46.1015625 24.41015625 C63.83542607 8.89129082 80.07342232 -0.68291964 104.15869141 0.3046875 C114.83727506 1.10955531 124.14944304 6.45503612 131.4375 14.125 C141.14328178 25.97010724 144.23906181 39.98744257 144.09057617 54.96972656 C144.09101425 56.15166092 144.09145233 57.33359528 144.09190369 58.55134583 C144.08983232 62.41461354 144.06657921 66.27743414 144.04296875 70.140625 C144.03568731 72.83632157 144.03295181 75.53201775 144.03010559 78.22772217 C144.02083063 84.5703978 143.99627948 90.91291584 143.96605712 97.25552249 C143.93237023 104.48417777 143.91599142 111.7128411 143.90097082 118.9415555 C143.86972504 133.79446836 143.81477095 148.64719083 143.75 163.5 C127.58 163.5 111.41 163.5 94.75 163.5 C94.71261719 156.34828125 94.67523437 149.1965625 94.63671875 141.828125 C94.6064198 137.27992446 94.57525924 132.73176213 94.54101562 128.18359375 C94.48682125 120.97479242 94.43570614 113.76606669 94.40356445 106.55712891 C94.37743195 100.74091745 94.33695955 94.92496184 94.28681374 89.10890961 C94.27021211 86.89715524 94.25865631 84.68535668 94.25238609 82.47354889 C94.94076832 63.82835871 94.94076832 63.82835871 88.4375 46.875 C82.71274325 41.81591264 75.9879738 41.96683458 68.6640625 42.0390625 C61.38226524 42.8965995 55.74395427 46.50403049 49.75 50.5 C49.28821138 52.58209275 49.28821138 52.58209275 49.35127258 55.03042603 C49.33873444 55.98397476 49.32619629 56.9375235 49.3132782 57.91996765 C49.31471329 58.96941055 49.31614838 60.01885345 49.31762695 61.10009766 C49.3074353 62.20254318 49.29724365 63.30498871 49.28674316 64.44084167 C49.25645731 68.0986326 49.2473233 71.75616234 49.23828125 75.4140625 C49.22144615 77.94470094 49.20329752 80.47533096 49.18388367 83.00595093 C49.14112382 88.99471759 49.11165058 94.98340825 49.08856028 100.97227132 C49.0541499 109.65363583 48.99298471 118.33481839 48.93505096 127.01605225 C48.85638147 139.17735195 48.80589289 151.33847813 48.75 163.5 C32.25 163.5 15.75 163.5 -1.25 163.5 C-1.27578125 156.04792969 -1.3015625 148.59585938 -1.328125 140.91796875 C-1.35330621 136.18290881 -1.37964908 131.44791194 -1.41015625 126.71289062 C-1.45841556 119.205483 -1.5024889 111.69822144 -1.52099609 104.19067383 C-1.53619533 98.13451784 -1.57069961 92.07874525 -1.61830902 86.02276039 C-1.63308902 83.7180751 -1.64103906 81.41333506 -1.64188385 79.10860252 C-1.64426537 75.86780815 -1.67144154 72.6280632 -1.70410156 69.38745117 C-1.6990712 68.44517166 -1.69404083 67.50289215 -1.68885803 66.53205872 C-1.7953738 59.65236593 -2.73744598 51.14417368 -7.73248672 45.9619627 C-14.24245644 41.48345966 -22.65332933 41.24784068 -30.25 42.5 C-35.30600865 44.16131147 -41.48172102 46.73172102 -45.25 50.5 C-45.35775914 51.96705061 -45.3968156 53.4392128 -45.40821838 54.91017151 C-45.4180072 55.86234558 -45.42779602 56.81451965 -45.43788147 57.79554749 C-45.44363693 58.84858566 -45.4493924 59.90162384 -45.45532227 60.98657227 C-45.46522186 62.08887177 -45.47512146 63.19117126 -45.48532104 64.32687378 C-45.51704487 67.99002902 -45.54173633 71.65319726 -45.56640625 75.31640625 C-45.58696639 77.8484685 -45.6079626 80.38052725 -45.62937927 82.9125824 C-45.67903539 88.90845003 -45.72427541 94.90433542 -45.76740164 100.90025228 C-45.83021601 109.59015955 -45.90190532 118.27999429 -45.97252655 126.969841 C-46.07065809 139.14652552 -46.1594307 151.3232463 -46.25 163.5 C-62.75 163.5 -79.25 163.5 -96.25 163.5 C-96.25 111.03 -96.25 58.56 -96.25 4.5 C-79.75 4.5 -63.25 4.5 -46.25 4.5 C-45.755 12.42 -45.755 12.42 -45.25 20.5 C-42.40375 18.2415625 -42.40375 18.2415625 -39.5 15.9375 C-27.17732346 6.37088308 -15.84731913 -0.10265683 0 0 Z " fill="#FEFEFE" transform="translate(740.25,517.5)"/>
<path d="M0 0 C3.35501942 3.05422458 5.93001275 6.17936553 8.265625 10.0625 C8.95785156 11.20332031 8.95785156 11.20332031 9.6640625 12.3671875 C15.13983501 22.274221 15.5693407 32.96842481 15.49267578 44.07324219 C15.49296783 45.20640869 15.49325989 46.3395752 15.49356079 47.50708008 C15.49218079 51.20792625 15.47668273 54.90856453 15.4609375 58.609375 C15.45720264 61.1929717 15.4543579 63.77656983 15.45236206 66.36016846 C15.44553726 72.43718741 15.42981619 78.51412211 15.40966308 84.59110951 C15.38498914 92.19874639 15.37413957 99.80639551 15.36328125 107.4140625 C15.34388195 120.96359846 15.30380463 134.51297508 15.265625 148.0625 C-1.234375 148.0625 -17.734375 148.0625 -34.734375 148.0625 C-35.229375 140.6375 -35.229375 140.6375 -35.734375 133.0625 C-37.260625 134.403125 -38.786875 135.74375 -40.359375 137.125 C-46.67064215 142.2895034 -53.21939337 145.87482647 -60.734375 149.0625 C-61.38341797 149.34061523 -62.03246094 149.61873047 -62.70117188 149.90527344 C-69.38859931 152.47806688 -75.87858042 152.60195746 -82.984375 152.5625 C-84.78636353 152.55283203 -84.78636353 152.55283203 -86.62475586 152.54296875 C-100.39251917 152.25834447 -109.59072269 148.61382225 -119.734375 139.0625 C-120.29640625 138.54171875 -120.8584375 138.0209375 -121.4375 137.484375 C-132.64816615 125.8016808 -134.15077066 111.31963864 -133.9453125 95.9609375 C-133.55755899 83.35655492 -128.36959496 72.664215 -119.1875 64.0078125 C-110.75137226 57.31801694 -101.11405583 52.81244142 -90.734375 50.0625 C-89.27644531 49.66804687 -89.27644531 49.66804687 -87.7890625 49.265625 C-70.24975963 45.0424022 -51.74302437 43.38529452 -33.734375 44.0625 C-34.87588156 36.46246951 -36.20645733 30.9340609 -42.421875 25.875 C-51.31348953 21.00977696 -59.63328142 20.49677819 -69.671875 20.5625 C-70.35835114 20.56359772 -71.04482727 20.56469543 -71.75210571 20.56582642 C-86.91444287 20.63540578 -99.47975296 23.68479125 -113.25390625 30.14453125 C-115.734375 31.0625 -115.734375 31.0625 -120.734375 31.0625 C-120.734375 18.1925 -120.734375 5.3225 -120.734375 -7.9375 C-84.05801886 -17.10658903 -32.41457133 -25.6210983 0 0 Z " fill="#FEFEFE" transform="translate(441.734375,532.9375)"/>
<path d="M0 0 C0.67920502 0.00465271 1.35841003 0.00930542 2.05819702 0.01409912 C20.98627112 0.16592636 38.63649769 3.88074885 55.625 12.375 C55.625 26.565 55.625 40.755 55.625 55.375 C47.8279703 55.375 47.8279703 55.375 43.4375 51.25 C31.65740512 41.02667515 16.67516787 35.46552126 1.015625 35.9921875 C-7.76085703 36.98308063 -16.16346215 39.90856103 -22.375 46.375 C-34.44806011 61.89396432 -36.16940773 79.72976392 -33.8125 98.6875 C-31.8861841 108.27866729 -27.28419557 118.01300107 -19.421875 124.046875 C-11.01433453 129.50214935 -3.96955296 130.55558649 5.9375 130.5625 C7.30551758 130.58086914 7.30551758 130.58086914 8.70117188 130.59960938 C17.65104493 130.61885641 24.65646527 128.7463453 32.625 124.75 C33.32488037 124.40388672 34.02476074 124.05777344 34.74584961 123.70117188 C39.68711859 121.14325719 43.32166675 118.29453439 46.75390625 113.84375 C48.625 112.375 48.625 112.375 55.625 112.375 C55.625 126.565 55.625 140.755 55.625 155.375 C37.27751632 163.84306939 23.23754864 167.74257382 3.25 167.625 C1.94289063 167.63273438 0.63578125 167.64046875 -0.7109375 167.6484375 C-26.0869248 167.59808832 -47.26226339 160.71214432 -65.9375 143.25 C-83.40845007 125.20074322 -86.92941334 102.17336203 -86.5625 78.078125 C-85.9807076 55.78093127 -77.49580222 35.74368175 -61.25 20.25 C-44.0810467 5.64753972 -22.18075913 -0.23949439 0 0 Z " fill="#FDFEFE" transform="translate(562.375,517.625)"/>
<path d="M0 0 C0.14873164 4.60801142 0.257388 9.21461592 0.32958984 13.82446289 C0.35969601 15.39111679 0.4005923 16.95760303 0.45263672 18.52368164 C0.52573887 20.78053143 0.55951301 23.03514796 0.5859375 25.29296875 C0.61690521 25.98899704 0.64787292 26.68502533 0.67977905 27.40214539 C0.68169855 30.19892102 0.5403569 32.35928505 -1.30220032 34.54405212 C-10.48295636 42.31101349 -21.1584783 44.97011166 -33 44 C-37.83841311 43.13417871 -41.62345259 41.8629372 -44.9375 38.125 C-49.09909873 31.81954738 -49.80464178 26.44032395 -49 19 C-47.4184526 12.80118335 -43.85099749 9.45869851 -38.453125 6.24609375 C-26.9273786 0.39145505 -12.73318781 -0.08207484 0 0 Z " fill="#6FB8E2" transform="translate(407,607)"/>
</svg>
