<?xml version="1.0" encoding="UTF-8"?>
<svg version="1.1" xmlns="http://www.w3.org/2000/svg" width="1920" height="1200">
<path d="M0 0 C633.6 0 1267.2 0 1920 0 C1920 396 1920 792 1920 1200 C1286.4 1200 652.8 1200 0 1200 C0 804 0 408 0 0 Z " fill="#000000" transform="translate(0,0)"/>
<path d="M0 0 C2.48713382 -0.04377356 4.95524896 0.00256504 7.44140625 0.08203125 C8.88193359 0.10716797 8.88193359 0.10716797 10.3515625 0.1328125 C25.65011094 0.79631832 38.68705661 5.86764217 51.44140625 14.08203125 C52.48683594 14.74203125 53.53226563 15.40203125 54.609375 16.08203125 C57.19456812 17.90771246 59.04917122 19.60554146 61.06640625 22.01953125 C61.64777344 22.71175781 62.22914063 23.40398438 62.828125 24.1171875 C63.36050781 24.76558594 63.89289063 25.41398438 64.44140625 26.08203125 C65.64796875 27.50515625 65.64796875 27.50515625 66.87890625 28.95703125 C68.44140625 31.08203125 68.44140625 31.08203125 68.44140625 33.08203125 C69.10140625 33.08203125 69.76140625 33.08203125 70.44140625 33.08203125 C71.11548933 34.34894632 71.78041122 35.62073874 72.44140625 36.89453125 C72.81265625 37.60222656 73.18390625 38.30992187 73.56640625 39.0390625 C74.44140625 41.08203125 74.44140625 41.08203125 74.44140625 44.08203125 C76.96729327 41.71910469 78.32961462 40.41740614 79.44140625 37.08203125 C81.06243593 35.37094436 82.73644088 33.70949819 84.44140625 32.08203125 C85.26640625 31.25703125 86.09140625 30.43203125 86.94140625 29.58203125 C87.76640625 28.75703125 88.59140625 27.93203125 89.44140625 27.08203125 C90.19164062 26.29699219 90.941875 25.51195312 91.71484375 24.703125 C102.74913737 14.09565936 116.77236537 6.96005355 131.44140625 3.08203125 C132.23417969 2.86675781 133.02695312 2.65148437 133.84375 2.4296875 C143.82521758 -0.04311731 154.21251649 -0.18816584 164.44140625 0.08203125 C165.49714844 0.09878906 166.55289062 0.11554688 167.640625 0.1328125 C187.30566886 0.93220453 205.6729196 7.10301712 219.625 21.3046875 C224.44140625 26.6444055 224.44140625 26.6444055 224.44140625 29.08203125 C225.10140625 29.08203125 225.76140625 29.08203125 226.44140625 29.08203125 C236.04594368 49.37026762 239.78076632 69.18088594 239.66845703 91.63427734 C239.66789135 93.2422332 239.66821253 94.85018958 239.66934204 96.45814514 C239.66991044 100.77747279 239.65824017 105.09668693 239.64419413 109.41598845 C239.63160033 113.94696682 239.63050951 118.47794847 239.62814331 123.00894165 C239.62195376 131.56853951 239.60557749 140.12808563 239.58544433 148.68766081 C239.5588019 160.26868505 239.54809226 171.84972367 239.5364399 183.43077087 C239.51769479 201.64789634 239.47783239 219.86491267 239.44140625 238.08203125 C213.37140625 238.08203125 187.30140625 238.08203125 160.44140625 238.08203125 C160.40402344 228.41535156 160.36664062 218.74867188 160.328125 208.7890625 C160.2978348 202.65037651 160.26680033 196.51170908 160.23242188 190.37304688 C160.17804075 180.63811971 160.12662339 170.90324404 160.0949707 161.16821289 C160.07189891 154.07661485 160.03839961 146.98515323 159.99270469 139.89366359 C159.96889539 136.14347809 159.95008656 132.39342668 159.94379234 128.6431675 C159.9376852 125.10296412 159.9174865 121.56310325 159.88713074 118.02302742 C159.87434032 116.12546925 159.87590494 114.22783069 159.87812805 112.33023071 C159.75370142 100.79678149 158.39055797 86.52694562 150.19140625 77.64453125 C149.32515625 76.87109375 149.32515625 76.87109375 148.44140625 76.08203125 C148.44140625 75.42203125 148.44140625 74.76203125 148.44140625 74.08203125 C147.78140625 74.08203125 147.12140625 74.08203125 146.44140625 74.08203125 C146.44140625 73.42203125 146.44140625 72.76203125 146.44140625 72.08203125 C145.71953125 71.79328125 144.99765625 71.50453125 144.25390625 71.20703125 C141.44140625 70.08203125 141.44140625 70.08203125 139.3046875 69.03515625 C130.33365802 66.04889268 118.32269609 67.09600203 109.7734375 70.8125 C97.84955651 77.303725 90.92099617 88.03038693 87.02734375 100.90234375 C84.16926574 111.53439396 83.29563401 121.85912475 83.23608398 132.84399414 C83.22618439 133.98647614 83.21628479 135.12895813 83.20608521 136.30606079 C83.17467743 140.05558246 83.14979523 143.80511677 83.125 147.5546875 C83.10441255 150.1649965 83.08341563 152.7753023 83.06202698 155.38560486 C83.01230932 161.53703428 82.96729376 167.68848858 82.92400461 173.83996624 C82.86958301 181.53722425 82.80881883 189.23443058 82.74804688 196.93164062 C82.63977644 210.64839763 82.54103396 224.36520271 82.44140625 238.08203125 C56.04140625 238.08203125 29.64140625 238.08203125 2.44140625 238.08203125 C2.39242187 228.6203125 2.3434375 219.15859375 2.29296875 209.41015625 C2.25756897 203.40363687 2.22168035 197.39712695 2.18359375 191.390625 C2.12327758 181.8641173 2.06491477 172.33762727 2.01953125 162.81103516 C1.98646276 155.87146084 1.94655097 148.93196435 1.89861619 141.99247622 C1.87349794 138.32227123 1.85167447 134.65211687 1.83806229 130.98184967 C1.82269185 126.87222724 1.79203489 122.76284865 1.76025391 118.65332031 C1.75809372 117.4528154 1.75593353 116.25231049 1.75370789 115.01542664 C1.61282934 100.68489467 -0.19034215 86.32255419 -9.62109375 74.9609375 C-16.16487967 68.61504833 -24.15348006 67.77561719 -32.87109375 67.76733398 C-43.53056205 67.95752087 -51.92721586 71.58073366 -59.55859375 79.08203125 C-65.73684605 86.04502124 -69.20484897 94.1403631 -71.55859375 103.08203125 C-71.80597794 103.97787933 -72.05336212 104.87372742 -72.3082428 105.79672241 C-75.45003893 118.98254045 -75.03809112 132.3133815 -75.0703125 145.796875 C-75.08718306 148.46588354 -75.10519461 151.13486027 -75.12471008 153.80384827 C-75.16807355 160.07194891 -75.19680427 166.34002417 -75.22003347 172.60822827 C-75.24992761 180.45830224 -75.29978991 188.30823466 -75.34960938 196.15820312 C-75.43821169 210.13276888 -75.49704959 224.10726207 -75.55859375 238.08203125 C-101.95859375 238.08203125 -128.35859375 238.08203125 -155.55859375 238.08203125 C-155.55859375 161.52203125 -155.55859375 84.96203125 -155.55859375 6.08203125 C-131.79859375 6.08203125 -108.03859375 6.08203125 -83.55859375 6.08203125 C-83.55859375 19.94203125 -83.55859375 33.80203125 -83.55859375 48.08203125 C-80.7976832 45.3211207 -79.06241426 42.86053561 -76.99609375 39.58203125 C-72.79795783 33.19525676 -68.13056087 27.34329388 -62.55859375 22.08203125 C-61.89859375 22.08203125 -61.23859375 22.08203125 -60.55859375 22.08203125 C-60.55859375 21.42203125 -60.55859375 20.76203125 -60.55859375 20.08203125 C-42.85996041 6.75569342 -21.94731552 0.70365439 0 0 Z " fill="#38B4FA" transform="translate(698.55859375,495.91796875)"/>
<path d="M0 0 C4.06208155 0.53715018 5.93167017 2.55769259 8.77135086 5.39941406 C9.23858063 5.8628827 9.70581039 6.32635134 10.18719864 6.80386448 C11.75971442 8.36739735 13.32125882 9.94145169 14.88311768 11.515625 C16.01612667 12.64661069 17.14979266 13.77693854 18.28406024 14.90666199 C21.40584073 18.01977028 24.51815497 21.14219656 27.62904167 24.26618576 C30.98284045 27.63085731 34.3452604 30.9868936 37.70663452 34.34399414 C44.29232121 40.92403947 50.86998941 47.51204519 57.44505456 54.10270214 C65.09483311 61.76998872 72.7526347 69.42924086 80.41084298 77.08810616 C94.06903403 90.74798632 107.72014198 104.41492304 121.3671875 118.0859375 C134.62476029 131.36677841 147.88687986 144.6430557 161.15429688 157.9140625 C161.97168277 158.73167116 162.78906866 159.54927982 163.63122383 160.39166451 C165.2777456 162.03862886 166.92426765 163.68559293 168.57078998 165.33255672 C169.38290921 166.14489552 170.19502845 166.95723433 171.03175735 167.79418945 C171.84176278 168.60441087 172.65176821 169.41463228 173.48631926 170.24940586 C186.11006411 182.8768472 198.72997624 195.50811853 211.34935774 208.13992023 C215.93115878 212.72616344 220.51346307 217.31190313 225.09611323 221.89729786 C232.36252065 229.16812896 239.62726359 236.44061446 246.88857558 243.71653461 C250.20880449 247.0433908 253.52981812 250.36945332 256.85297012 253.69338989 C259.88967099 256.73087327 262.92407027 259.7706356 265.95657191 262.81231117 C267.05920648 263.91746982 268.16269904 265.02177318 269.26709309 266.12517357 C270.75770367 267.6147011 272.24525595 269.10721426 273.7320137 270.60058594 C274.56219238 271.43201111 275.39237105 272.26343628 276.24770665 273.12005615 C278 275 278 275 278 276 C261.43026527 280.87897889 244.809734 283.88829866 227.625 285.625 C226.3315567 285.75653221 225.0381134 285.88806442 223.70547485 286.02358246 C188.86110547 289.13235797 161.52841601 281.23729456 134.53729796 258.69206357 C112.87896555 240.23018077 93.02442425 219.79316764 73.5 199.125 C72.63095567 198.20697633 71.76191133 197.28895266 70.86653233 196.34311008 C52.27597054 176.69076595 34.01944356 156.74712947 16.23242188 136.36376953 C15.59470895 135.63467416 14.95699603 134.90557879 14.29995847 134.15438962 C12.53988685 132.13734175 10.78765574 130.11383969 9.03894043 128.08694458 C8.2629367 127.1968695 8.2629367 127.1968695 7.47125614 126.28881311 C4 122.23232436 4 122.23232436 4 120 C0.00641274 121.33182428 -2.22333567 122.90818547 -5.04662132 126.00988197 C-5.82268773 126.8533624 -6.59875415 127.69684283 -7.39833772 128.56588328 C-8.24031981 129.49777614 -9.08230189 130.42966899 -9.94979858 131.38980103 C-10.86249066 132.38641949 -11.77609957 133.38219897 -12.69054377 134.37721002 C-14.67866062 136.542872 -16.66203416 138.71274127 -18.64196968 140.88588524 C-24.15683557 146.93618994 -29.70819013 152.95298366 -35.25839233 158.97085571 C-35.84819546 159.61079689 -36.43799859 160.25073807 -37.04567453 160.9100714 C-46.40118905 171.05647361 -55.84514659 181.11503266 -65.3565979 191.11532593 C-66.0033213 191.79537464 -66.65004469 192.47542334 -67.31636576 193.17607959 C-74.01630734 200.21856928 -80.7275098 207.25023267 -87.44773998 214.27336196 C-90.90323659 217.88555753 -94.35582715 221.50051804 -97.80664062 225.1171875 C-98.83668419 226.19659824 -98.83668419 226.19659824 -99.88753672 227.29781525 C-109.51402441 237.3967541 -118.98718901 247.62123816 -128.35401288 257.96121857 C-144.49242979 275.77543473 -160.89349668 293.2976367 -177.8359375 310.3515625 C-178.49030411 311.01158315 -179.14467071 311.67160381 -179.81886661 312.35162508 C-212.9787503 345.7233013 -242.47791416 370.58712769 -291.22302745 371.19624509 C-314.70352229 371.22556441 -338.1094425 368.06758829 -361 363 C-356.96366348 358.15795212 -352.73878582 353.59841093 -348.26913452 349.15560913 C-347.29175085 348.17800218 -347.29175085 348.17800218 -346.29462206 347.18064559 C-344.12765491 345.01436859 -341.95714327 342.85167938 -339.78662109 340.68896484 C-338.22552091 339.12978532 -336.66464935 337.57037686 -335.10398865 336.01075745 C-331.7513333 332.66125596 -328.39713237 329.31331275 -325.04172897 325.96656418 C-319.73622111 320.67460241 -314.43455076 315.37880731 -309.13345337 310.08242798 C-301.70204511 302.65834435 -294.26924755 295.23565435 -286.83496094 287.81445312 C-286.36389544 287.34421544 -285.89282994 286.87397775 -285.40748973 286.38949044 C-282.06337579 283.05127757 -278.71919502 279.71313165 -275.375 276.375 C-271.55138495 272.55831565 -267.72780191 268.74159925 -263.90429688 264.92480469 C-263.19765536 264.21940536 -263.19765536 264.21940536 -262.47673826 263.49975555 C-254.61890501 255.6556131 -246.76305968 247.80948227 -238.90857184 239.96199 C-233.63828482 234.69668621 -228.36556871 229.43383072 -223.09098411 224.17283225 C-219.81258941 220.90189324 -216.53626451 217.62888708 -213.26049995 214.35531425 C-211.7408058 212.83749307 -210.22024696 211.32053707 -208.69876289 209.80451012 C-206.62249156 207.73545204 -204.54932764 205.66332877 -202.47689819 203.59042358 C-201.8739815 202.99110185 -201.2710648 202.39178012 -200.64987791 201.77429712 C-198.16977816 199.28809026 -195.89026208 196.85983633 -193.72019386 194.08809853 C-193.15252989 193.39902601 -192.58486591 192.7099535 -192 192 C-191.34 192 -190.68 192 -190 192 C-190 191.34 -190 190.68 -190 190 C-188.6015625 188.625 -188.6015625 188.625 -186.625 187 C-180.60866602 181.88290455 -174.67278483 176.45154588 -169.828125 170.1953125 C-169.22484375 169.47085938 -168.6215625 168.74640625 -168 168 C-167.34 168 -166.68 168 -166 168 C-166 167.34 -166 166.68 -166 166 C-164.6015625 164.625 -164.6015625 164.625 -162.625 163 C-156.60866602 157.88290455 -150.67278483 152.45154588 -145.828125 146.1953125 C-145.22484375 145.47085938 -144.6215625 144.74640625 -144 144 C-143.34 144 -142.68 144 -142 144 C-142 143.34 -142 142.68 -142 142 C-140.6015625 140.625 -140.6015625 140.625 -138.625 139 C-132.60866602 133.88290455 -126.67278483 128.45154588 -121.828125 122.1953125 C-121.22484375 121.47085938 -120.6215625 120.74640625 -120 120 C-119.34 120 -118.68 120 -118 120 C-118 119.34 -118 118.68 -118 118 C-116.6015625 116.625 -116.6015625 116.625 -114.625 115 C-108.60866602 109.88290455 -102.67278483 104.45154588 -97.828125 98.1953125 C-96.92320312 97.10863281 -96.92320312 97.10863281 -96 96 C-95.34 96 -94.68 96 -94 96 C-94 95.34 -94 94.68 -94 94 C-92.6015625 92.625 -92.6015625 92.625 -90.625 91 C-84.60866602 85.88290455 -78.67278483 80.45154588 -73.828125 74.1953125 C-72.92320312 73.10863281 -72.92320312 73.10863281 -72 72 C-71.34 72 -70.68 72 -70 72 C-70 71.34 -70 70.68 -70 70 C-68.6015625 68.625 -68.6015625 68.625 -66.625 67 C-60.60866602 61.88290455 -54.67278483 56.45154588 -49.828125 50.1953125 C-49.22484375 49.47085938 -48.6215625 48.74640625 -48 48 C-47.34 48 -46.68 48 -46 48 C-46 47.34 -46 46.68 -46 46 C-44.6015625 44.625 -44.6015625 44.625 -42.625 43 C-36.60866602 37.88290455 -30.67278483 32.45154588 -25.828125 26.1953125 C-24.92320312 25.10863281 -24.92320312 25.10863281 -24 24 C-23.34 24 -22.68 24 -22 24 C-22 23.34 -22 22.68 -22 22 C-20.6015625 20.625 -20.6015625 20.625 -18.625 19 C-11.8414751 13.23038274 -5.46440737 7.04357096 0 0 Z " fill="#38B4FA" transform="translate(1310,52)"/>
<path d="M0 0 C27.39 0 54.78 0 83 0 C88.7421875 24.1171875 88.7421875 24.1171875 91.0625 34.6875 C91.53251983 36.81641337 92.00257262 38.94531947 92.47265625 41.07421875 C92.7137915 42.16863281 92.95492676 43.26304687 93.20336914 44.390625 C95.28006143 53.79970215 97.3739156 63.20499537 99.47709656 72.60818481 C100.2983348 76.28021036 101.11818023 79.95254597 101.9375 83.625 C102.11019409 84.39870941 102.28288818 85.17241882 102.46081543 85.96957397 C104.63816032 95.73492821 106.75216988 105.50852584 108.75 115.3125 C110.23323592 122.58805406 111.94690046 129.7002809 113.9609375 136.84765625 C115.78112084 143.7312263 116.96779284 150.78731638 118.25 157.78686523 C118.44851563 158.83430908 118.64703125 159.88175293 118.8515625 160.9609375 C119.02510254 161.90759277 119.19864258 162.85424805 119.37744141 163.82958984 C119.58288574 164.5458252 119.78833008 165.26206055 120 166 C120.66 166.33 121.32 166.66 122 167 C122.19468872 165.50919922 122.19468872 165.50919922 122.39331055 163.98828125 C122.96343426 160.00870667 123.80451372 156.10327319 124.70703125 152.1875 C124.87369797 151.45611816 125.04036469 150.72473633 125.21208191 149.97119141 C125.56455186 148.42790302 125.91844208 146.88493838 126.27368164 145.34228516 C126.80442512 143.03510212 127.32931033 140.72664491 127.85351562 138.41796875 C129.76850786 130.03494549 131.84921956 121.72537893 134.1003418 113.42578125 C135.39838254 108.48301119 136.46204483 103.50266147 137.5 98.5 C139.10526809 90.93160413 140.89553993 83.48683147 142.9609375 76.03125 C144.63439257 69.75661221 145.91340083 63.38231979 147.25 57.02929688 C148.32502253 51.95086253 149.54257524 46.98505513 151 42 C151.98475805 38.19408295 152.92875496 34.3781497 153.875 30.5625 C154.26981567 28.97864502 154.26981567 28.97864502 154.67260742 27.36279297 C155.87016144 22.55722831 157.06255559 17.75044173 158.24609375 12.94140625 C158.51993896 11.83333618 158.51993896 11.83333618 158.79931641 10.70288086 C159.28090738 8.75291854 159.759693 6.80226397 160.23828125 4.8515625 C161 2 161 2 162 0 C193.68 0 225.36 0 258 0 C259.98 8.58 261.96 17.16 264 26 C265.51998142 31.73090015 265.51998142 31.73090015 267.0703125 37.45361328 C268.93398356 44.56277446 270.44157737 51.75642853 272 58.9375 C274.48124939 70.34422023 277.1251135 81.6861045 280 93 C284.48144058 111.05873822 288.57217621 129.20761807 292.66064453 147.35839844 C292.87372757 148.30194183 293.08681061 149.24548523 293.30635071 150.21762085 C293.7106559 152.00819639 294.11369849 153.79905762 294.51530457 155.59024048 C294.69628189 156.39110077 294.87725922 157.19196106 295.0637207 158.01708984 C295.22105179 158.71667816 295.37838287 159.41626648 295.54048157 160.13705444 C295.94578881 161.78022103 296.46481121 163.39443363 297 165 C297.66 165.33 298.32 165.66 299 166 C299.06803833 165.11078857 299.06803833 165.11078857 299.13745117 164.20361328 C299.70931304 157.62432006 300.86032658 151.31220569 302.3125 144.875 C302.53615234 143.8636499 302.75980469 142.8522998 302.99023438 141.81030273 C304.24140612 136.20364532 305.57254911 130.62664532 307 125.0625 C310.07226887 113.04706791 312.47568545 100.86290636 314.84375 88.69140625 C316.15521314 81.95590265 317.65598397 75.32396738 319.37915039 68.68164062 C320.98808667 62.33364192 322.24533165 55.92604653 323.5 49.5 C325.11427241 41.23767611 326.90094567 33.0823467 329.0234375 24.9375 C330.44307865 19.37458844 331.55874818 13.74237153 332.69360352 8.11572266 C333.89951995 2.20096009 333.89951995 2.20096009 335 0 C360.08 0 385.16 0 411 0 C410.26602923 5.13779538 409.42146307 9.36046743 407.9375 14.25 C407.49190539 15.7290817 407.04661595 17.20825537 406.6015625 18.6875 C406.22692871 19.925 406.22692871 19.925 405.84472656 21.1875 C404.86978209 24.4335579 403.91455812 27.68511457 402.9609375 30.9375 C402.60652588 32.14374023 402.25211426 33.34998047 401.88696289 34.59277344 C401.17917735 37.00191394 400.4726039 39.41141092 399.76733398 41.82128906 C399.43805908 42.93729492 399.10878418 44.05330078 398.76953125 45.203125 C398.33024292 46.69827637 398.33024292 46.69827637 397.88208008 48.22363281 C397.03890392 50.87754902 396.048334 53.42172326 395 56 C394.29004504 58.32659938 393.60607814 60.66117466 392.9375 63 C390.57453559 71.18268729 388.0440477 79.309532 385.5 87.4375 C382.7149391 96.34832153 379.9851403 105.26020384 377.58398438 114.28295898 C376.47839611 118.41577824 375.20139779 122.45520191 373.83007812 126.50439453 C372.19726704 131.41339302 370.70318366 136.36635324 369.1875 141.3125 C368.6630127 143.02131348 368.6630127 143.02131348 368.12792969 144.76464844 C363.95064691 158.39517937 359.7791375 172.02656982 355.95703125 185.76171875 C355.22914635 188.22464358 354.45789838 190.64642552 353.63671875 193.078125 C351.24944227 200.16546842 349.12800553 207.33711331 346.9609375 214.49414062 C346.62320312 215.60080078 346.28546875 216.70746094 345.9375 217.84765625 C345.63714844 218.83773682 345.33679687 219.82781738 345.02734375 220.84790039 C343.80259214 224.60568749 342.38775873 228.29931005 341 232 C310.31 232 279.62 232 248 232 C246.35 224.74 244.7 217.48 243 210 C241.54067087 204.5507399 241.54067087 204.5507399 240.06298828 199.10644531 C237.54579819 189.60907718 235.56460496 179.9652169 233.4375 170.375 C232.9514678 168.19264241 232.46514142 166.01035031 231.97851562 163.828125 C231.74211365 162.76800201 231.50571167 161.70787903 231.262146 160.6156311 C231.02997375 159.57458221 230.79780151 158.53353333 230.55859375 157.4609375 C230.3302887 156.43656586 230.10198364 155.41219421 229.86676025 154.35678101 C227.35029917 143.07222443 224.72973559 131.82952188 221.875 120.625 C219.67489749 111.95443404 217.58518338 103.26820289 215.61328125 94.54296875 C215.4117041 93.65411987 215.21012695 92.765271 215.00244141 91.8494873 C213.99756763 87.41391167 213.00249906 82.97644954 212.02099609 78.53564453 C211.65363597 76.90520228 211.28597469 75.27482785 210.91796875 73.64453125 C210.75363846 72.88544968 210.58930817 72.1263681 210.41999817 71.34428406 C210.01009522 69.54720052 209.51331226 67.77032206 209 66 C208.34 65.67 207.68 65.34 207 65 C206.84144531 65.69480469 206.68289063 66.38960937 206.51953125 67.10546875 C205.85545538 70.0002525 205.1861348 72.89377487 204.51367188 75.78662109 C204.15165418 77.34653193 203.79111438 78.90678612 203.43164062 80.46728516 C201.24845375 89.92599529 199.00533405 99.27460555 196.02734375 108.51953125 C194.693901 113.03701219 193.62873727 117.60070675 192.5625 122.1875 C191.05081408 128.68959156 189.45845708 135.14353314 187.625 141.5625 C185.40852651 149.33303854 183.43913927 157.15598643 181.5 165 C179.39666668 173.49897665 177.23668454 181.9676541 174.84814453 190.39086914 C172.84037104 197.49066635 170.98829939 204.62935412 169.14233398 211.77270508 C168.43254742 214.51628911 167.71809477 217.25857897 167 220 C166.73219727 221.02367676 166.46439453 222.04735352 166.18847656 223.10205078 C165.92260742 224.10091309 165.65673828 225.09977539 165.3828125 226.12890625 C165.14191895 227.03842041 164.90102539 227.94793457 164.65283203 228.88500977 C164 231 164 231 163 232 C160.13908182 232.09522418 157.30236379 232.12553326 154.44116211 232.11352539 C153.09495033 232.11374443 153.09495033 232.11374443 151.72154236 232.1139679 C148.74011866 232.11326842 145.7587566 232.10547441 142.77734375 232.09765625 C140.71611058 232.09579219 138.65487696 232.09436823 136.59364319 232.09336853 C131.1569599 232.08954237 125.72030314 232.07971126 120.28363037 232.06866455 C114.74052286 232.05845253 109.19741108 232.05387136 103.65429688 232.04882812 C92.76951957 232.03808908 81.88476198 232.02101149 71 232 C70.35557864 230.40388251 69.71263416 228.8071687 69.0703125 227.21020508 C68.71211426 226.3210994 68.35391602 225.43199371 67.98486328 224.51594543 C66.84677764 221.60857603 65.88795487 218.68038361 65 215.6875 C64.66871094 214.58148437 64.33742188 213.47546875 63.99609375 212.3359375 C63.50302734 210.68464844 63.50302734 210.68464844 63 209 C62.35505546 206.9372219 61.70921729 204.874723 61.0625 202.8125 C59.66349738 198.29180135 58.37817213 193.7516123 57.14233398 189.18457031 C54.96107041 180.99373355 54.96107041 180.99373355 52 173.0625 C50.10202085 168.61881865 48.92734224 164.11034731 47.75 159.4375 C45.54672208 150.7184413 42.87940457 142.1970223 40.09399414 133.64819336 C37.34107383 125.16353848 34.79551847 116.63086444 32.34619141 108.05395508 C30.93176015 103.11634325 29.44641683 98.22310021 27.79711914 93.35888672 C23.44419379 80.47742738 19.31991903 67.52188499 15.79125977 54.39013672 C14.39459326 49.25521323 12.7827815 44.22255099 11.0625 39.1875 C8.77635401 32.48611419 6.69706974 25.74533108 4.75 18.9375 C4.50386963 18.08115967 4.25773926 17.22481934 4.00415039 16.3425293 C2.46866778 10.90924236 1.23065524 5.53794857 0 0 Z " fill="#1055F9" transform="translate(1104,502)"/>
<path d="M0 0 C42.47658532 -7.14650428 98.95353159 -16.19595864 136.72376919 10.17692113 C149.65165621 19.50055624 161.18058537 30.48805944 172.375 41.7890625 C172.89479636 42.31250571 173.41459271 42.83594891 173.95014048 43.37525403 C187.33825543 56.88332622 200.10649752 70.91757362 212.68874073 85.1741159 C219.97870764 93.42288684 227.41951132 101.51247049 234.97753906 109.51611328 C235.5158203 110.08622401 236.05410153 110.65633474 236.60869431 111.24372156 C239.3133511 114.10664236 242.02065411 116.96704431 244.72938919 119.82610631 C249.99013629 125.379957 255.23471441 130.94899271 260.47119141 136.52572632 C260.9766744 137.06402507 261.4821574 137.60232383 262.00295806 138.15693466 C274.62598886 151.61115461 286.98513529 165.30242182 299.26638794 179.06890869 C300.01349344 179.90350565 300.76059895 180.73810261 301.53034401 181.59799039 C302.89963011 183.12845032 304.26520828 184.6622409 305.62598228 186.20027411 C309.05175653 190.02743033 312.56449587 193.50541391 316.53762054 196.76503599 C318.38860288 198.32817103 319.91005002 200.0609186 321.4375 201.9375 C324.40804356 205.44207387 327.63187858 208.36136611 331.1328125 211.32421875 C333.74410307 213.66782472 335.84376271 216.23732097 338 219 C336.60688451 222.08443955 334.96359847 224.37246385 332.70013237 226.88116074 C331.67131976 228.02695229 331.67131976 228.02695229 330.62172306 229.19589114 C329.86506733 230.02857556 329.1084116 230.86125997 328.3288269 231.71917725 C327.52565509 232.60872581 326.72248327 233.49827437 325.89497292 234.41477895 C323.66130709 236.88384127 321.42291014 239.34840961 319.18112564 241.81009126 C317.74623274 243.38620654 316.31292754 244.96375344 314.87987709 246.54154396 C296.54441279 266.71705921 277.8607104 286.55817306 259.02685206 306.26842229 C255.92511894 309.51482217 252.82600373 312.76370997 249.72851562 316.01416016 C249.11216047 316.66086156 248.49580532 317.30756296 247.86077274 317.97386137 C239.23387725 327.03688962 230.76817203 336.22797437 222.41550818 345.5440641 C208.01085306 361.61015129 193.34203196 377.37774106 178.1171875 392.671875 C177.52759432 393.26538749 176.93800113 393.85889999 176.33054149 394.47039771 C144.51066253 426.41726801 116.54863982 446.85168702 70.23553686 447.36998579 C46.3193102 447.39745347 22.45276566 444.52435929 -1 440 C3.65522724 434.40972608 8.61825428 429.24290592 13.76986694 424.10987854 C14.64070659 423.23818447 15.51154624 422.36649039 16.40877497 421.46838135 C18.81055235 419.0652476 21.21453857 416.66436395 23.61950755 414.26442683 C26.21838168 411.66988858 28.81434727 409.07244296 31.41067505 406.47535706 C35.90412228 401.98138657 40.3993905 397.48924436 44.89591599 392.99835396 C51.39706024 386.50535167 57.89542727 380.00957566 64.39312918 373.51312875 C74.93639936 362.97204486 85.48189875 352.43319407 96.02880859 341.89575195 C106.27151952 331.6622261 116.51317512 321.42764597 126.75341797 311.19165039 C127.38508469 310.56024639 128.01675141 309.92884239 128.66755955 309.27830494 C131.83657607 306.1105935 135.0055719 302.94286137 138.17455745 299.77511895 C164.44649878 273.51353704 190.72206159 247.25558102 217 221 C215.58251564 217.78044028 213.88080183 215.63327116 211.39616966 213.15566063 C210.64325752 212.39999978 209.89034537 211.64433894 209.11461771 210.86577928 C208.2838895 210.042241 207.4531613 209.21870272 206.59725952 208.37020874 C205.71758691 207.49023842 204.83791431 206.61026809 203.93158495 205.703632 C201.48834772 203.26154469 199.0407016 200.82403245 196.59112597 198.38831282 C193.95082103 195.76074763 191.31631125 193.12738368 188.68113708 190.49467468 C184.11435677 185.93366968 179.54403955 181.37623388 174.97141647 176.82108688 C168.35915648 170.23391377 161.75336119 163.64028796 155.1493295 157.04486664 C144.43345799 146.34313201 133.71385861 135.64514035 122.99121094 124.95019531 C122.02843418 123.98990199 122.02843418 123.98990199 121.04620738 123.0102088 C116.48923639 118.4650408 111.93213267 113.92000589 107.375 109.375 C102.16592226 104.1797811 96.95690714 98.98449944 91.74804688 93.7890625 C91.10636827 93.14904015 90.46468967 92.5090178 89.80356626 91.84960084 C79.11909379 81.19246388 68.43852048 70.53142751 57.76074469 59.86758101 C51.16963497 53.28545115 44.57497953 46.70691163 37.97577323 40.13289918 C33.45874566 35.63267516 28.94521588 31.12896367 24.43446849 26.62244485 C21.82846827 24.01914459 19.22080661 21.41756349 16.60879707 18.82029152 C13.78343487 16.01081138 10.96572785 13.1937354 8.14877319 10.37582397 C7.31358355 9.54782425 6.47839391 8.71982453 5.61789548 7.86673391 C4.87019883 7.11628856 4.12250218 6.36584321 3.35214806 5.59265709 C2.70011323 4.94246585 2.04807841 4.29227462 1.37628496 3.62238061 C0 2 0 2 0 0 Z " fill="#1055F9" transform="translate(1522,380)"/>
<path d="M0 0 C15.52490282 -0.18707001 31.04972109 -0.32804673 46.57548618 -0.41449738 C53.78483875 -0.45570948 60.99349015 -0.51187097 68.20239258 -0.60351562 C74.48740854 -0.68337694 80.77191665 -0.73489423 87.05742592 -0.75270796 C90.38446687 -0.76311838 93.70972047 -0.79171656 97.03637886 -0.84584045 C100.75502712 -0.90393498 104.47066813 -0.91191188 108.18969727 -0.90820312 C109.28661896 -0.93696533 110.38354065 -0.96572754 111.51370239 -0.99536133 C118.77187371 -0.91705392 118.77187371 -0.91705392 121.7707777 1.32225704 C123.32611084 3.13267517 123.32611084 3.13267517 124.96172428 5.34329796 C127.56907074 8.74173056 130.51784612 11.68052039 133.54740906 14.7013092 C134.83474206 15.99716766 136.12199056 17.29311006 137.40916443 18.58912659 C138.80355394 19.98794976 140.19801114 21.38670546 141.5925293 22.78540039 C143.07491192 24.27569531 144.55711541 25.76616843 146.03915405 27.25680542 C150.88044214 32.12414671 155.72703837 36.98618386 160.57421875 41.84765625 C162.24544274 43.52424366 163.91665968 45.20083811 165.58786964 46.8774395 C172.53356589 53.84472495 179.48068519 60.81058624 186.43153667 67.77272892 C196.3889954 77.74647338 206.33783288 87.72864572 216.2750079 97.722601 C223.26941065 104.75560773 230.27328162 111.77909424 237.28436214 118.79547495 C241.47128921 122.9860637 245.65388763 127.18077402 249.82645226 131.3856678 C253.74316167 135.33229549 257.67139693 139.26706304 261.60900497 143.19283676 C263.05496248 144.63857229 264.49661294 146.08862971 265.93369865 147.54318428 C267.8890322 149.52099544 269.85897817 151.48295914 271.83354187 153.44154358 C272.40464886 154.02653266 272.97575585 154.61152173 273.56416911 155.21423775 C275.30175326 156.97567119 275.30175326 156.97567119 278 159 C282.58629316 158.53679854 284.70354697 155.35438409 287.5199585 152.03330994 C288.06743268 151.40356119 288.61490686 150.77381244 289.17897117 150.12498039 C290.38167822 148.74123901 291.58078353 147.3543611 292.77678037 145.96481586 C296.11599424 142.09175084 299.49237604 138.25133213 302.86721802 134.40931702 C303.58928275 133.58661961 304.31134748 132.7639222 305.05529296 131.91629457 C320.27663163 114.61155294 335.95322524 97.71658019 351.75 80.9375 C352.61094741 80.02217782 353.47189482 79.10685564 354.35893154 78.16379642 C432.38788435 -4.63079951 432.38788435 -4.63079951 481.4588623 -6.78266907 C489.56611605 -7.00937168 497.55687254 -6.44600489 505.625 -5.625 C506.92837814 -5.49323994 508.23175629 -5.36147987 509.57463074 -5.22572708 C525.40498954 -3.49972764 540.72940323 -0.49644611 556 4 C550.72821218 10.39249495 544.92741507 16.2099165 539.06619263 22.05406189 C537.95122967 23.16946138 536.83648669 24.28508078 535.72194374 25.40089995 C532.67071726 28.45435522 529.61639372 31.50469578 526.56154203 34.55452359 C523.26327903 37.84845905 519.96791582 41.14529336 516.67219543 44.44177246 C510.96573609 50.14875558 505.25745197 55.85390819 499.54791641 61.55781364 C491.29293765 69.80465759 483.04072896 78.05426884 474.78918885 86.30455322 C461.4008032 99.69075146 448.01018696 113.07471606 434.61816406 126.45727539 C421.61080612 139.45545115 408.60450124 152.45467914 395.59960938 165.45532227 C394.39672117 166.65781638 394.39672117 166.65781638 393.16953219 167.88460331 C389.14642362 171.90640683 385.12333573 175.92823102 381.10025811 179.95006549 C347.73671017 213.30325054 314.36954042 246.65281044 281 280 C277.59780091 278.37159701 274.83178943 276.51714616 272 274 C272 273.34 272 272.68 272 272 C271.34 272 270.68 272 270 272 C270 271.34 270 270.68 270 270 C269.34 270 268.68 270 268 270 C266.375 268.625 266.375 268.625 265 267 C265 266.34 265 265.68 265 265 C264.34 265 263.68 265 263 265 C261.375 263.625 261.375 263.625 260 262 C260 261.34 260 260.68 260 260 C259.34 260 258.68 260 258 260 C258 259.34 258 258.68 258 258 C257.34 258 256.68 258 256 258 C254.375 256.625 254.375 256.625 253 255 C253 254.34 253 253.68 253 253 C252.34 253 251.68 253 251 253 C249.375 251.625 249.375 251.625 248 250 C248 249.34 248 248.68 248 248 C247.34 248 246.68 248 246 248 C246 247.34 246 246.68 246 246 C245.34 246 244.68 246 244 246 C242.375 244.625 242.375 244.625 241 243 C241 242.34 241 241.68 241 241 C240.34 241 239.68 241 239 241 C237.375 239.625 237.375 239.625 236 238 C236 237.34 236 236.68 236 236 C235.34 236 234.68 236 234 236 C234 235.34 234 234.68 234 234 C233.34 234 232.68 234 232 234 C230.375 232.625 230.375 232.625 229 231 C229 230.34 229 229.68 229 229 C228.34 229 227.68 229 227 229 C225.375 227.625 225.375 227.625 224 226 C224 225.34 224 224.68 224 224 C223.34 224 222.68 224 222 224 C222 223.34 222 222.68 222 222 C221.34 222 220.68 222 220 222 C218.375 220.625 218.375 220.625 217 219 C217 218.34 217 217.68 217 217 C216.34 217 215.68 217 215 217 C213.375 215.625 213.375 215.625 212 214 C212 213.34 212 212.68 212 212 C211.34 212 210.68 212 210 212 C210 211.34 210 210.68 210 210 C209.34 210 208.68 210 208 210 C206.375 208.625 206.375 208.625 205 207 C205 206.34 205 205.68 205 205 C204.34 205 203.68 205 203 205 C201.375 203.625 201.375 203.625 200 202 C200 201.34 200 200.68 200 200 C199.34 200 198.68 200 198 200 C198 199.34 198 198.68 198 198 C197.34 198 196.68 198 196 198 C194.375 196.625 194.375 196.625 193 195 C193 194.34 193 193.68 193 193 C192.34 193 191.68 193 191 193 C189.375 191.625 189.375 191.625 188 190 C188 189.34 188 188.68 188 188 C187.34 188 186.68 188 186 188 C186 187.34 186 186.68 186 186 C185.34 186 184.68 186 184 186 C182.375 184.625 182.375 184.625 181 183 C181 182.34 181 181.68 181 181 C180.34 181 179.68 181 179 181 C177.375 179.625 177.375 179.625 176 178 C176 177.34 176 176.68 176 176 C175.34 176 174.68 176 174 176 C174 175.34 174 174.68 174 174 C173.34 174 172.68 174 172 174 C170.375 172.625 170.375 172.625 169 171 C169 170.34 169 169.68 169 169 C168.34 169 167.68 169 167 169 C165.375 167.625 165.375 167.625 164 166 C164 165.34 164 164.68 164 164 C163.34 164 162.68 164 162 164 C162 163.34 162 162.68 162 162 C161.34 162 160.68 162 160 162 C158.375 160.625 158.375 160.625 157 159 C157 158.34 157 157.68 157 157 C156.34 157 155.68 157 155 157 C153.375 155.625 153.375 155.625 152 154 C152 153.34 152 152.68 152 152 C151.34 152 150.68 152 150 152 C150 151.34 150 150.68 150 150 C149.34 150 148.68 150 148 150 C146.375 148.625 146.375 148.625 145 147 C145 146.34 145 145.68 145 145 C144.34 145 143.68 145 143 145 C141.375 143.625 141.375 143.625 140 142 C140 141.34 140 140.68 140 140 C139.34 140 138.68 140 138 140 C138 139.34 138 138.68 138 138 C137.34 138 136.68 138 136 138 C134.375 136.625 134.375 136.625 133 135 C133 134.34 133 133.68 133 133 C132.34 133 131.68 133 131 133 C129.375 131.625 129.375 131.625 128 130 C128 129.34 128 128.68 128 128 C127.34 128 126.68 128 126 128 C126 127.34 126 126.68 126 126 C125.34 126 124.68 126 124 126 C122.375 124.625 122.375 124.625 121 123 C121 122.34 121 121.68 121 121 C120.34 121 119.68 121 119 121 C117.375 119.625 117.375 119.625 116 118 C116 117.34 116 116.68 116 116 C115.34 116 114.68 116 114 116 C114 115.34 114 114.68 114 114 C113.34 114 112.68 114 112 114 C110.375 112.625 110.375 112.625 109 111 C109 110.34 109 109.68 109 109 C108.34 109 107.68 109 107 109 C105.375 107.625 105.375 107.625 104 106 C104 105.34 104 104.68 104 104 C103.34 104 102.68 104 102 104 C102 103.34 102 102.68 102 102 C101.34 102 100.68 102 100 102 C98.375 100.625 98.375 100.625 97 99 C97 98.34 97 97.68 97 97 C96.34 97 95.68 97 95 97 C93.375 95.625 93.375 95.625 92 94 C92 93.34 92 92.68 92 92 C91.34 92 90.68 92 90 92 C90 91.34 90 90.68 90 90 C89.34 90 88.68 90 88 90 C86.375 88.625 86.375 88.625 85 87 C85 86.34 85 85.68 85 85 C84.34 85 83.68 85 83 85 C81.375 83.625 81.375 83.625 80 82 C80 81.34 80 80.68 80 80 C79.34 80 78.68 80 78 80 C78 79.34 78 78.68 78 78 C77.34 78 76.68 78 76 78 C74.375 76.625 74.375 76.625 73 75 C73 74.34 73 73.68 73 73 C72.34 73 71.68 73 71 73 C69.375 71.625 69.375 71.625 68 70 C68 69.34 68 68.68 68 68 C67.34 68 66.68 68 66 68 C66 67.34 66 66.68 66 66 C65.34 66 64.68 66 64 66 C62.375 64.625 62.375 64.625 61 63 C61 62.34 61 61.68 61 61 C60.34 61 59.68 61 59 61 C57.375 59.625 57.375 59.625 56 58 C56 57.34 56 56.68 56 56 C55.34 56 54.68 56 54 56 C54 55.34 54 54.68 54 54 C53.34 54 52.68 54 52 54 C50.375 52.625 50.375 52.625 49 51 C49 50.34 49 49.68 49 49 C48.34 49 47.68 49 47 49 C45.375 47.625 45.375 47.625 44 46 C44 45.34 44 44.68 44 44 C43.34 44 42.68 44 42 44 C42 43.34 42 42.68 42 42 C41.34 42 40.68 42 40 42 C38.375 40.625 38.375 40.625 37 39 C37 38.34 37 37.68 37 37 C36.34 37 35.68 37 35 37 C33.375 35.625 33.375 35.625 32 34 C32 33.34 32 32.68 32 32 C31.34 32 30.68 32 30 32 C30 31.34 30 30.68 30 30 C29.34 30 28.68 30 28 30 C26.375 28.625 26.375 28.625 25 27 C25 26.34 25 25.68 25 25 C24.34 25 23.68 25 23 25 C21.375 23.625 21.375 23.625 20 22 C20 21.34 20 20.68 20 20 C19.34 20 18.68 20 18 20 C18 19.34 18 18.68 18 18 C17.34 18 16.68 18 16 18 C14.375 16.625 14.375 16.625 13 15 C13 14.34 13 13.68 13 13 C12.34 13 11.68 13 11 13 C9.375 11.625 9.375 11.625 8 10 C8 9.34 8 8.68 8 8 C7.34 8 6.68 8 6 8 C4.4921875 6.25 4.4921875 6.25 2.875 4 C2.33617187 3.2575 1.79734375 2.515 1.2421875 1.75 C0.62730469 0.88375 0.62730469 0.88375 0 0 Z " fill="#38B4F9" transform="translate(1032,868)"/>
<path d="M0 0 C28.37092869 -0.56324638 55.67433536 3.5668676 79.8671875 19.05029297 C81.41212891 20.02482422 81.41212891 20.02482422 82.98828125 21.01904297 C100.49030988 32.86507622 110.66583326 52.79280788 114.8671875 73.05029297 C115.92850087 79.07027541 116.01863624 84.94110281 116.02490234 91.0456543 C116.02998306 92.13323029 116.03506378 93.22080627 116.04029846 94.34133911 C116.05097858 96.70058711 116.05960796 99.05984509 116.06641769 101.41910744 C116.07830246 105.18861068 116.09778995 108.9580042 116.11953735 112.72746277 C116.18075535 123.44563364 116.23465884 134.16378652 116.26855469 144.88208008 C116.40751398 191.59758479 116.40751398 191.59758479 120.8671875 238.05029297 C96.7771875 238.05029297 72.6871875 238.05029297 47.8671875 238.05029297 C47.0960636 234.96579736 46.69652502 232.59870169 46.55078125 229.48779297 C46.50880615 228.61340576 46.46683105 227.73901855 46.42358398 226.83813477 C46.38434814 225.91814697 46.3451123 224.99815918 46.3046875 224.05029297 C46.262229 223.11290283 46.21977051 222.1755127 46.17602539 221.2097168 C45.88741844 214.48465233 45.74175684 207.78173845 45.8671875 201.05029297 C45.2071875 201.05029297 44.5471875 201.05029297 43.8671875 201.05029297 C43.5371875 202.37029297 43.2071875 203.69029297 42.8671875 205.05029297 C42.2071875 205.05029297 41.5471875 205.05029297 40.8671875 205.05029297 C40.63902344 205.74509766 40.41085938 206.43990234 40.17578125 207.15576172 C33.07489886 222.86248963 16.17611555 232.78334508 0.8671875 239.05029297 C-3.10036552 240.32872672 -7.0371982 241.29138128 -11.1328125 242.05029297 C-12.26988647 242.30613159 -12.26988647 242.30613159 -13.42993164 242.56713867 C-31.72661292 245.83776754 -53.19615352 243.73806339 -70.1328125 236.05029297 C-71.75761853 235.46641958 -73.38262418 234.88310142 -75.0078125 234.30029297 C-91.36248677 227.71727943 -103.62208454 214.61443617 -110.98876953 198.80126953 C-114.86567454 189.47882701 -115.65574013 180.17921009 -115.5703125 170.17529297 C-115.56346436 168.94311035 -115.55661621 167.71092773 -115.54956055 166.44140625 C-115.39474856 157.68264286 -114.63839834 150.16486216 -111.1328125 142.05029297 C-110.77058594 141.16083984 -110.40835938 140.27138672 -110.03515625 139.35498047 C-103.52388423 124.91982149 -91.0100231 113.31430941 -77.1328125 106.05029297 C-76.55571533 105.73874268 -75.97861816 105.42719238 -75.3840332 105.10620117 C-70.306431 102.44451919 -65.18949453 100.59916084 -59.6953125 98.98779297 C-58.38868652 98.60155762 -58.38868652 98.60155762 -57.05566406 98.20751953 C-48.83408149 95.84781467 -40.60376795 94.22207015 -32.1328125 93.05029297 C-31.00520508 92.88182861 -29.87759766 92.71336426 -28.71582031 92.53979492 C-18.24034374 91.07763098 -7.95177073 90.69548858 2.6171875 90.73779297 C3.85846405 90.73803467 3.85846405 90.73803467 5.12481689 90.73828125 C17.5831357 90.75513838 29.65095638 91.41234075 41.8671875 94.05029297 C41.44116189 91.50622516 41.00181079 88.96566512 40.5546875 86.42529297 C40.43673828 85.71244141 40.31878906 84.99958984 40.19726562 84.26513672 C39.38478536 79.72358038 38.06730964 76.15472251 35.8671875 72.05029297 C35.8671875 71.39029297 35.8671875 70.73029297 35.8671875 70.05029297 C35.2071875 70.05029297 34.5471875 70.05029297 33.8671875 70.05029297 C32.99085474 69.02297044 32.16581539 67.95161995 31.3671875 66.86279297 C24.97048589 59.117767 14.49692264 56.21165884 4.8671875 55.05029297 C2.08502202 54.94887228 -0.67147432 54.88655061 -3.453125 54.88232422 C-4.62390091 54.87733162 -4.62390091 54.87733162 -5.81832886 54.87223816 C-7.46384091 54.86720065 -9.10936306 54.86482885 -10.75488281 54.86499023 C-13.22999632 54.86281739 -15.7046534 54.84466543 -18.1796875 54.82568359 C-39.68675245 54.74791354 -62.06317669 58.83165367 -81.171875 69.09716797 C-83.1328125 70.05029297 -83.1328125 70.05029297 -85.1328125 70.05029297 C-86.31557484 58.61070093 -86.2481157 47.22398262 -86.1953125 35.73779297 C-86.19028529 33.82177852 -86.18572456 31.90576279 -86.18164062 29.98974609 C-86.17073674 25.34322944 -86.15354007 20.69677575 -86.1328125 16.05029297 C-57.70945056 6.14093341 -30.11361183 0.71009662 0 0 Z " fill="#38B4F9" transform="translate(174.1328125,495.94970703125)"/>
<path d="M0 0 C-1.85123956 30.28354096 -1.85123956 30.28354096 -3.55859375 43.5390625 C-4.17196448 48.3483233 -4.60347524 53.16865884 -5 58 C-8.90035514 56.84043496 -12.46805085 55.31952912 -16.125 53.5625 C-33.94303399 45.34438636 -58.2530481 43.82090929 -76.93359375 49.96484375 C-91.80754276 55.59231236 -101.66854258 65.14202262 -109 79 C-110.16595958 81.64565126 -111.08265214 84.24795642 -112 87 C-112.37125 87.99 -112.7425 88.98 -113.125 90 C-117.84526654 106.18377098 -115.63744008 125.4974006 -107.7578125 140.33984375 C-98.89828025 154.58016537 -85.04823248 164.47267207 -69 169 C-45.24434324 173.77966667 -22.34480765 169.45109616 0 161 C0.94603164 164.21592088 1.15159693 167.15660904 1.20532227 170.50292969 C1.22526749 171.60376892 1.24521271 172.70460815 1.26576233 173.83880615 C1.29083107 175.61242523 1.29083107 175.61242523 1.31640625 177.421875 C1.33718735 178.63699768 1.35796844 179.85212036 1.37937927 181.10406494 C1.44476828 184.98598573 1.50371051 188.8679742 1.5625 192.75 C1.60569532 195.38151742 1.64930994 198.01302799 1.69335938 200.64453125 C1.80043883 207.0962826 1.90222514 213.54810129 2 220 C-43.2042714 235.19898958 -93.74896432 234.94257231 -137.07324219 213.98339844 C-140.11525014 212.43078718 -143.05549339 210.72980153 -146 209 C-146 208.34 -146 207.68 -146 207 C-146.66 206.79375 -147.32 206.5875 -148 206.375 C-151.44627686 204.79545644 -154.15229511 202.75696879 -157.1328125 200.4375 C-158.70665485 199.22583894 -160.34735828 198.10176115 -162 197 C-162 196.34 -162 195.68 -162 195 C-162.598125 194.731875 -163.19625 194.46375 -163.8125 194.1875 C-165.99847854 193.00082594 -167.41332594 191.90400887 -169 190 C-169 189.34 -169 188.68 -169 188 C-169.99 187.67 -170.98 187.34 -172 187 C-173.67039221 185.07633532 -175.15346325 183.19352119 -176.625 181.125 C-177.06013916 180.5151123 -177.49527832 179.90522461 -177.94360352 179.27685547 C-189.70930148 162.14879218 -195.98226152 142.68596566 -198.1875 122.1875 C-198.27136963 121.41172607 -198.35523926 120.63595215 -198.44165039 119.83666992 C-201.48879797 88.95430587 -193.19421585 57.33242772 -173.69921875 33.09375 C-169.13946182 27.76349836 -164.27182884 22.62953324 -159 18 C-158.34 18 -157.68 18 -157 18 C-157 17.34 -157 16.68 -157 16 C-119.68050043 -19.50164429 -44.26951484 -22.16643198 0 0 Z " fill="#38B4F9" transform="translate(513,509)"/>
<path d="M0 0 C39.6 0 79.2 0 120 0 C120 19.14 120 38.28 120 58 C80.4 58 40.8 58 0 58 C0 38.86 0 19.72 0 0 Z " fill="#38B4FA" transform="translate(970,585)"/>
<path d="M0 0 C1.22170898 0.00386719 2.44341797 0.00773438 3.70214844 0.01171875 C13.04082503 0.10054104 22.15722503 0.77515601 31.375 2.25 C30.87831216 19.03804904 26.24028657 32.95200624 14.375 45.25 C1.97391808 55.52140384 -10.79793182 58.223457 -26.625 57.25 C-34.83988009 56.13485791 -42.06374187 52.39027532 -47.625 46.25 C-52.03467396 39.73247602 -52.47415005 32.92380049 -51.625 25.25 C-50.20031705 18.3267473 -46.34140842 12.8325889 -40.55078125 8.80859375 C-27.95574401 1.44500304 -14.36404283 -0.11028056 0 0 Z " fill="#000102" transform="translate(184.625,628.75)"/>
</svg>
