<?xml version="1.0" encoding="UTF-8"?>
<svg version="1.1" xmlns="http://www.w3.org/2000/svg" width="316" height="159">
<path d="M0 0 C104.28 0 208.56 0 316 0 C316 52.47 316 104.94 316 159 C211.72 159 107.44 159 0 159 C0 106.53 0 54.06 0 0 Z " fill="#000001" transform="translate(0,0)"/>
<path d="M0 0 C7.40610532 6.28019884 7.40610532 6.28019884 10.5 9.3671875 C11.07290771 9.93816162 11.64581543 10.50913574 12.23608398 11.09741211 C12.81817627 11.68401611 13.40026855 12.27062012 14 12.875 C14.61883057 13.49576416 15.23766113 14.11652832 15.87524414 14.75610352 C18.82965646 17.73862706 21.72433398 20.73103107 24.4375 23.9375 C26.73342382 26.60548784 29.09559666 29.1421397 31.609375 31.60546875 C32.27654541 32.26490479 32.94371582 32.92434082 33.63110352 33.60375977 C34.97319222 34.92290406 36.31984465 36.23742584 37.67163086 37.54663086 C41.33177977 41.13914709 44.33421228 44.61326071 47 49 C40.63928546 50.12110513 33.56855544 51.36714454 27.89990234 47.60693359 C23.71026351 43.83842623 20.21349228 39.47715932 16.71044922 35.078125 C14.23442665 32.06986007 11.4955485 29.38226766 8.6875 26.6875 C6.1007387 24.16260444 4.00787214 22.01180822 2 19 C-1.55946513 20.47626217 -3.45014456 22.42118925 -5.9140625 25.3515625 C-19.08195556 40.255076 -19.08195556 40.255076 -26.25390625 41.25390625 C-30.61153259 41.38862579 -34.73593913 40.87115222 -39 40 C-34.62970634 34.77051256 -30.03088196 29.89710045 -25.1953125 25.09765625 C-24.4713327 24.3750914 -23.74735291 23.65252655 -23.00143433 22.9080658 C-20.71164735 20.62383078 -18.41839007 18.34311688 -16.125 16.0625 C-14.56226839 14.50478961 -12.9997661 12.94684913 -11.4375 11.38867188 C-7.6276469 7.58978398 -3.81494621 3.79377287 0 0 Z " fill="#2092C7" transform="translate(171,0)"/>
<path d="M0 0 C3 2 3 2 5 4 C7.9719385 2.87548273 10.33440687 1.77706209 13 0 C19.94677871 -0.67226891 19.94677871 -0.67226891 23.9375 1.875 C27.38431957 5.42626864 27.11879977 7.67605327 27.09765625 12.5390625 C27.09443359 13.84101562 27.09121094 15.14296875 27.08789062 16.484375 C27.07953466 17.86458399 27.07106971 19.24479232 27.0625 20.625 C27.05748501 22.01301926 27.0529221 23.40104022 27.04882812 24.7890625 C27.03700976 28.19275132 27.02053434 31.59635439 27 35 C23.7 35 20.4 35 17 35 C16.95101562 33.36289063 16.90203125 31.72578125 16.8515625 30.0390625 C16.77654361 27.901024 16.7009954 25.76300402 16.625 23.625 C16.5940625 22.54476562 16.563125 21.46453125 16.53125 20.3515625 C16.47324219 18.8046875 16.47324219 18.8046875 16.4140625 17.2265625 C16.3826416 16.27346191 16.3512207 15.32036133 16.31884766 14.33837891 C16.21444204 11.81104824 16.21444204 11.81104824 14 10 C11.45809998 9.7499227 11.45809998 9.7499227 9 10 C7.28556781 11.71443219 7.76947033 14.00445241 7.68359375 16.34765625 C7.62075195 17.96704102 7.62075195 17.96704102 7.55664062 19.61914062 C7.51732422 20.75544922 7.47800781 21.89175781 7.4375 23.0625 C7.37272461 24.77276367 7.37272461 24.77276367 7.30664062 26.51757812 C7.20017262 29.34489508 7.09954738 32.17243092 7 35 C3.37 35 -0.26 35 -4 35 C-4.06058594 33.27910156 -4.12117188 31.55820313 -4.18359375 29.78515625 C-4.26797891 27.5442614 -4.35262791 25.30337647 -4.4375 23.0625 C-4.47681641 21.92619141 -4.51613281 20.78988281 -4.55664062 19.61914062 C-4.59853516 18.53955078 -4.64042969 17.45996094 -4.68359375 16.34765625 C-4.72025146 15.34742432 -4.75690918 14.34719238 -4.79467773 13.31665039 C-4.74671841 11.03930812 -4.74671841 11.03930812 -6 10 C-8.31 10.33 -10.62 10.66 -13 11 C-13.33 18.92 -13.66 26.84 -14 35 C-17.63 35 -21.26 35 -25 35 C-25 23.78 -25 12.56 -25 1 C-21.37 1 -17.74 1 -14 1 C-14 1.99 -14 2.98 -14 4 C-13.175 3.34 -12.35 2.68 -11.5 2 C-7.5218269 -0.63330607 -4.70598109 -0.5975849 0 0 Z " fill="#2499CF" transform="translate(231,62)"/>
<path d="M0 0 C1.11761719 0.02707031 1.11761719 0.02707031 2.2578125 0.0546875 C4.08909701 0.10164351 5.91971649 0.17338348 7.75 0.25 C6.65643039 3.53070884 5.99643942 4.10773232 3.40625 6.21875 C-0.14971348 9.23593114 -3.49886768 12.40911645 -6.78125 15.71875 C-7.26577637 16.20657959 -7.75030273 16.69440918 -8.24951172 17.19702148 C-9.75166723 18.71272546 -11.25127184 20.23090737 -12.75 21.75 C-19.05964194 28.14537632 -25.35374175 34.47656488 -32.25 40.25 C-33.15202148 41.00893555 -33.15202148 41.00893555 -34.07226562 41.78320312 C-35.45992623 42.94470251 -36.85411639 44.09839602 -38.25 45.25 C-40.77516805 42.75434749 -43.29429373 40.25267549 -45.8125 37.75 C-46.51697266 37.05390625 -47.22144531 36.3578125 -47.94726562 35.640625 C-51.99414867 31.61239118 -55.83842046 27.48637071 -59.56420898 23.16064453 C-62.24593511 20.12122546 -65.11294212 17.28040287 -68 14.4375 C-68.56332031 13.87869141 -69.12664062 13.31988281 -69.70703125 12.74414062 C-70.74588065 11.71388691 -71.78576851 10.68467821 -72.82714844 9.65698242 C-73.29668945 9.19267822 -73.76623047 8.72837402 -74.25 8.25 C-74.80461914 7.73735596 -75.35923828 7.22471191 -75.93066406 6.6965332 C-77.25 5.25 -77.25 5.25 -77.25 3.25 C-70.82700581 2.11791779 -63.79921603 0.88652476 -58.08544922 4.69140625 C-53.9141074 8.42037801 -50.3982527 12.68915447 -46.95996094 17.08984375 C-44.18868206 20.59073974 -41.21516212 23.91321021 -38.25 27.25 C-32.49722542 23.22414562 -27.61870841 18.73587091 -22.7109375 13.71484375 C-19.93475878 10.9342584 -17.03612884 8.35825378 -14.0390625 5.8203125 C-12.14787618 4.25743033 -12.14787618 4.25743033 -10.5390625 2.0703125 C-7.22134487 -0.56800903 -4.03938908 -0.18555498 0 0 Z " fill="#2091C7" transform="translate(209.25,113.75)"/>
<path d="M0 0 C10 0 10 0 13.625 3.0625 C14.750217 4.37481397 15.87521198 5.68731833 17 7 C18.29203583 8.16886 19.60520199 9.31474789 20.9375 10.4375 C25.17249602 14.08407192 29.09693984 18.00351553 33 22 C30.7283429 25.12352851 28.27864182 27.72841631 25.375 30.25 C24.69050781 30.85714844 24.00601563 31.46429688 23.30078125 32.08984375 C21 34 21 34 18.29296875 35.81640625 C13.13845774 39.54855221 13.13845774 39.54855221 10.46337891 45.16210938 C9.76649723 50.44261558 9.80510168 55.6861546 10 61 C6.7 61 3.4 61 0 61 C0 40.87 0 20.74 0 0 Z " fill="#1A6FAB" transform="translate(13,49)"/>
<path d="M0 0 C-1.56529793 3.94964711 -4.09255639 6.0974627 -7.25 8.875 C-14.45285132 15.30004187 -21.22233786 22.13210271 -28 29 C-27.05091546 30.1197086 -26.1000481 31.23790619 -25.1484375 32.35546875 C-24.61911621 32.97832764 -24.08979492 33.60118652 -23.54443359 34.24291992 C-22.30104819 35.65750177 -20.97437397 36.99863587 -19.625 38.3125 C-18 40 -18 40 -18 42 C-17.46503906 42.1959375 -16.93007812 42.391875 -16.37890625 42.59375 C-12.91890527 44.63907078 -10.58296182 47.50721988 -7.9375 50.5 C-6.88703679 51.67969193 -5.83374957 52.85687665 -4.77734375 54.03125 C-4.31577881 54.55267578 -3.85421387 55.07410156 -3.37866211 55.61132812 C-1.84798265 57.24554502 -1.84798265 57.24554502 1 59 C1 59.66 1 60.32 1 61 C-13.68848601 62.53360063 -13.68848601 62.53360063 -19.25 58.84375 C-21.67499562 56.3321474 -23.83749324 53.73678241 -26 51 C-26.99 50.34 -27.98 49.68 -29 49 C-29 48.34 -29 47.68 -29 47 C-29.5887793 46.73719238 -30.17755859 46.47438477 -30.78417969 46.20361328 C-33.10339241 44.94383819 -34.60949403 43.61995979 -36.453125 41.7421875 C-37.071875 41.11699219 -37.690625 40.49179688 -38.328125 39.84765625 C-38.96234375 39.19667969 -39.5965625 38.54570313 -40.25 37.875 C-40.8996875 37.21628906 -41.549375 36.55757812 -42.21875 35.87890625 C-43.81711727 34.25703357 -45.41061897 32.6306719 -47 31 C-45.72740361 28.21192526 -44.41609041 26.16713732 -42.2421875 24.01171875 C-41.70287598 23.47369629 -41.16356445 22.93567383 -40.60791016 22.38134766 C-40.0360498 21.82237793 -39.46418945 21.2634082 -38.875 20.6875 C-38.28895996 20.10790527 -37.70291992 19.52831055 -37.09912109 18.93115234 C-33.42977575 15.3265542 -29.7037295 11.82810692 -25.72265625 8.56640625 C-23.92767684 7.03938331 -23.92767684 7.03938331 -22.55859375 5.02734375 C-16.91066622 -2.39016942 -8.45137177 -0.59891611 0 0 Z " fill="#1A73AA" transform="translate(139,49)"/>
<path d="M0 0 C13.53 0 27.06 0 41 0 C41 4.29 41 8.58 41 13 C36.71 13 32.42 13 28 13 C28 30.49 28 47.98 28 66 C24.7 66 21.4 66 18 66 C18 48.51 18 31.02 18 13 C12.06 13 6.12 13 0 13 C0 8.71 0 4.42 0 0 Z " fill="#196DA8" transform="translate(259,44)"/>
<path d="M0 0 C0.7425 -0.020625 1.485 -0.04125 2.25 -0.0625 C7.11217532 -0.09686166 10.443135 0.51143354 14.625 3.25 C17.88834645 6.62023834 17.98072945 9.16317357 17.91796875 13.765625 C17.9034668 15.64121094 17.9034668 15.64121094 17.88867188 17.5546875 C17.86353516 18.85664062 17.83839844 20.15859375 17.8125 21.5 C17.79219727 23.47613281 17.79219727 23.47613281 17.77148438 25.4921875 C17.73612551 28.74520321 17.68677033 31.997396 17.625 35.25 C13.995 35.25 10.365 35.25 6.625 35.25 C6.295 34.59 5.965 33.93 5.625 33.25 C4.985625 33.745 4.34625 34.24 3.6875 34.75 C-0.4109398 36.75739908 -3.88481588 37.00649841 -8.375 36.25 C-11.24529869 34.45606332 -12.86631638 33.26736724 -14.375 30.25 C-15.00331177 25.17862646 -15.26351302 21.46853215 -12.1875 17.25 C-7.63773624 14.01461244 -4.13557884 12.99070894 1.4375 13.125 C2.90123047 13.15207031 2.90123047 13.15207031 4.39453125 13.1796875 C5.13058594 13.20289062 5.86664063 13.22609375 6.625 13.25 C5.965 11.93 5.305 10.61 4.625 9.25 C2.72924749 9.22278824 0.83338021 9.20350864 -1.0625 9.1875 C-2.11824219 9.17589844 -3.17398438 9.16429688 -4.26171875 9.15234375 C-7.09910262 9.24134575 -9.6188919 9.60060162 -12.375 10.25 C-12.375 7.28 -12.375 4.31 -12.375 1.25 C-8.17226085 0.19931521 -4.29521396 0.02952037 0 0 Z " fill="#2397CC" transform="translate(148.375,61.75)"/>
<path d="M0 0 C4.29 0 8.58 0 13 0 C13 20.13 13 40.26 13 61 C8.71 61 4.42 61 0 61 C0 40.87 0 20.74 0 0 Z " fill="#1C6BA3" transform="translate(61,49)"/>
<path d="M0 0 C0 3.3 0 6.6 0 10 C-4.75 8.125 -4.75 8.125 -7 7 C-12.2962469 6.43639251 -12.2962469 6.43639251 -16.9375 8.375 C-19.31131269 12.00553705 -19.22016799 14.67002948 -19 19 C-18.24267038 21.81571431 -18.24267038 21.81571431 -17 24 C-13.8163567 25.59182165 -10.46573357 25.39912479 -7 25 C-4.18219466 23.61114752 -4.18219466 23.61114752 -2 22 C-1.34 22 -0.68 22 0 22 C0 25.3 0 28.6 0 32 C-6.71710757 35.08225594 -14.48137187 35.13009578 -21.5 32.8125 C-26.3849072 30.28281591 -28.89510781 27.00022913 -31 22 C-31.92247953 15.20278239 -31.74097378 9.22761057 -27.52734375 3.625 C-20.15385333 -4.21994121 -9.55310014 -3.59139103 0 0 Z " fill="#2596CA" transform="translate(201,64)"/>
<path d="M0 0 C9 0 9 0 12 1.875 C14.38612837 4.4102614 14.94169662 5.34408698 15.25 8.8125 C14.96338591 12.46682966 14.2909115 14.15610986 12 17 C7.71612769 19.49892551 5.36346651 19 0 19 C0 12.73 0 6.46 0 0 Z " fill="#060607" transform="translate(46,132)"/>
<path d="M0 0 C8 0 8 0 10.5625 1.75 C12 4 12 4 11.75 6 C11.5025 6.66 11.255 7.32 11 8 C11 11.78706732 11.4254048 15.26513121 12 19 C11.01 18.67 10.02 18.34 9 18 C8.5359375 16.515 8.5359375 16.515 8.0625 15 C7.711875 14.01 7.36125 13.02 7 12 C4.96756452 11.03122943 4.96756452 11.03122943 3 11 C3 13.31 3 15.62 3 18 C2.01 18 1.02 18 0 18 C0 12.06 0 6.12 0 0 Z " fill="#375463" transform="translate(303,132)"/>
<path d="M0 0 C8 0 8 0 10.5 1.1875 C12 3 12 3 12.4375 5.5 C12 8 12 8 10.875 9.8125 C8.22464043 11.49106106 6.06753576 11.20450238 3 11 C3 13.31 3 15.62 3 18 C2.01 18 1.02 18 0 18 C0 12.06 0 6.12 0 0 Z " fill="#2879A1" transform="translate(260,132)"/>
<path d="M0 0 C1.828125 0.0703125 1.828125 0.0703125 4 1 C5.13607609 3.33792501 5.97160504 5.42232156 6.75 7.875 C6.97042969 8.51308594 7.19085938 9.15117187 7.41796875 9.80859375 C8.37610794 12.65920663 9 14.9743871 9 18 C8.01 18 7.02 18 6 18 C5.67 16.35 5.34 14.7 5 13 C2.69 13 0.38 13 -2 13 C-2.33 14.65 -2.66 16.3 -3 18 C-3.99 18 -4.98 18 -6 18 C-4.41039668 11.76559832 -2.72399099 5.83712355 0 0 Z " fill="#267196" transform="translate(248,132)"/>
<path d="M0 0 C0.99 0 1.98 0 3 0 C3 2.64 3 5.28 3 8 C5.64 8 8.28 8 11 8 C11 5.36 11 2.72 11 0 C11.99 0 12.98 0 14 0 C14 5.94 14 11.88 14 18 C13.01 18 12.02 18 11 18 C11 15.36 11 12.72 11 10 C8.36 10 5.72 10 3 10 C3 12.64 3 15.28 3 18 C2.01 18 1.02 18 0 18 C0 12.06 0 6.12 0 0 Z " fill="#207098" transform="translate(225,132)"/>
<path d="M0 0 C0.99 0 1.98 0 3 0 C3.33 5.28 3.66 10.56 4 16 C5.98 15.67 7.96 15.34 10 15 C10.33 10.05 10.66 5.1 11 0 C11.99 0 12.98 0 14 0 C14.75263197 12.35988949 14.75263197 12.35988949 13.0625 16.04296875 C11.10559653 18.12829401 9.1823676 18.9555201 6.4375 19.625 C2.88281216 18.71354158 1.95333692 17.05899933 0 14 C-0.390625 10.44921875 -0.390625 10.44921875 -0.25 6.6875 C-0.21390625 5.43324219 -0.1778125 4.17898437 -0.140625 2.88671875 C-0.07101563 1.45779297 -0.07101563 1.45779297 0 0 Z " fill="#296C8C" transform="translate(28,132)"/>
<path d="M0 0 C9 0 9 0 12 1.875 C14.38612837 4.4102614 14.94169662 5.34408698 15.25 8.8125 C14.96338591 12.46682966 14.2909115 14.15610986 12 17 C7.71612769 19.49892551 5.36346651 19 0 19 C0 12.73 0 6.46 0 0 Z M2 2 C2 6.95 2 11.9 2 17 C7.78590655 17.66679486 7.78590655 17.66679486 10.375 14.875 C12.25544727 11.54805483 12.49078099 9.76265429 12 6 C10.39519216 2.87393036 10.39519216 2.87393036 8.0546875 2.48828125 C6.97574219 2.40126953 6.97574219 2.40126953 5.875 2.3125 C4.59625 2.209375 3.3175 2.10625 2 2 Z " fill="#1C759F" transform="translate(46,132)"/>
<path d="M0 0 C4.28957189 2.14478594 4.98893097 3.11674127 7.25 7.125 C8.03117187 8.49011719 8.03117187 8.49011719 8.828125 9.8828125 C9.40820312 10.93082031 9.40820312 10.93082031 10 12 C10.33 8.37 10.66 4.74 11 1 C11.66 1 12.32 1 13 1 C13 6.61 13 12.22 13 18 C12.01 18 11.02 18 10 18 C8.17578125 15.59375 8.17578125 15.59375 6.3125 12.5 C5.68988281 11.4790625 5.06726563 10.458125 4.42578125 9.40625 C3.72001953 8.21515625 3.72001953 8.21515625 3 7 C2.67 10.63 2.34 14.26 2 18 C1.34 18 0.68 18 0 18 C0 12.06 0 6.12 0 0 Z " fill="#197FAF" transform="translate(77,132)"/>
<path d="M0 0 C3.63 0 7.26 0 11 0 C11 0.99 11 1.98 11 3 C8.36 3 5.72 3 3 3 C3 4.65 3 6.3 3 8 C5.31 8 7.62 8 10 8 C10 8.66 10 9.32 10 10 C7.69 10 5.38 10 3 10 C3 11.98 3 13.96 3 16 C5.64 16 8.28 16 11 16 C11 16.66 11 17.32 11 18 C7.37 18 3.74 18 0 18 C0 12.06 0 6.12 0 0 Z " fill="#287298" transform="translate(289,132)"/>
<path d="M0 0 C3.3 0 6.6 0 10 0 C10 0.66 10 1.32 10 2 C7.69 2 5.38 2 3 2 C3 3.98 3 5.96 3 8 C5.31 8 7.62 8 10 8 C10 8.66 10 9.32 10 10 C7.69 10 5.38 10 3 10 C3 11.98 3 13.96 3 16 C5.64 16 8.28 16 11 16 C11 16.99 11 17.98 11 19 C9.35425434 19.02688151 7.70838587 19.04634123 6.0625 19.0625 C5.14597656 19.07410156 4.22945313 19.08570313 3.28515625 19.09765625 C1 19 1 19 0 18 C-0.08631874 16.65732587 -0.10706473 15.31025678 -0.09765625 13.96484375 C-0.09443359 13.15595703 -0.09121094 12.34707031 -0.08789062 11.51367188 C-0.07951172 10.66353516 -0.07113281 9.81339844 -0.0625 8.9375 C-0.05798828 8.08349609 -0.05347656 7.22949219 -0.04882812 6.34960938 C-0.03700373 4.23304337 -0.01906769 2.11651315 0 0 Z " fill="#266C8E" transform="translate(63,132)"/>
<path d="M0 0 C1.36125 0.12375 1.36125 0.12375 2.75 0.25 C2.75 1.24 2.75 2.23 2.75 3.25 C0.77 3.25 -1.21 3.25 -3.25 3.25 C-3.20231597 5.12880872 -3.20231597 5.12880872 -2.25 7.25 C-0.7340625 8.2090625 -0.7340625 8.2090625 0.8125 9.1875 C3.75 11.25 3.75 11.25 4.375 13.8125 C3.75 16.25 3.75 16.25 2.1875 18.125 C-1.21881805 19.69714679 -3.65281913 19.01094211 -7.25 18.25 C-7.25 17.59 -7.25 16.93 -7.25 16.25 C-4.61 16.25 -1.97 16.25 0.75 16.25 C0.75 14.6 0.75 12.95 0.75 11.25 C-0.19875 11.023125 -1.1475 10.79625 -2.125 10.5625 C-5.25 9.25 -5.25 9.25 -6.625 6.625 C-6.934375 5.449375 -6.934375 5.449375 -7.25 4.25 C-4.83923194 1.28290085 -3.90322061 0.30024774 0 0 Z " fill="#217096" transform="translate(8.25,131.75)"/>
<path d="M0 0 C0.33 0.66 0.66 1.32 1 2 C0.06027344 2.18175781 0.06027344 2.18175781 -0.8984375 2.3671875 C-1.71570313 2.53476563 -2.53296875 2.70234375 -3.375 2.875 C-4.18710938 3.03742188 -4.99921875 3.19984375 -5.8359375 3.3671875 C-8.18673923 3.86658932 -8.18673923 3.86658932 -10 6 C-10.34952958 9.21567216 -10.25954167 11.38358852 -9 14.375 C-5.82368122 16.95575901 -3.00554268 16.26265854 1 16 C1 16.66 1 17.32 1 18 C-1.82001327 19.41000664 -3.87007255 19.24548451 -7 19 C-11.63235294 16.73529412 -11.63235294 16.73529412 -13 14 C-13.51968957 9.5868984 -13.85380637 6.13840849 -11.125 2.5 C-7.27661896 -0.21650426 -4.692242 -0.08689337 0 0 Z " fill="#23759D" transform="translate(221,132)"/>
<path d="M0 0 C0 2.64 0 5.28 0 8 C-2.51796153 9.58538318 -3.67865586 10.0373656 -6.6875 9.6875 C-9 9 -9 9 -10 8 C-10.1875 5.5625 -10.1875 5.5625 -10 3 C-7.14414946 0.14414946 -3.95889689 0 0 0 Z " fill="#050607" transform="translate(155,81)"/>
<path d="M0 0 C8 0 8 0 10.5625 1.75 C12 4 12 4 11.9375 6.1875 C11 8 11 8 8 9 C8 7.35 8 5.7 8 4 C6.02 3.34 4.04 2.68 2 2 C2 4.31 2 6.62 2 9 C3.65 9 5.3 9 7 9 C7 9.33 7 9.66 7 10 C5.35 10 3.7 10 2 10 C2 12.64 2 15.28 2 18 C1.34 18 0.68 18 0 18 C0 12.06 0 6.12 0 0 Z " fill="#0884BE" transform="translate(303,132)"/>
<path d="M0 0 C4.62 0 9.24 0 14 0 C14 0.99 14 1.98 14 3 C12.02 3 10.04 3 8 3 C8 7.95 8 12.9 8 18 C7.34 18 6.68 18 6 18 C6 13.05 6 8.1 6 3 C4.02 3 2.04 3 0 3 C0 2.01 0 1.02 0 0 Z " fill="#1E729A" transform="translate(92,132)"/>
<path d="M0 0 C4.62 0 9.24 0 14 0 C13.67 0.99 13.34 1.98 13 3 C11.35 3 9.7 3 8 3 C8 7.95 8 12.9 8 18 C7.34 18 6.68 18 6 18 C6 12.72 6 7.44 6 2 C4.02 2 2.04 2 0 2 C0 1.34 0 0.68 0 0 Z " fill="#1E759E" transform="translate(13,132)"/>
<path d="M0 0 C4.62 0 9.24 0 14 0 C14 0.66 14 1.32 14 2 C12.02 2 10.04 2 8 2 C8 7.28 8 12.56 8 18 C7.34 18 6.68 18 6 18 C6 12.72 6 7.44 6 2 C4.02 2 2.04 2 0 2 C0 1.34 0 0.68 0 0 Z " fill="#0085BF" transform="translate(273,132)"/>
<path d="M0 0 C2.31 1.98 4.62 3.96 7 6 C5 10 5 10 0 14 C0 9.38 0 4.76 0 0 Z " fill="#020202" transform="translate(23,63)"/>
<path d="M0 0 C0.66 0.33 1.32 0.66 2 1 C2.625 3.0625 2.625 3.0625 3 5 C3.99 5 4.98 5 6 5 C6.66 7.97 7.32 10.94 8 14 C7.01 14 6.02 14 5 14 C4.67 12.35 4.34 10.7 4 9 C1.69 9 -0.62 9 -3 9 C-2.01 6.03 -1.02 3.06 0 0 Z " fill="#2A7093" transform="translate(249,136)"/>
<path d="M0 0 C2.73156959 -0.16262928 5.45342122 -0.28110686 8.1875 -0.375 C8.95642578 -0.42527344 9.72535156 -0.47554688 10.51757812 -0.52734375 C16.17663452 -0.67307052 16.17663452 -0.67307052 18.66650391 1.36230469 C20.05078125 3.0234375 20.05078125 3.0234375 22 6 C18.125 4.125 18.125 4.125 17 3 C15.19187276 2.84908087 13.37669383 2.77830992 11.5625 2.75 C10.57378906 2.72421875 9.58507812 2.6984375 8.56640625 2.671875 C7.71949219 2.78015625 6.87257812 2.8884375 6 3 C5.01 4.485 5.01 4.485 4 6 C2.62437146 4.71034824 1.29233607 3.37310707 0 2 C0 1.34 0 0.68 0 0 Z " fill="#28799E" transform="translate(132,117)"/>
<path d="M0 0 C0.66 0 1.32 0 2 0 C2 5.61 2 11.22 2 17 C1.01 17 0.02 17 -1 17 C-1.12036664 11.22240116 -0.8320582 5.72040011 0 0 Z " fill="#217AA6" transform="translate(237,133)"/>
<path d="M0 0 C2.97 0.495 2.97 0.495 6 1 C6.042721 2.66611905 6.04063832 4.33382885 6 6 C5 7 5 7 2.4375 7.0625 C1.2309375 7.0315625 1.2309375 7.0315625 0 7 C0 4.69 0 2.38 0 0 Z " fill="#030404" transform="translate(263,134)"/>
<path d="M0 0 C7.28850325 -0.48590022 7.28850325 -0.48590022 10.5625 1.75 C12 4 12 4 11.9375 6.1875 C11 8 11 8 8 9 C8 7.35 8 5.7 8 4 C5.36 3.01 2.72 2.02 0 1 C0 0.67 0 0.34 0 0 Z " fill="#237298" transform="translate(303,132)"/>
<path d="M0 0 C2.475 0.495 2.475 0.495 5 1 C5.5625 2.9375 5.5625 2.9375 6 5 C5 6 5 6 2.4375 6.0625 C1.2309375 6.0315625 1.2309375 6.0315625 0 6 C0 4.02 0 2.04 0 0 Z " fill="#040404" transform="translate(306,134)"/>
<path d="M0 0 C4.62 0 9.24 0 14 0 C14 0.66 14 1.32 14 2 C8.97874074 2.77916092 5.02296004 3.13016601 0 2 C0 1.34 0 0.68 0 0 Z " fill="#257299" transform="translate(273,132)"/>
<path d="M0 0 C2.64 0.66 5.28 1.32 8 2 C8 2.33 8 2.66 8 3 C5.69 3 3.38 3 1 3 C0.67 4.98 0.34 6.96 0 9 C-0.99 9 -1.98 9 -3 9 C-2.01 6.03 -1.02 3.06 0 0 Z " fill="#197CAB" transform="translate(245,141)"/>
<path d="M0 0 C0.33 0.66 0.66 1.32 1 2 C0.06027344 2.19916016 0.06027344 2.19916016 -0.8984375 2.40234375 C-2.12433594 2.66724609 -2.12433594 2.66724609 -3.375 2.9375 C-4.18710938 3.11152344 -4.99921875 3.28554687 -5.8359375 3.46484375 C-8.029463 3.92330693 -8.029463 3.92330693 -10 5 C-10.66 4.34 -11.32 3.68 -12 3 C-7.89542386 0.01485372 -5.02254631 -0.2954439 0 0 Z " fill="#237298" transform="translate(221,132)"/>
<path d="M0 0 C1.43655854 -0.08131463 2.8744483 -0.13933559 4.3125 -0.1875 C5.51326172 -0.23970703 5.51326172 -0.23970703 6.73828125 -0.29296875 C9 0 9 0 10.79296875 1.38671875 C12 3 12 3 12 5 C11.01 5 10.02 5 9 5 C8.67 4.34 8.34 3.68 8 3 C6.11235097 2.31527335 6.11235097 2.31527335 3.9375 1.875 C3.20402344 1.70742187 2.47054687 1.53984375 1.71484375 1.3671875 C1.14894531 1.24601563 0.58304688 1.12484375 0 1 C0 0.67 0 0.34 0 0 Z " fill="#197BAA" transform="translate(48,133)"/>
<path d="M0 0 C0.33 0 0.66 0 1 0 C1.22417836 2.7648665 1.32233508 4.46277487 -0.125 6.875 C-2.92151052 8.55290631 -4.93690532 7.74875648 -8 7 C-8 6.67 -8 6.34 -8 6 C-6.824375 5.87625 -6.824375 5.87625 -5.625 5.75 C-2.86319488 5.27785697 -2.86319488 5.27785697 -1.75 3 C-1.5025 2.34 -1.255 1.68 -1 1 C-0.67 0.67 -0.34 0.34 0 0 Z " fill="#307193" transform="translate(271,135)"/>
<path d="M0 0 C0.99 0.33 1.98 0.66 3 1 C3.33 3.31 3.66 5.62 4 8 C3.01 7.67 2.02 7.34 1 7 C0.67 4.69 0.34 2.38 0 0 Z " fill="#22749C" transform="translate(311,143)"/>
<path d="M0 0 C0.66 0.33 1.32 0.66 2 1 C2.625 4.0625 2.625 4.0625 3 7 C1.35 7 -0.3 7 -2 7 C-1.34 4.69 -0.68 2.38 0 0 Z " fill="#08090A" transform="translate(249,136)"/>
<path d="M0 0 C0.66 0 1.32 0 2 0 C1.4140625 6.15234375 1.4140625 6.15234375 1 8 C0.01 8.495 0.01 8.495 -1 9 C-1.09765625 2.84765625 -1.09765625 2.84765625 -1 1 C-0.67 0.67 -0.34 0.34 0 0 Z " fill="#1085BC" transform="translate(209,136)"/>
<path d="M0 0 C0.99 0.33 1.98 0.66 3 1 C3.33 2.98 3.66 4.96 4 7 C3.01 6.67 2.02 6.34 1 6 C0.67 4.02 0.34 2.04 0 0 Z " fill="#1A7AA8" transform="translate(250,135)"/>
</svg>
