<?xml version="1.0" encoding="UTF-8"?>
<svg version="1.1" xmlns="http://www.w3.org/2000/svg" width="113" height="389">
<path d="M0 0 C24.40848664 -1.52818351 46.16752593 8.77813881 64.3125 24.4375 C77.2121859 36.50360361 91.65713454 56.13561156 93.19458008 74.29873657 C93.27966475 76.93801506 93.30339736 79.57028414 93.30078125 82.2109375 C93.30506638 83.17850983 93.3093515 84.14608215 93.31376648 85.14297485 C93.31948773 87.18189718 93.32002637 89.22083991 93.31567383 91.25976562 C93.31251688 94.35843176 93.33599068 97.45613934 93.36132812 100.5546875 C93.36360183 102.54426964 93.36430428 104.53385432 93.36328125 106.5234375 C93.372491 107.43934662 93.38170074 108.35525574 93.39118958 109.29891968 C93.32731488 118.29910744 91.45226318 125.54773682 85 132 C83.35178756 133.03013277 81.68496298 134.03114628 80 135 C79.175 135.845625 78.35 136.69125 77.5 137.5625 C75 140 75 140 72.3125 141.0625 C69.32294235 142.27448283 69.37634468 143.11578281 68 146 C55.63755797 166.76051705 55.63755797 166.76051705 45 170 C42.35392791 170.13710218 39.82530987 170.19062972 37.1875 170.125 C36.49462891 170.11597656 35.80175781 170.10695312 35.08789062 170.09765625 C33.39177605 170.07426157 31.69584129 170.03839641 30 170 C30 170.99 30 171.98 30 173 C30.64437012 172.97905273 31.28874023 172.95810547 31.95263672 172.93652344 C34.92659332 172.85239002 37.90029842 172.80103655 40.875 172.75 C41.88820312 172.71648437 42.90140625 172.68296875 43.9453125 172.6484375 C52.5260375 172.53842821 59.79031331 174.23305931 66.625 179.625 C69 182 69 182 69 184 C69.66 184 70.32 184 71 184 C71.67354499 185.43429001 72.33859701 186.87257057 73 188.3125 C73.37125 189.11300781 73.7425 189.91351563 74.125 190.73828125 C75 193 75 193 75 196 C75.9075 195.9175 76.815 195.835 77.75 195.75 C81 196 81 196 83.3125 197.8125 C85.66938396 200.86771995 86.12493567 203.31047877 86.13371277 207.05621338 C86.14011024 208.29200638 86.14011024 208.29200638 86.14663696 209.55276489 C86.14595718 210.90384842 86.14595718 210.90384842 86.14526367 212.28222656 C86.14862228 213.23392731 86.1519809 214.18562805 86.15544128 215.16616821 C86.16496636 218.32433366 86.16689596 221.48244606 86.16796875 224.640625 C86.17118303 226.84242779 86.17454723 229.04423037 86.17805481 231.24603271 C86.18405191 235.87301121 86.18589439 240.49997102 86.18530273 245.12695312 C86.18520171 251.02079335 86.19878891 256.91451147 86.21607494 262.80832291 C86.22727024 267.36403946 86.22921955 271.91972735 86.22869301 276.47545624 C86.22986431 278.64569261 86.23423769 280.81592993 86.24202538 282.98615265 C86.34436328 314.48345508 86.34436328 314.48345508 82 321 C81.34 321 80.68 321 80 321 C76.26895669 312.21267943 76.23460888 303.26861132 75.875 293.875 C75.79669113 292.0665558 75.71806988 290.25812511 75.63916016 288.44970703 C74.62193263 263.98179441 74.33234848 239.48493629 74 215 C73.83097168 215.76175537 73.66194336 216.52351074 73.48779297 217.30834961 C69.14241388 236.7971045 64.54131006 256.22030583 59.79498291 275.61526489 C59.18893076 278.09204517 58.584202 280.56914971 57.980896 283.04660034 C56.03179356 291.04265279 54.04190928 299.02713523 52 307 C51.74045532 308.02146118 51.48091064 309.04292236 51.21350098 310.09533691 C50.47758659 312.9573823 49.7165421 315.81135641 48.9453125 318.6640625 C48.73591034 319.4840976 48.52650818 320.30413269 48.3107605 321.14901733 C45.32571343 331.8725388 38.31629249 340.75973668 28.66796875 346.3515625 C19.3442798 350.76721076 10.42262114 350 0 350 C0 239.45 0 128.9 0 15 C25.1670062 15 44.75142753 25.49802467 64 41 C49.4715413 23.11882006 30.25029277 13.27888303 7.5 10.6875 C5.0010173 10.4318214 2.50363382 10.2076033 0 10 C0 6.7 0 3.4 0 0 Z " fill="#E7E7E8" transform="translate(0,20)"/>
<path d="M0 0 C24.40848664 -1.52818351 46.16752593 8.77813881 64.3125 24.4375 C77.2121859 36.50360361 91.65713454 56.13561156 93.19458008 74.29873657 C93.27966475 76.93801506 93.30339736 79.57028414 93.30078125 82.2109375 C93.30506638 83.17850983 93.3093515 84.14608215 93.31376648 85.14297485 C93.31948773 87.18189718 93.32002637 89.22083991 93.31567383 91.25976562 C93.31251688 94.35843176 93.33599068 97.45613934 93.36132812 100.5546875 C93.36360183 102.54426964 93.36430428 104.53385432 93.36328125 106.5234375 C93.372491 107.43934662 93.38170074 108.35525574 93.39118958 109.29891968 C93.32731488 118.29910744 91.45226318 125.54773682 85 132 C83.35178756 133.03013277 81.68496298 134.03114628 80 135 C78.31337542 136.64646685 76.64488294 138.31183067 75 140 C72.27300139 141.81799907 70.5804833 142.52486662 67.5 143.375 C63.88105681 144.40600828 60.42993876 145.6030245 56.9375 147 C48.95538046 149.96771111 40.24911692 151.39331633 31.78198242 152.21533203 C27.16595463 152.57167783 27.16595463 152.57167783 23.6875 155.5 C23.130625 156.325 22.57375 157.15 22 158 C15.03580586 160.32139805 7.34090518 159 0 159 C0 111.48 0 63.96 0 15 C25.1670062 15 44.75142753 25.49802467 64 41 C49.4715413 23.11882006 30.25029277 13.27888303 7.5 10.6875 C5.0010173 10.4318214 2.50363382 10.2076033 0 10 C0 6.7 0 3.4 0 0 Z " fill="#8F998E" transform="translate(0,20)"/>
<path d="M0 0 C23.22531345 0 44.24231427 8.74957791 61.5625 24.30078125 C63.82566433 26.27492087 63.82566433 26.27492087 66.3125 25.75 C66.869375 25.5025 67.42625 25.255 68 25 C68.63228516 26.28197266 68.63228516 26.28197266 69.27734375 27.58984375 C69.82519531 28.69457031 70.37304688 29.79929687 70.9375 30.9375 C71.48277344 32.03964844 72.02804688 33.14179687 72.58984375 34.27734375 C73.74704978 36.84794414 73.74704978 36.84794414 75 38 C75.13218632 40.43725156 75.19978339 42.84695476 75.22460938 45.28613281 C75.24169449 46.43010277 75.24169449 46.43010277 75.25912476 47.59718323 C75.36981167 55.58201675 75.41721573 63.56778336 75.45996094 71.55322266 C75.48224316 75.34437277 75.52401602 79.13453952 75.58300781 82.92529297 C75.6540317 87.49772083 75.69078335 92.06922261 75.70307922 96.64217377 C75.71349197 98.38537606 75.73594538 100.12854968 75.77067566 101.87143707 C75.81683199 104.31415376 75.81889024 106.75323374 75.81054688 109.19628906 C75.8459407 110.27503044 75.8459407 110.27503044 75.88204956 111.37556458 C75.8340744 114.280419 75.58202296 116.399096 73.51905823 118.52898407 C68.99770759 121.84352979 63.69359238 125 58 125 C58.69433054 121.89340768 59.72375323 119.0654733 60.9375 116.125 C63.55945343 109.76451982 65.31327956 104.29120628 65.3359375 97.35546875 C65.3425943 96.62741531 65.3492511 95.89936188 65.35610962 95.14924622 C65.36619891 93.6087189 65.3709278 92.06814821 65.37060547 90.52758789 C65.37491682 88.23179351 65.41109745 85.93802504 65.44921875 83.64257812 C65.56539036 68.47713372 63.80933861 52.05404246 52.75 40.6875 C43.50252774 35.01291475 35.99637926 32.94922496 25.09765625 32.68359375 C24.01380898 32.6524221 24.01380898 32.6524221 22.9080658 32.62062073 C20.6262963 32.55584574 18.34442333 32.4965797 16.0625 32.4375 C14.50454709 32.39424603 12.9466042 32.35062969 11.38867188 32.30664062 C7.5925518 32.19956539 3.79634062 32.09995967 0 32 C0 21.44 0 10.88 0 0 Z " fill="#E6E6E7" transform="translate(0,35)"/>
<path d="M0 0 C6.94869609 3.04964865 11.43671545 7.81759931 14.75 14.5625 C17.512985 22.66827369 16.79759712 31.02528804 13.26171875 38.7421875 C10.51563488 43.65623231 7.63893561 47.00378424 2.8125 49.9375 C-3.31186724 51.64429087 -9.93403572 52.432715 -15.8125 49.5 C-19.7217671 46.86549391 -22.70711796 43.0902328 -25 39 C-25 38.01 -25 37.02 -25 36 C-25.66 36 -26.32 36 -27 36 C-28.008567 14.17012768 -28.008567 14.17012768 -22 7 C-15.10316828 0.61746358 -9.4177071 -1.2248797 0 0 Z " fill="#DEFE92" transform="translate(38,96)"/>
<path d="M0 0 C24.40848664 -1.52818351 46.16752593 8.77813881 64.3125 24.4375 C77.2121859 36.50360361 91.65713454 56.13561156 93.19458008 74.29873657 C93.27966475 76.93801506 93.30339736 79.57028414 93.30078125 82.2109375 C93.30506638 83.17850983 93.3093515 84.14608215 93.31376648 85.14297485 C93.31948773 87.18189718 93.32002637 89.22083991 93.31567383 91.25976562 C93.31251688 94.35843176 93.33599068 97.45613934 93.36132812 100.5546875 C93.36360183 102.54426964 93.36430428 104.53385432 93.36328125 106.5234375 C93.372491 107.43934662 93.38170074 108.35525574 93.39118958 109.29891968 C93.32731488 118.29910744 91.45226318 125.54773682 85 132 C83.35178756 133.03013277 81.68496298 134.03114628 80 135 C79.175 135.845625 78.35 136.69125 77.5 137.5625 C75.02275012 139.97781863 73.25997625 140.97543604 70 142 C70.33 141.34 70.66 140.68 71 140 C71.66 140 72.32 140 73 140 C73.08507812 139.25621094 73.17015625 138.51242188 73.2578125 137.74609375 C74.15069383 134.44243284 75.34952795 133.32432387 77.875 131.0625 C81.17562993 127.93279555 83.25629307 125.26239471 85 121 C85.66666667 119.66666667 86.33333333 118.33333333 87 117 C87.33 117 87.66 117 88 117 C88.33 114.69 88.66 112.38 89 110 C89.66 111.32 90.32 112.64 91 114 C91.08156437 111.14524694 91.14076372 108.29286435 91.1875 105.4375 C91.21263672 104.63763672 91.23777344 103.83777344 91.26367188 103.01367188 C91.33042415 97.56223606 90.32733217 94.00968111 88 89 C85.91341359 82.33312141 85.74949345 75.87415069 85.875 68.9375 C85.88402344 67.97650391 85.89304687 67.01550781 85.90234375 66.02539062 C85.92564792 63.68332195 85.95835942 61.34180208 86 59 C84.515 59.495 84.515 59.495 83 60 C77.81935648 55.12410022 73.64698202 49.69506149 69.9375 43.625 C68.26139607 40.85527058 68.26139607 40.85527058 65.65625 40.12109375 C62.42400512 38.75689628 60.90693283 37.03384762 58.5625 34.4375 C43.05835074 18.51990676 21.89439909 11.14403166 0 10 C0 6.7 0 3.4 0 0 Z " fill="#A7A6A7" transform="translate(0,20)"/>
<path d="M0 0 C-1.84853141 4.04622987 -4.30271697 7.67494113 -6.75 11.375 C-7.16765625 12.02210938 -7.5853125 12.66921875 -8.015625 13.3359375 C-11.65155543 18.83417375 -15.28938929 23.97183732 -21.625 26.375 C-27.81890374 27.56106667 -34.99166105 28.00277965 -41 26 C-41.33 27.65 -41.66 29.3 -42 31 C-45.53501458 31.78773917 -48.90249788 32.17495802 -52.51953125 32.31640625 C-53.54111328 32.35830078 -54.56269531 32.40019531 -55.61523438 32.44335938 C-56.67033203 32.48267578 -57.72542969 32.52199219 -58.8125 32.5625 C-59.88693359 32.60568359 -60.96136719 32.64886719 -62.06835938 32.69335938 C-64.71210051 32.79910902 -67.35603412 32.90002703 -70 33 C-70 27.72 -70 22.44 -70 17 C-68.68644531 16.96261719 -67.37289062 16.92523438 -66.01953125 16.88671875 C-64.28382636 16.82104343 -62.54815053 16.75459663 -60.8125 16.6875 C-59.94818359 16.66494141 -59.08386719 16.64238281 -58.19335938 16.61914062 C-53.37563411 16.41609473 -49.87638186 16.16884809 -46 13 C-45.34 12.01 -44.68 11.02 -44 10 C-41.57830719 9.54404537 -39.31926178 9.25887019 -36.875 9.0625 C-25.80774109 7.92112987 -14.68634503 5.83585404 -4.69921875 0.734375 C-3 0 -3 0 0 0 Z " fill="#DDDDDD" transform="translate(70,162)"/>
<path d="M0 0 C0.66 0 1.32 0 2 0 C3.85109399 2.7264882 5.4813388 5.55629126 7.1484375 8.3984375 C9.03439663 11.04832944 10.08339158 11.78474649 13 13 C14.01241685 14.32392972 15.01439389 15.65599167 16 17 C16.66 17 17.32 17 18 17 C18.89619839 21.5226756 19.04745011 25.70893664 18.9375 30.3125 C18.89475665 37.58599255 19.35095831 43.60589647 22.54296875 50.17578125 C24.41520957 54.48325644 24.51531734 58.54251767 24.5 63.1875 C24.52835938 63.98091797 24.55671875 64.77433594 24.5859375 65.59179688 C24.59349767 67.84283612 24.526313 69.81037939 24 72 C21.58203125 74.28515625 21.58203125 74.28515625 19 76 C17.86607802 78.04674475 17.86607802 78.04674475 17.1875 80.25 C15.30431571 84.96183558 12.5748847 87.74896974 8.8046875 91.078125 C6.76494086 93.25032272 6.07854514 95.25336598 5 98 C2.375 99.3125 2.375 99.3125 0 100 C0.185625 99.38125 0.37125 98.7625 0.5625 98.125 C1.23686176 95.95839822 1.23686176 95.95839822 0 94 C0.97398743 93.49566437 1.94797485 92.99132874 2.95147705 92.47171021 C6.31019161 90.27134153 6.31019161 90.27134153 6.76190186 86.58712769 C6.79744729 85.20941406 6.79998499 83.83060642 6.77636719 82.45263672 C6.7868811 81.69758347 6.79739502 80.94253021 6.80822754 80.16459656 C6.83462837 77.66878374 6.81714865 75.17552627 6.796875 72.6796875 C6.80091919 70.93815626 6.80674433 69.19662832 6.81427002 67.45510864 C6.82311863 63.80145078 6.81026047 60.14867272 6.78222656 56.49511719 C6.74819096 51.83436663 6.76762326 47.17570052 6.80366135 42.515028 C6.82546415 38.91499472 6.81838466 35.3154457 6.80289459 31.71539688 C6.79891747 29.99876784 6.80371401 28.28209351 6.81777191 26.56551743 C6.88139508 16.60504289 6.36031368 9.16142032 0 1 C0 0.67 0 0.34 0 0 Z " fill="#9D9D9E" transform="translate(68,62)"/>
<path d="M0 0 C-1.05211292 3.7700713 -1.98054533 5.40614291 -5.4140625 7.40625 C-13.99490519 11.11933232 -22.92993641 13.53367819 -32.23828125 14.44921875 C-33.31577637 14.55907104 -33.31577637 14.55907104 -34.41503906 14.67114258 C-35.81478883 14.80402014 -37.21677398 14.91560101 -38.62011719 15.00268555 C-42.31518426 15.33872715 -43.74050186 15.71424047 -46.27734375 18.5078125 C-46.84582031 19.33023438 -47.41429688 20.15265625 -48 21 C-50.82411765 21.94137255 -52.52918032 22.11725382 -55.44921875 22.09765625 C-56.21322998 22.09515869 -56.97724121 22.09266113 -57.7644043 22.09008789 C-58.72902588 22.08098389 -59.69364746 22.07187988 -60.6875 22.0625 C-65.2971875 22.0315625 -65.2971875 22.0315625 -70 22 C-70 15.73 -70 9.46 -70 3 C-66.60283223 2.86483417 -63.21105392 2.76580769 -59.8125 2.6875 C-58.85279297 2.64560547 -57.89308594 2.60371094 -56.90429688 2.56054688 C-49.76661998 2.43705766 -49.76661998 2.43705766 -45.82421875 5.33203125 C-44 8 -44 8 -44 11 C-41.22748806 10.55040347 -38.45730481 10.09073921 -35.6875 9.625 C-34.90181641 9.49867188 -34.11613281 9.37234375 -33.30664062 9.2421875 C-32.1706543 9.04882812 -32.1706543 9.04882812 -31.01171875 8.8515625 C-30.31522217 8.73635254 -29.61872559 8.62114258 -28.90112305 8.50244141 C-26.69171241 8.02824879 -26.69171241 8.02824879 -24 6 C-21.73190136 5.40832209 -19.45989697 4.9925141 -17.15625 4.5625 C-14.72755954 4.05433009 -14.72755954 4.05433009 -12 2 C-10.67696283 1.6278958 -9.34262065 1.29369827 -8 1 C-5.07175348 0.02391783 -3.04386724 -0.08226668 0 0 Z " fill="#949493" transform="translate(70,157)"/>
<path d="M0 0 C2.25 1.5 2.25 1.5 4 3 C4.99 3.33 5.98 3.66 7 4 C7 4.66 7 5.32 7 6 C7.92425781 6.13148437 7.92425781 6.13148437 8.8671875 6.265625 C11 7 11 7 12.1953125 8.671875 C12.50210938 9.35765625 12.80890625 10.0434375 13.125 10.75 C13.455 11.471875 13.785 12.19375 14.125 12.9375 C15.1182982 15.27884575 16.07817047 17.62958122 17 20 C17.37125 20.66 17.7425 21.32 18.125 22 C19.19376273 24.44288623 19.1465693 26.36175261 19 29 C19.66 29 20.32 29 21 29 C20.48914629 33.34225651 19.79322236 37.01506141 18 41 C17.566875 42.134375 17.13375 43.26875 16.6875 44.4375 C13.84748827 50.43308032 9.46766527 56.13205375 3.1875 58.7578125 C-2.11740995 60.39487455 -5.76355897 59.68314176 -11 58 C-11 57.34 -11 56.68 -11 56 C-12.32 55.34 -13.64 54.68 -15 54 C-14.0821875 54.04640625 -13.164375 54.0928125 -12.21875 54.140625 C-1.86485714 54.61558821 -1.86485714 54.61558821 7 50 C13.2431926 42.62295404 15.48705145 35.63846181 15.3203125 26.0390625 C14.63332966 19.52110334 11.62961979 13.62961979 7 9 C1.83452489 5.01827961 -2.4894139 4.23940706 -8.99609375 4.5 C-14.99355653 5.49827729 -18.90062675 8.34180078 -22.62890625 13.0625 C-26.15570266 19.01082899 -26.60747888 24.88088616 -26.72460938 31.64208984 C-26.82000861 36.82000861 -26.82000861 36.82000861 -29 39 C-29.66 38.67 -30.32 38.34 -31 38 C-30.79375 36.88625 -30.5875 35.7725 -30.375 34.625 C-30.25125 33.42875 -30.1275 32.2325 -30 31 C-30.66 30.34 -31.32 29.68 -32 29 C-31.8125 26.5625 -31.8125 26.5625 -31 23 C-30.84789062 22.15566406 -30.69578125 21.31132813 -30.5390625 20.44140625 C-28.95023715 13.00281485 -26.10176938 8.5706981 -20 4 C-17.65264657 2.63480282 -15.61515783 1.87171928 -13 1 C-12.01 0.5875 -11.02 0.175 -10 -0.25 C-6.27820789 -1.18044803 -3.71788986 -0.89504756 0 0 Z " fill="#92C58D" transform="translate(38,92)"/>
<path d="M0 0 C7.34697803 6.67907094 12.10294915 14.78901199 16.3125 23.6875 C16.64999268 24.4000293 16.98748535 25.11255859 17.33520508 25.84667969 C20.93592016 33.6872254 22.30929599 40.61632108 22.30078125 49.2109375 C22.30506638 50.17850983 22.3093515 51.14608215 22.31376648 52.14297485 C22.31948773 54.18189718 22.32002637 56.22083991 22.31567383 58.25976562 C22.31251688 61.35843176 22.33599068 64.45613934 22.36132812 67.5546875 C22.36360183 69.54426964 22.36430428 71.53385432 22.36328125 73.5234375 C22.372491 74.43934662 22.38170074 75.35525574 22.39118958 76.29891968 C22.32731488 85.29910744 20.45226318 92.54773682 14 99 C12.35178756 100.03013277 10.68496298 101.03114628 9 102 C7.7625 103.2684375 7.7625 103.2684375 6.5 104.5625 C4.02275012 106.97781863 2.25997625 107.97543604 -1 109 C-0.505 108.01 -0.505 108.01 0 107 C0.66 107 1.32 107 2 107 C2.08507812 106.25621094 2.17015625 105.51242188 2.2578125 104.74609375 C3.15069383 101.44243284 4.34952795 100.32432387 6.875 98.0625 C10.17562993 94.93279555 12.25629307 92.26239471 14 88 C14.66666667 86.66666667 15.33333333 85.33333333 16 84 C16.33 84 16.66 84 17 84 C17.33 81.69 17.66 79.38 18 77 C18.66 78.32 19.32 79.64 20 81 C20.08156437 78.14524694 20.14076372 75.29286435 20.1875 72.4375 C20.21263672 71.63763672 20.23777344 70.83777344 20.26367188 70.01367188 C20.33042415 64.56223606 19.32733217 61.00968111 17 56 C14.91341359 49.33312141 14.74949345 42.87415069 14.875 35.9375 C14.88402344 34.97650391 14.89304687 34.01550781 14.90234375 33.02539062 C14.92564792 30.68332195 14.95835942 28.34180208 15 26 C14.01 26.33 13.02 26.66 12 27 C11.48050781 26.07058594 10.96101563 25.14117187 10.42578125 24.18359375 C6.08874767 16.34166633 6.08874767 16.34166633 1.0625 8.9375 C-0.91419197 6.12221144 -1.69208032 4.38711644 -2 1 C-1.34 0.67 -0.68 0.34 0 0 Z " fill="#BFBFBF" transform="translate(71,53)"/>
<path d="M0 0 C4.3177458 0.50797009 8.03302114 1.19682779 12 3 C12 3.66 12 4.32 12 5 C12.58523437 5.07347656 13.17046875 5.14695312 13.7734375 5.22265625 C18.40069476 6.83813729 20.76387459 11.87307488 23 16 C23.78319962 18.67624136 24.27645463 21.20414709 24.61328125 23.96875 C24.84447967 26.21940173 24.84447967 26.21940173 27 28 C28.12276812 32.75470218 28.16075785 37.50257717 28.16796875 42.36328125 C28.17129715 43.15470016 28.17462555 43.94611908 28.17805481 44.76152039 C28.18309727 46.42979353 28.18546397 48.09807667 28.18530273 49.76635742 C28.18748428 52.29428065 28.20565484 54.82176346 28.22460938 57.34960938 C28.22754501 58.97916519 28.22952867 60.60872306 28.23046875 62.23828125 C28.23765427 62.98233719 28.24483978 63.72639313 28.25224304 64.49299622 C28.22004076 72.03660498 27.08555465 79.04482366 23 85.5 C22.484375 86.3353125 21.96875 87.170625 21.4375 88.03125 C20 90 20 90 18 91 C18.43119141 89.93652344 18.43119141 89.93652344 18.87109375 88.8515625 C19.98354834 86.04155611 21.03317169 83.2164158 22.0625 80.375 C22.40410156 79.43398437 22.74570312 78.49296875 23.09765625 77.5234375 C24.68727553 73.07800868 25.18858777 69.3357484 25.23828125 64.6484375 C25.246353 63.91613922 25.25442474 63.18384094 25.26274109 62.42935181 C25.27657978 60.87089392 25.28730291 59.31240574 25.29516602 57.75390625 C25.30654005 56.19294058 25.32675195 54.63200907 25.35668945 53.07128906 C25.64191508 38.17581878 24.63614379 22.14002367 15 10 C10.8630939 5.74817984 5.30921069 3.51543186 0 1 C0 0.67 0 0.34 0 0 Z " fill="#C8D1C1" transform="translate(40,68)"/>
<path d="M0 0 C0.33 0 0.66 0 1 0 C1.07453656 6.24387037 1.12878447 12.4874778 1.16479492 18.73168945 C1.17981784 20.85282914 1.20024211 22.9739381 1.22631836 25.0949707 C1.26298838 28.15583919 1.27979175 31.21629454 1.29296875 34.27734375 C1.30845261 35.21521225 1.32393646 36.15308075 1.33988953 37.11936951 C1.34174869 44.5058233 0.28169124 51.41657994 -4.375 57.375 C-6.83701456 59.83701456 -9.00930601 61.28035095 -12 63 C-13.2375 64.2684375 -13.2375 64.2684375 -14.5 65.5625 C-16.97724988 67.97781863 -18.74002375 68.97543604 -22 70 C-21.505 69.01 -21.505 69.01 -21 68 C-20.34 68 -19.68 68 -19 68 C-18.91492188 67.25621094 -18.82984375 66.51242188 -18.7421875 65.74609375 C-17.84930617 62.44243284 -16.65047205 61.32432387 -14.125 59.0625 C-10.82437007 55.93279555 -8.74370693 53.26239471 -7 49 C-6.33333333 47.66666667 -5.66666667 46.33333333 -5 45 C-4.67 45 -4.34 45 -4 45 C-3.67 42.69 -3.34 40.38 -3 38 C-2.34 39.32 -1.68 40.64 -1 42 C-0.67 28.14 -0.34 14.28 0 0 Z " fill="#DBDBDA" transform="translate(92,92)"/>
<path d="M0 0 C4.14185283 5.22233617 4.26328471 9.51387098 4.375 15.9375 C4.41238281 16.74896484 4.44976562 17.56042969 4.48828125 18.39648438 C4.52233336 20.70256916 4.48827584 22.74464405 4 25 C1.55859375 27.36328125 1.55859375 27.36328125 -1 29 C-2.34772903 32.12133744 -2.34772903 32.12133744 -3 35 C-3.66 34.34 -4.32 33.68 -5 33 C-5.45375 33.825 -5.9075 34.65 -6.375 35.5 C-6.91125 36.325 -7.4475 37.15 -8 38 C-8.66 38 -9.32 38 -10 38 C-9.67 36.948125 -9.34 35.89625 -9 34.8125 C-8.16033218 31.61126643 -7.80249096 29.2588992 -8 26 C-6.02 25.67 -4.04 25.34 -2 25 C-1.13888484 21.97230685 -0.81769107 19.15733363 -0.68359375 16.015625 C-0.64169922 15.08105469 -0.59980469 14.14648438 -0.55664062 13.18359375 C-0.49766602 11.73146484 -0.49766602 11.73146484 -0.4375 10.25 C-0.39431641 9.26644531 -0.35113281 8.28289062 -0.30664062 7.26953125 C-0.20077948 4.84648725 -0.09869829 2.4233446 0 0 Z " fill="#AAA9A9" transform="translate(88,109)"/>
<path d="M0 0 C2.21484375 2.05078125 2.21484375 2.05078125 4 4 C2.83082031 3.97679688 1.66164063 3.95359375 0.45703125 3.9296875 C-1.09113942 3.91092179 -2.63931703 3.89272245 -4.1875 3.875 C-4.95642578 3.85824219 -5.72535156 3.84148437 -6.51757812 3.82421875 C-10.90623745 3.78654785 -13.92661855 4.2276695 -18 6 C-18.99 5.67 -19.98 5.34 -21 5 C-20.071875 4.54625 -19.14375 4.0925 -18.1875 3.625 C-14.96078611 2.0578367 -14.96078611 2.0578367 -12 0 C-7.78618556 -1.28755441 -4.27063147 -1.00942198 0 0 Z M-22 6 C-22 9.50722636 -23.20347464 11.26148088 -25.02734375 14.18359375 C-26.75336228 17.40688137 -27.12316599 20.42016148 -27.02734375 24.0390625 C-27.01509766 24.78414062 -27.00285156 25.52921875 -26.99023438 26.296875 C-26.95489915 27.85685972 -26.91579884 29.41676342 -26.87304688 30.9765625 C-26.84341434 32.98460227 -26.91484003 34.99354801 -27 37 C-27.66 37.66 -28.32 38.32 -29 39 C-29.66 38.67 -30.32 38.34 -31 38 C-30.79375 36.88625 -30.5875 35.7725 -30.375 34.625 C-30.25125 33.42875 -30.1275 32.2325 -30 31 C-30.66 30.34 -31.32 29.68 -32 29 C-31.8125 26.5625 -31.8125 26.5625 -31 23 C-30.8246875 22.13246094 -30.649375 21.26492187 -30.46875 20.37109375 C-28.96445896 13.78982046 -27.23029836 10.30046754 -22 6 Z " fill="#90B98D" transform="translate(38,92)"/>
<path d="M0 0 C8.66517599 3.23975274 15.8715282 8.59636662 22.6875 14.75 C23.21674072 15.22171631 23.74598145 15.69343262 24.29125977 16.17944336 C25.59098725 17.38810576 26.8037065 18.68887902 28 20 C28 20.99 28 21.98 28 23 C27.566875 22.505 27.13375 22.01 26.6875 21.5 C25.00259517 19.66781808 25.00259517 19.66781808 22 20 C21 19 20 18 19 17 C17.4840625 16.2575 17.4840625 16.2575 15.9375 15.5 C13 14 13 14 11 11 C11.33 10.67 11.66 10.34 12 10 C11.071875 9.938125 10.14375 9.87625 9.1875 9.8125 C6 9 6 9 4.375 6.625 C3.92125 5.75875 3.4675 4.8925 3 4 C0.93045153 2.21655822 0.93045153 2.21655822 -1 1 C-0.67 0.67 -0.34 0.34 0 0 Z " fill="#C0C0C0" transform="translate(42,30)"/>
<path d="M0 0 C3.39537852 -0.14575327 6.78994902 -0.23421542 10.1875 -0.3125 C11.14720703 -0.35439453 12.10691406 -0.39628906 13.09570312 -0.43945312 C20.25115469 -0.56324986 20.25115469 -0.56324986 24.16796875 2.3828125 C26 5 26 5 26.125 7.1875 C24.55397158 9.71860135 22.78338033 10.14357528 20 11 C19.67 10.67 19.34 10.34 19 10 C19 7.69 19 5.38 19 3 C12.73 3 6.46 3 0 3 C0 2.01 0 1.02 0 0 Z " fill="#8FA58A" transform="translate(0,160)"/>
<path d="M0 0 C0.33 0 0.66 0 1 0 C1.94934646 4.804498 2.16072825 9.48262581 2.16796875 14.36328125 C2.17129715 15.15470016 2.17462555 15.94611908 2.17805481 16.76152039 C2.18309727 18.42979353 2.18546397 20.09807667 2.18530273 21.76635742 C2.18748428 24.29428065 2.20565484 26.82176346 2.22460938 29.34960938 C2.22754501 30.97916519 2.22952867 32.60872306 2.23046875 34.23828125 C2.23765427 34.98233719 2.24483978 35.72639313 2.25224304 36.49299622 C2.22004076 44.03660498 1.08555465 51.04482366 -3 57.5 C-3.515625 58.3353125 -4.03125 59.170625 -4.5625 60.03125 C-6 62 -6 62 -8 63 C-7.71125 62.2884375 -7.4225 61.576875 -7.125 60.84375 C-6.03113383 58.07869939 -5.00604565 55.29806446 -4 52.5 C-2.07669133 47.15079775 -2.07669133 47.15079775 -0.94970703 44.93481445 C0.41513408 40.71713963 0.24623155 36.72866729 0.1953125 32.32421875 C0.1924826 31.3990596 0.18965271 30.47390045 0.18673706 29.52070618 C0.17557392 26.57617058 0.15047637 23.63194312 0.125 20.6875 C0.11496521 18.68685336 0.10584023 16.68620194 0.09765625 14.68554688 C0.07564722 9.7902465 0.04114391 4.89517543 0 0 Z " fill="#D3D7CE" transform="translate(66,96)"/>
<path d="M0 0 C0.33 0 0.66 0 1 0 C2.27364614 10.98519792 2.10085216 21.95901625 2 33 C1.01 33 0.02 33 -1 33 C-1.02913072 28.62501407 -1.04684286 24.25005326 -1.0625 19.875 C-1.07087891 18.6375 -1.07925781 17.4 -1.08789062 16.125 C-1.09111328 14.92617188 -1.09433594 13.72734375 -1.09765625 12.4921875 C-1.10289307 11.39245605 -1.10812988 10.29272461 -1.11352539 9.15966797 C-1.0008558 6.02381895 -0.58626376 3.07940617 0 0 Z " fill="#DFDEDF" transform="translate(80,306)"/>
<path d="M0 0 C-0.33 0.66 -0.66 1.32 -1 2 C-2.14275391 1.89558594 -2.14275391 1.89558594 -3.30859375 1.7890625 C-10.03586978 1.43632143 -14.68934859 1.840145 -20.08984375 6.0546875 C-27.31644089 13.41428949 -27.84299732 22.09455821 -28 32 C-28.33 32 -28.66 32 -29 32 C-29.51916377 21.1840881 -29.36557969 11.62982098 -22 3 C-14.87743138 -0.76286644 -7.90988845 -0.29995364 0 0 Z " fill="#98CF8D" transform="translate(39,95)"/>
<path d="M0 0 C1.03640625 0.24363281 1.03640625 0.24363281 2.09375 0.4921875 C5.28281453 1.04941652 8.2636637 1.13256153 11.5 1.125 C13.15515625 1.12886719 13.15515625 1.12886719 14.84375 1.1328125 C17.68492244 1.01325821 20.23807642 0.64925815 23 0 C21.21030695 3.35567446 19.94945913 4.01884575 16.3125 5.375 C11.7504979 6.35680379 8.39204962 5.41173024 4 4 C4 3.34 4 2.68 4 2 C2.68 1.34 1.36 0.68 0 0 Z " fill="#8FBB8D" transform="translate(23,146)"/>
<path d="M0 0 C1 3 1 3 -0.5 6.375 C-2.94074877 10.42286152 -6.04606887 12.49077447 -10 15 C-10.66 14.67 -11.32 14.34 -12 14 C-11.01 13.67 -10.02 13.34 -9 13 C-8.91878906 12.26394531 -8.83757812 11.52789062 -8.75390625 10.76953125 C-7.83305262 7.38670624 -6.47670733 6.06548782 -3.9375 3.6875 C-3.20402344 2.99011719 -2.47054687 2.29273438 -1.71484375 1.57421875 C-1.14894531 1.05472656 -0.58304688 0.53523437 0 0 Z " fill="#B0B0B0" transform="translate(82,147)"/>
<path d="M0 0 C1.98 0 3.96 0 6 0 C6.33 1.65 6.66 3.3 7 5 C5.1875 6.5625 5.1875 6.5625 3 8 C2.01 7.67 1.02 7.34 0 7 C0 4.69 0 2.38 0 0 Z " fill="#A1A6A2" transform="translate(19,163)"/>
<path d="M0 0 C0.66 0.33 1.32 0.66 2 1 C-1.625 5.875 -1.625 5.875 -5 7 C-6.48123547 7.0806622 -7.96582204 7.10761193 -9.44921875 7.09765625 C-10.29677734 7.09443359 -11.14433594 7.09121094 -12.01757812 7.08789062 C-12.89865234 7.07951172 -13.77972656 7.07113281 -14.6875 7.0625 C-15.58017578 7.05798828 -16.47285156 7.05347656 -17.39257812 7.04882812 C-19.59511987 7.03704983 -21.79752599 7.02060164 -24 7 C-24 6.67 -24 6.34 -24 6 C-22.68644531 5.87882813 -21.37289063 5.75765625 -20.01953125 5.6328125 C-18.28381613 5.46393211 -16.54814108 5.29463961 -14.8125 5.125 C-13.94818359 5.04636719 -13.08386719 4.96773437 -12.19335938 4.88671875 C-7.80953229 4.45001567 -4.00904503 3.97547146 0 2 C0 1.34 0 0.68 0 0 Z " fill="#AEAEAE" transform="translate(24,172)"/>
<path d="M0 0 C5.85983633 0.51665968 10.60893883 1.75281077 16 4.0625 C16.67933594 4.34416016 17.35867187 4.62582031 18.05859375 4.91601562 C19.70939787 5.60191311 21.35525469 6.29969829 23 7 C23 7.33 23 7.66 23 8 C18.28596212 7.52060632 14.33420699 7.03165952 10 5 C10 4.34 10 3.68 10 3 C6.7 2.67 3.4 2.34 0 2 C0 1.34 0 0.68 0 0 Z " fill="#D1D1D1" transform="translate(19,22)"/>
<path d="M0 0 C1.88343932 3.76687864 2.22057835 5.02958963 2 9 C2.66 9 3.32 9 4 9 C3.375 15.625 3.375 15.625 0 19 C0 12.73 0 6.46 0 0 Z " fill="#8FB88D" transform="translate(55,112)"/>
<path d="M0 0 C1.9375 0.9375 1.9375 0.9375 4 3 C4.66174825 5.9858081 4.87205948 8.94861869 5 12 C4.34 12 3.68 12 3 12 C2.1361871 10.54735962 1.28419546 9.0876837 0.4375 7.625 C-0.27599609 6.40683594 -0.27599609 6.40683594 -1.00390625 5.1640625 C-1.33261719 4.44992188 -1.66132812 3.73578125 -2 3 C-1 1 -1 1 0 0 Z " fill="#ADADAE" transform="translate(71,53)"/>
<path d="M0 0 C1.33333333 1.33333333 2.66666667 2.66666667 4 4 C4.886875 4.86625 5.77375 5.7325 6.6875 6.625 C9 9 9 9 10 11 C6.95281822 10.66142425 5.2252397 10.16892978 2.75 8.3125 C0.64738963 5.53405058 0.31204221 3.43246436 0 0 Z " fill="#93C98C" transform="translate(13,135)"/>
<path d="M0 0 C1.875 0.125 1.875 0.125 4 1 C5.125 3.75 5.125 3.75 6 7 C6.65411685 8.67163195 7.31653318 10.34015202 8 12 C7.01 11.67 6.02 11.34 5 11 C5 10.34 5 9.68 5 9 C4.34 9 3.68 9 3 9 C3 8.34 3 7.68 3 7 C2.34 7 1.68 7 1 7 C1 5.68 1 4.36 1 3 C0.67 2.01 0.34 1.02 0 0 Z " fill="#D5D5D5" transform="translate(65,60)"/>
<path d="M0 0 C0.99 0.33 1.98 0.66 3 1 C1.60667426 4.36720387 0.0210714 5.9859524 -3 8 C-3.66 7.67 -4.32 7.34 -5 7 C-2.25 1.125 -2.25 1.125 0 0 Z " fill="#CCCCCB" transform="translate(86,145)"/>
<path d="M0 0 C3 4 3 4 3.14453125 6.25390625 C3.03496094 7.01574219 2.92539063 7.77757812 2.8125 8.5625 C2.71582031 9.32691406 2.61914062 10.09132812 2.51953125 10.87890625 C2 13 2 13 0 16 C0 10.72 0 5.44 0 0 Z " fill="#CFCECE" transform="translate(89,130)"/>
<path d="M0 0 C0.99 0.66 1.98 1.32 3 2 C-8.52164009 6.59225513 -8.52164009 6.59225513 -14 6 C-10.60828336 3.73885557 -7.9962659 3.28666959 -4.05859375 2.5625 C-1.79676721 2.12724769 -1.79676721 2.12724769 0 0 Z " fill="#9DB396" transform="translate(57,159)"/>
<path d="M0 0 C0.99 0 1.98 0 3 0 C2.14285714 8.57142857 2.14285714 8.57142857 0 12 C-0.66 12 -1.32 12 -2 12 C-1.67 10.948125 -1.34 9.89625 -1 8.8125 C-0.16033218 5.61126643 0.19750904 3.2588992 0 0 Z " fill="#B3B4B4" transform="translate(80,135)"/>
<path d="M0 0 C-1 3 -1 3 -3 4 C-5.2072923 4.07092842 -7.41667452 4.08415025 -9.625 4.0625 C-10.81351563 4.05347656 -12.00203125 4.04445312 -13.2265625 4.03515625 C-14.14179688 4.02355469 -15.05703125 4.01195312 -16 4 C-16 3.67 -16 3.34 -16 3 C-15.15695313 2.86722656 -14.31390625 2.73445312 -13.4453125 2.59765625 C-12.34960938 2.42105469 -11.25390625 2.24445313 -10.125 2.0625 C-8.48917969 1.80146484 -8.48917969 1.80146484 -6.8203125 1.53515625 C-4.32604896 1.06186802 -2.49236265 0 0 0 Z " fill="#9DD68C" transform="translate(44,144)"/>
<path d="M0 0 C1.65 0 3.3 0 5 0 C5 0.66 5 1.32 5 2 C3.46875 3.2890625 3.46875 3.2890625 1.5 4.625 C0.8503125 5.07101563 0.200625 5.51703125 -0.46875 5.9765625 C-0.9740625 6.31429687 -1.479375 6.65203125 -2 7 C-2.66 6.67 -3.32 6.34 -4 6 C-3.01 5.67 -2.02 5.34 -1 5 C-0.67 3.35 -0.34 1.7 0 0 Z " fill="#CBCACA" transform="translate(74,155)"/>
<path d="M0 0 C7.50769231 -0.36923077 7.50769231 -0.36923077 10 1.5 C10.495 2.2425 10.495 2.2425 11 3 C9 4 9 4 6.8359375 3.44140625 C6.02382813 3.15136719 5.21171875 2.86132812 4.375 2.5625 C3.55773437 2.27503906 2.74046875 1.98757812 1.8984375 1.69140625 C1.27195312 1.46324219 0.64546875 1.23507813 0 1 C0 0.67 0 0.34 0 0 Z " fill="#99C28D" transform="translate(13,160)"/>
<path d="M0 0 C0.99 0.33 1.98 0.66 3 1 C2.40138258 3.35171131 1.73075648 5.6859378 1 8 C0.01 8.495 0.01 8.495 -1 9 C-0.67 6.03 -0.34 3.06 0 0 Z " fill="#8FB88E" transform="translate(53,131)"/>
<path d="M0 0 C0.66 0.33 1.32 0.66 2 1 C1.67 2.32 1.34 3.64 1 5 C-0.65 5 -2.3 5 -4 5 C-4 4.01 -4 3.02 -4 2 C-3.01 2 -2.02 2 -1 2 C-0.67 1.34 -0.34 0.68 0 0 Z " fill="#AFB1B0" transform="translate(24,164)"/>
<path d="M0 0 C0.6875 1.6875 0.6875 1.6875 1 4 C-0.3125 6.75 -0.3125 6.75 -2 9 C-2.66 9 -3.32 9 -4 9 C-2.80100302 5.9168649 -1.52299523 2.93720508 0 0 Z " fill="#9AD28D" transform="translate(52,131)"/>
<path d="M0 0 C6.625 0.75 6.625 0.75 10 3 C10 3.66 10 4.32 10 5 C5 3 5 3 0 1 C0 0.67 0 0.34 0 0 Z " fill="#C2C8BE" transform="translate(40,68)"/>
<path d="M0 0 C1.32 0.99 2.64 1.98 4 3 C3.67 3.66 3.34 4.32 3 5 C2.01 5 1.02 5 0 5 C-0.66 3.68 -1.32 2.36 -2 1 C-1.34 0.67 -0.68 0.34 0 0 Z " fill="#C3C3C3" transform="translate(71,53)"/>
</svg>
