<?xml version="1.0" encoding="UTF-8"?>
<svg version="1.1" xmlns="http://www.w3.org/2000/svg" width="113" height="389">
<path d="M0 0 C1.15242188 0.00902344 2.30484375 0.01804687 3.4921875 0.02734375 C4.36101562 0.03894531 5.22984375 0.05054687 6.125 0.0625 C6.125 3.3625 6.125 6.6625 6.125 10.0625 C4.56265625 10.19205078 4.56265625 10.19205078 2.96875 10.32421875 C-19.73168455 12.44278349 -39.00229227 20.31102645 -54.875 37.0625 C-55.535 38.0525 -56.195 39.0425 -56.875 40.0625 C-56.12476562 39.48242188 -55.37453125 38.90234375 -54.6015625 38.3046875 C-36.06260844 24.15530946 -17.54107477 15.0625 6.125 15.0625 C6.125 125.6125 6.125 236.1625 6.125 350.0625 C-10.55329447 350.0625 -21.94068663 349.39953976 -33.98828125 337.61328125 C-39.26343976 330.4814417 -41.90336361 322.50824606 -44.0625 314 C-44.35020264 312.89841553 -44.63790527 311.79683105 -44.93432617 310.66186523 C-45.93306333 306.79995958 -46.90833256 302.93252236 -47.875 299.0625 C-48.05824829 298.33019165 -48.24149658 297.5978833 -48.43029785 296.84338379 C-55.2236518 269.65697878 -61.58574297 242.36920024 -67.875 215.0625 C-67.88713028 215.95616776 -67.88713028 215.95616776 -67.89950562 216.8678894 C-68.59840781 267.52540015 -68.59840781 267.52540015 -69.63409424 291.26080322 C-69.71071539 293.03027165 -69.7830159 294.79993301 -69.85076904 296.56976318 C-70.49756885 313.1080037 -70.49756885 313.1080037 -73.875 321.0625 C-74.865 320.7325 -75.855 320.4025 -76.875 320.0625 C-79.70775716 311.24947771 -80.02462636 302.15119829 -80.03613281 292.95629883 C-80.04109772 291.98926529 -80.04606262 291.02223175 -80.05117798 290.02589417 C-80.0656722 286.85709908 -80.07257707 283.6883539 -80.078125 280.51953125 C-80.08236607 278.88826074 -80.08236607 278.88826074 -80.08669281 277.22403526 C-80.10162697 271.47886287 -80.11089524 265.73371526 -80.11523438 259.98852539 C-80.12073754 254.06029108 -80.14482082 248.13228429 -80.17320633 242.20412159 C-80.19182599 237.63591339 -80.19703776 233.06776038 -80.19857025 228.49951744 C-80.20159439 226.31346061 -80.20961484 224.1274047 -80.22275543 221.94138527 C-80.23981568 218.8875849 -80.2379366 215.8343463 -80.23144531 212.78051758 C-80.2406601 211.88115479 -80.24987488 210.98179199 -80.2593689 210.05517578 C-80.22563252 204.98694096 -79.73162361 201.43840809 -76.875 197.0625 C-74.16620665 195.70810332 -71.86566732 195.99748549 -68.875 196.0625 C-68.771875 195.19625 -68.66875 194.33 -68.5625 193.4375 C-67.84101586 189.89566877 -66.60376739 187.21937958 -64.875 184.0625 C-64.215 184.0625 -63.555 184.0625 -62.875 184.0625 C-62.64554688 183.46824219 -62.41609375 182.87398437 -62.1796875 182.26171875 C-60.52518855 179.47284776 -58.79528824 178.48830434 -56 176.875 C-54.70449219 176.11123047 -54.70449219 176.11123047 -53.3828125 175.33203125 C-49.33656665 173.28369807 -45.96819564 172.93976002 -41.453125 172.96484375 C-40.42832031 172.96806641 -39.40351562 172.97128906 -38.34765625 172.97460938 C-37.28417969 172.98298828 -36.22070312 172.99136719 -35.125 173 C-34.04605469 173.00451172 -32.96710938 173.00902344 -31.85546875 173.01367188 C-29.19525617 173.02544273 -26.53515635 173.04188601 -23.875 173.0625 C-23.875 172.0725 -23.875 171.0825 -23.875 170.0625 C-24.865 170.10890625 -25.855 170.1553125 -26.875 170.203125 C-41.24958274 170.68561574 -41.24958274 170.68561574 -46.875 166.0625 C-53.6713395 159.69681964 -60.91130655 150.95358036 -63.875 142.0625 C-64.6175 141.77375 -65.36 141.485 -66.125 141.1875 C-69.58217691 139.77320035 -71.26600362 137.73217072 -73.875 135.0625 C-75.23911432 134.06822414 -76.61486824 133.08978099 -78 132.125 C-81.56248049 129.50671077 -83.29533498 127.27494006 -84.875 123.0625 C-85.22127441 122.21703613 -85.56754883 121.37157227 -85.92431641 120.50048828 C-87.17746408 115.96868924 -87.1995599 111.73582486 -87.2109375 107.0546875 C-87.2175943 106.09281525 -87.2242511 105.13094299 -87.23110962 104.1399231 C-87.24121012 102.10762434 -87.24592745 100.07529258 -87.24560547 98.04296875 C-87.24995659 94.96817729 -87.28624325 91.8948483 -87.32421875 88.8203125 C-87.38429337 78.60825086 -87.31977437 69.48118854 -82.875 60.0625 C-82.54661133 59.31371582 -82.21822266 58.56493164 -81.87988281 57.79345703 C-80.92511318 55.71366165 -79.89774432 53.7019631 -78.8125 51.6875 C-78.43109863 50.97416504 -78.04969727 50.26083008 -77.65673828 49.52587891 C-73.52236896 42.04946415 -68.44617912 35.51378871 -62.875 29.0625 C-61.98554687 28.02029297 -61.98554687 28.02029297 -61.078125 26.95703125 C-46.38931653 11.06839437 -21.52933508 -0.21968709 0 0 Z " fill="#F2F2F3" transform="translate(106.875,19.9375)"/>
<path d="M0 0 C1.15242188 0.00902344 2.30484375 0.01804687 3.4921875 0.02734375 C4.36101562 0.03894531 5.22984375 0.05054687 6.125 0.0625 C6.125 3.3625 6.125 6.6625 6.125 10.0625 C4.56265625 10.19205078 4.56265625 10.19205078 2.96875 10.32421875 C-19.73168455 12.44278349 -39.00229227 20.31102645 -54.875 37.0625 C-55.535 38.0525 -56.195 39.0425 -56.875 40.0625 C-56.12476562 39.48242188 -55.37453125 38.90234375 -54.6015625 38.3046875 C-36.06260844 24.15530946 -17.54107477 15.0625 6.125 15.0625 C6.125 62.5825 6.125 110.1025 6.125 159.0625 C-13.875 159.0625 -13.875 159.0625 -19.875 154.0625 C-19.875 153.4025 -19.875 152.7425 -19.875 152.0625 C-21.15503906 152.09472656 -22.43507813 152.12695312 -23.75390625 152.16015625 C-28.90104174 152.15312052 -33.7652525 151.46608957 -38.8125 150.5 C-40.16698242 150.24089844 -40.16698242 150.24089844 -41.54882812 149.9765625 C-47.86919289 148.67622153 -53.85986012 146.8934214 -59.875 144.5625 C-60.60968506 144.27818115 -61.34437012 143.9938623 -62.10131836 143.70092773 C-68.13078222 141.22352017 -72.29150072 137.64599928 -76.875 133.0625 C-77.885625 132.36125 -78.89625 131.66 -79.9375 130.9375 C-83.52708552 128.05495405 -84.27120713 124.51803926 -85.33203125 120.171875 C-85.67706035 118.09093443 -85.67706035 118.09093443 -86.875 117.0625 C-86.98848752 115.7146636 -87.03450638 114.36103754 -87.05200195 113.00854492 C-87.06483719 112.14641891 -87.07767242 111.28429291 -87.09089661 110.39604187 C-87.09828354 109.45452774 -87.10567047 108.51301361 -87.11328125 107.54296875 C-87.121353 106.57402176 -87.12942474 105.60507477 -87.13774109 104.60676575 C-87.15161094 102.54458416 -87.16232003 100.48237932 -87.17016602 98.42016602 C-87.18722042 95.3011315 -87.23105997 92.18320134 -87.27539062 89.06445312 C-87.35732628 78.774204 -87.38118842 69.54895629 -82.875 60.0625 C-82.54653076 59.31411865 -82.21806152 58.5657373 -81.87963867 57.79467773 C-80.92533203 55.71417959 -79.8979529 53.70235026 -78.8125 51.6875 C-78.43109863 50.97416504 -78.04969727 50.26083008 -77.65673828 49.52587891 C-73.52236896 42.04946415 -68.44617912 35.51378871 -62.875 29.0625 C-61.98554687 28.02029297 -61.98554687 28.02029297 -61.078125 26.95703125 C-46.38931653 11.06839437 -21.52933508 -0.21968709 0 0 Z " fill="#C7CEC6" transform="translate(106.875,19.9375)"/>
<path d="M0 0 C1.15242188 0.00902344 2.30484375 0.01804687 3.4921875 0.02734375 C4.36101562 0.03894531 5.22984375 0.05054687 6.125 0.0625 C6.125 3.3625 6.125 6.6625 6.125 10.0625 C4.56265625 10.19205078 4.56265625 10.19205078 2.96875 10.32421875 C-19.73168455 12.44278349 -39.00229227 20.31102645 -54.875 37.0625 C-55.535 38.0525 -56.195 39.0425 -56.875 40.0625 C-56.12476562 39.48242188 -55.37453125 38.90234375 -54.6015625 38.3046875 C-36.06260844 24.15530946 -17.54107477 15.0625 6.125 15.0625 C6.125 25.9525 6.125 36.8425 6.125 48.0625 C-9.5625 48.375 -9.5625 48.375 -14.42456055 48.45043945 C-31.85087684 48.67852051 -31.85087684 48.67852051 -47.0078125 55.98046875 C-61.02618086 71.95041388 -59.76884017 93.89823456 -58.875 114.0625 C-57.96228363 124.52913118 -54.67230717 133.36653924 -48.875 142.0625 C-46.91138136 142.63998803 -46.91138136 142.63998803 -44.75 142.75 C-42.831875 142.9046875 -42.831875 142.9046875 -40.875 143.0625 C-40.875 143.7225 -40.875 144.3825 -40.875 145.0625 C-39.01875 145.248125 -39.01875 145.248125 -37.125 145.4375 C-31.33546401 146.07462597 -25.61123704 147.06278356 -19.875 148.0625 C-19.545 146.4125 -19.215 144.7625 -18.875 143.0625 C-18.16472656 142.92972656 -17.45445313 142.79695312 -16.72265625 142.66015625 C-15.34400391 142.39525391 -15.34400391 142.39525391 -13.9375 142.125 C-13.02097656 141.95097656 -12.10445313 141.77695313 -11.16015625 141.59765625 C-8.92210156 141.28535012 -8.92210156 141.28535012 -7.875 140.0625 C-3.20654772 139.91823386 1.45365953 140.02041585 6.125 140.0625 C6.125 146.3325 6.125 152.6025 6.125 159.0625 C2.91524078 159.1979964 -0.28875629 159.29684038 -3.5 159.375 C-4.85544922 159.4378418 -4.85544922 159.4378418 -6.23828125 159.50195312 C-10.75060078 159.58429472 -13.90764661 159.56208945 -17.5234375 156.66796875 C-19.875 154.0625 -19.875 154.0625 -19.875 152.0625 C-21.15503906 152.09472656 -22.43507813 152.12695312 -23.75390625 152.16015625 C-28.90104174 152.15312052 -33.7652525 151.46608957 -38.8125 150.5 C-40.16698242 150.24089844 -40.16698242 150.24089844 -41.54882812 149.9765625 C-47.86919289 148.67622153 -53.85986012 146.8934214 -59.875 144.5625 C-60.60968506 144.27818115 -61.34437012 143.9938623 -62.10131836 143.70092773 C-68.13078222 141.22352017 -72.29150072 137.64599928 -76.875 133.0625 C-77.885625 132.36125 -78.89625 131.66 -79.9375 130.9375 C-83.52708552 128.05495405 -84.27120713 124.51803926 -85.33203125 120.171875 C-85.67706035 118.09093443 -85.67706035 118.09093443 -86.875 117.0625 C-86.98848752 115.7146636 -87.03450638 114.36103754 -87.05200195 113.00854492 C-87.06483719 112.14641891 -87.07767242 111.28429291 -87.09089661 110.39604187 C-87.09828354 109.45452774 -87.10567047 108.51301361 -87.11328125 107.54296875 C-87.121353 106.57402176 -87.12942474 105.60507477 -87.13774109 104.60676575 C-87.15161094 102.54458416 -87.16232003 100.48237932 -87.17016602 98.42016602 C-87.18722042 95.3011315 -87.23105997 92.18320134 -87.27539062 89.06445312 C-87.35732628 78.774204 -87.38118842 69.54895629 -82.875 60.0625 C-82.54653076 59.31411865 -82.21806152 58.5657373 -81.87963867 57.79467773 C-80.92533203 55.71417959 -79.8979529 53.70235026 -78.8125 51.6875 C-78.43109863 50.97416504 -78.04969727 50.26083008 -77.65673828 49.52587891 C-73.52236896 42.04946415 -68.44617912 35.51378871 -62.875 29.0625 C-61.98554687 28.02029297 -61.98554687 28.02029297 -61.078125 26.95703125 C-46.38931653 11.06839437 -21.52933508 -0.21968709 0 0 Z " fill="#D2D2D2" transform="translate(106.875,19.9375)"/>
<path d="M0 0 C0 10.89 0 21.78 0 33 C-15.6875 33.3125 -15.6875 33.3125 -20.54956055 33.38793945 C-37.97587684 33.61602051 -37.97587684 33.61602051 -53.1328125 40.91796875 C-67.13795893 56.87285125 -65.91943509 78.84904751 -65 99 C-64.22333212 107.40095756 -62.09727225 114.653167 -58 122 C-58 122.99 -58 123.98 -58 125 C-63.97689202 124.2528885 -69.05821919 121.29452054 -74 118 C-74.30259122 115.46414112 -74.40958088 113.17085223 -74.38818359 110.63208008 C-74.39344055 109.8725 -74.39869751 109.11291992 -74.40411377 108.33032227 C-74.41735609 105.80985153 -74.4085567 103.29000886 -74.3984375 100.76953125 C-74.40045808 99.01795836 -74.40336938 97.26638629 -74.40713501 95.51481628 C-74.41156495 91.83686341 -74.40510979 88.15912872 -74.39111328 84.48120117 C-74.37408387 79.77804178 -74.38381843 75.07539832 -74.40183067 70.37225819 C-74.41270437 66.7510138 -74.40920468 63.12989035 -74.4014473 59.5086422 C-74.39945191 57.7755801 -74.40188125 56.04250687 -74.40888596 54.30945778 C-74.4165525 51.87764358 -74.40482154 49.44664637 -74.38818359 47.01489258 C-74.39425629 46.30449326 -74.40032898 45.59409393 -74.40658569 44.86216736 C-74.3364916 39.29861592 -73.14150835 34.58813309 -69.5390625 30.234375 C-67.8392702 28.8710898 -66.13307867 27.53781071 -64.375 26.25 C-61.40476271 24.06026302 -58.5043978 21.80760249 -55.625 19.5 C-39.03930566 6.62202914 -20.90865266 0 0 0 Z " fill="#F3F3F3" transform="translate(113,35)"/>
<path d="M0 0 C4.99985791 1.88816386 9.68293885 4.75416173 13 9 C13.72159424 10.64363134 14.39351421 12.31050386 15 14 C15.66 14.99 16.32 15.98 17 17 C18.11817759 27.84372226 16.97066036 36.271038 10.0625 44.875 C6.91346655 48.5064759 3.75226608 50.77375805 -1.0859375 51.3984375 C-12.55107296 51.3167382 -12.55107296 51.3167382 -18 48 C-21 44.80645161 -21 44.80645161 -21 42 C-21.66 42 -22.32 42 -23 42 C-27.85836676 34.19191057 -28.15978973 25.87685218 -27 17 C-22.70538678 4.7901325 -12.56017183 -1.49131328 0 0 Z " fill="#EDFEC8" transform="translate(86,96)"/>
<path d="M0 0 C0.69895386 0.00141495 1.39790771 0.0028299 2.11804199 0.00428772 C4.31832429 0.00981955 6.51849923 0.02235848 8.71875 0.03515625 C10.22395685 0.04018009 11.72916532 0.04474143 13.234375 0.04882812 C16.89586735 0.05976648 20.55729817 0.07698266 24.21875 0.09765625 C24.21875 0.75765625 24.21875 1.41765625 24.21875 2.09765625 C22.82136597 2.11953003 22.82136597 2.11953003 21.39575195 2.1418457 C17.874704 2.20361082 14.3543481 2.27788356 10.83374023 2.36010742 C9.32211937 2.39296526 7.8103873 2.42111305 6.29858398 2.4440918 C-12.64176998 2.32385628 -12.64176998 2.32385628 -28.94921875 10.19140625 C-29.61566406 10.98546875 -30.28210937 11.77953125 -30.96875 12.59765625 C-31.64292969 13.39171875 -32.31710938 14.18578125 -33.01171875 15.00390625 C-33.59566406 15.69484375 -34.17960937 16.38578125 -34.78125 17.09765625 C-35.44125 17.75765625 -36.10125 18.41765625 -36.78125 19.09765625 C-36.86543964 15.7300707 -36.24641463 13.66103429 -34.09765625 11.05859375 C-24.33817706 1.76882212 -13.05733548 -0.05265055 0 0 Z " fill="#DBE0DA" transform="translate(88.78125,65.90234375)"/>
<path d="M0 0 C0.66 0 1.32 0 2 0 C1.87882812 0.57105469 1.75765625 1.14210938 1.6328125 1.73046875 C1.06403501 4.48247677 0.53376779 7.24099757 0 10 C-0.19078125 10.87269531 -0.3815625 11.74539062 -0.578125 12.64453125 C-4.33135467 32.24175187 -2.49566556 52.00411254 3 71 C0.05225799 68.51547459 -0.92402214 66.06407488 -2.125 62.4375 C-2.45757812 61.46683594 -2.79015625 60.49617188 -3.1328125 59.49609375 C-7.70767335 41.05239798 -6.7215488 17.72044684 0 0 Z " fill="#E4E9E0" transform="translate(50,85)"/>
<path d="M0 0 C0.33 0 0.66 0 1 0 C1.33 14.19 1.66 28.38 2 43 C2.66 43 3.32 43 4 43 C4.02578125 43.66386719 4.0515625 44.32773438 4.078125 45.01171875 C4.43519706 50.57068156 4.83693548 53.95937855 9 58 C9.5775 58.598125 10.155 59.19625 10.75 59.8125 C11.1625 60.204375 11.575 60.59625 12 61 C7.529802 59.63410617 5.51283221 57.93677047 3 54 C0.09757898 47.42309142 -0.4104423 41.39280234 -0.29296875 34.27734375 C-0.28872391 33.29125626 -0.28447906 32.30516876 -0.28010559 31.28919983 C-0.26345171 28.17167651 -0.2258248 25.0548245 -0.1875 21.9375 C-0.17243597 19.81055628 -0.15875059 17.68360232 -0.14648438 15.55664062 C-0.11359182 10.37083918 -0.0619026 5.185533 0 0 Z " fill="#FEFEFE" transform="translate(20,92)"/>
<path d="M0 0 C0.66 0.33 1.32 0.66 2 1 C-11.12344656 16.42004971 -11.12344656 16.42004971 -17 19 C-13.66625383 11.32174419 -6.54240284 5.03261757 0 0 Z " fill="#EAEAEA" transform="translate(55,39)"/>
<path d="M0 0 C-0.70125 0.25652344 -1.4025 0.51304688 -2.125 0.77734375 C-9.7056343 3.83637688 -13.99998099 7.62152964 -19 14 C-19.66 14.66 -20.32 15.32 -21 16 C-21.08647983 12.54080661 -20.46485864 10.52856518 -18.17578125 7.92578125 C-7.13662691 -2.21374761 -7.13662691 -2.21374761 0 0 Z " fill="#E2E5E0" transform="translate(73,69)"/>
<path d="M0 0 C0.33 0.66 0.66 1.32 1 2 C1.66 2 2.32 2 3 2 C3.02578125 2.66386719 3.0515625 3.32773438 3.078125 4.01171875 C3.43519706 9.57068156 3.83693548 12.95937855 8 17 C8.5775 17.598125 9.155 18.19625 9.75 18.8125 C10.1625 19.204375 10.575 19.59625 11 20 C6.55124915 18.64065946 4.48147186 16.93612779 2 13 C0.46422468 8.71371183 -0.28533565 4.56537047 0 0 Z " fill="#F0EFEF" transform="translate(21,133)"/>
<path d="M0 0 C0.33 0.99 0.66 1.98 1 3 C1.99 3 2.98 3 4 3 C1.49316923 6.76024616 -0.86493934 7.39192086 -5 9 C-3.7508258 5.54074837 -2.32472205 2.85306797 0 0 Z " fill="#E6E6E6" transform="translate(37,58)"/>
<path d="M0 0 C-0.33 0.66 -0.66 1.32 -1 2 C-3.06640625 2.4140625 -3.06640625 2.4140625 -5.5625 2.625 C-6.38878906 2.69976562 -7.21507813 2.77453125 -8.06640625 2.8515625 C-9.02353516 2.92503906 -9.02353516 2.92503906 -10 3 C-6.93361469 -0.59474709 -4.63005752 -0.26207873 0 0 Z " fill="#CCE1C5" transform="translate(99,160)"/>
<path d="M0 0 C0.66 0.33 1.32 0.66 2 1 C1.01 1 0.02 1 -1 1 C-0.67 0.67 -0.34 0.34 0 0 Z M-2 2 C-2 2.99 -2 3.98 -2 5 C-4 6.6875 -4 6.6875 -6 8 C-6.66 7.67 -7.32 7.34 -8 7 C-6.06745228 4.9754262 -4.36841312 3.57894208 -2 2 Z " fill="#FAFAFA" transform="translate(50,60)"/>
</svg>
