<?xml version="1.0" encoding="UTF-8"?>
<svg version="1.1" xmlns="http://www.w3.org/2000/svg" width="85" height="22">
<path d="M0 0 C3.3 0 6.6 0 10 0 C10 0.99 10 1.98 10 3 C10.99 3.33 11.98 3.66 13 4 C13 8.95 13 13.9 13 19 C12.01 19 11.02 19 10 19 C10 19.99 10 20.98 10 22 C7.03 22 4.06 22 1 22 C0.67 21.01 0.34 20.02 0 19 C-0.99 19 -1.98 19 -3 19 C-3 14.05 -3 9.1 -3 4 C-2.01 3.67 -1.02 3.34 0 3 C0 2.01 0 1.02 0 0 Z M4 4 C4 8.62 4 13.24 4 18 C4.66 18 5.32 18 6 18 C6 13.38 6 8.76 6 4 C5.34 4 4.68 4 4 4 Z " fill="#00900D" transform="translate(20,0)"/>
<path d="M0 0 C1.98 0 3.96 0 6 0 C6 0.99 6 1.98 6 3 C6.99 3 7.98 3 9 3 C9 3.99 9 4.98 9 6 C9.99 6 10.98 6 12 6 C12 6.99 12 7.98 12 9 C12.66 9 13.32 9 14 9 C14 6.03 14 3.06 14 0 C15.32 0.33 16.64 0.66 18 1 C18 7.93 18 14.86 18 22 C16.68 22 15.36 22 14 22 C14 20.02 14 18.04 14 16 C13.01 16 12.02 16 11 16 C11 15.01 11 14.02 11 13 C10.01 13 9.02 13 8 13 C8 12.01 8 11.02 8 10 C7.34 10 6.68 10 6 10 C6 13.96 6 17.92 6 22 C4.02 22 2.04 22 0 22 C0 14.74 0 7.48 0 0 Z " fill="#00900D" transform="translate(67,0)"/>
<path d="M0 0 C2.97 0 5.94 0 9 0 C9 0.99 9 1.98 9 3 C9.99 3 10.98 3 12 3 C12 4.32 12 5.64 12 7 C9.69 7 7.38 7 5 7 C5 6.01 5 5.02 5 4 C4.34 4 3.68 4 3 4 C3 8.62 3 13.24 3 18 C3.66 18 4.32 18 5 18 C5 15.03 5 12.06 5 9 C7.31 9 9.62 9 12 9 C12 12.3 12 15.6 12 19 C11.01 19 10.02 19 9 19 C9 19.99 9 20.98 9 22 C6.03 22 3.06 22 0 22 C0 21.01 0 20.02 0 19 C-0.99 19 -1.98 19 -3 19 C-3 13.72 -3 8.44 -3 3 C-2.01 3 -1.02 3 0 3 C0 2.01 0 1.02 0 0 Z " fill="#00900D" transform="translate(38,0)"/>
<path d="M0 0 C3.96 0 7.92 0 12 0 C12 1.32 12 2.64 12 4 C11.34 4 10.68 4 10 4 C10 8.62 10 13.24 10 18 C10.66 18 11.32 18 12 18 C12 19.32 12 20.64 12 22 C8.04 22 4.08 22 0 22 C0 20.68 0 19.36 0 18 C0.99 18 1.98 18 3 18 C3 13.38 3 8.76 3 4 C2.01 4 1.02 4 0 4 C0 2.68 0 1.36 0 0 Z " fill="#00900C" transform="translate(52,0)"/>
<path d="M0 0 C1.98 0 3.96 0 6 0 C7 1 7 1 7.09765625 4.81640625 C7.09098089 6.39846682 7.07901875 7.98051159 7.0625 9.5625 C7.05798828 10.36880859 7.05347656 11.17511719 7.04882812 12.00585938 C7.03700518 14.00393756 7.01906914 16.00197783 7 18 C9.64 18 12.28 18 15 18 C15 19.32 15 20.64 15 22 C10.05 22 5.1 22 0 22 C0 14.74 0 7.48 0 0 Z " fill="#00900D" transform="translate(0,0)"/>
</svg>
