<?xml version="1.0" encoding="UTF-8"?>
<svg version="1.1" xmlns="http://www.w3.org/2000/svg" width="393" height="72">
<path d="M0 0 C13.53 0 27.06 0 41 0 C39.03365185 4.91587036 36.87518699 8.2019501 33.6875 12.3125 C33.21376953 12.95767578 32.74003906 13.60285156 32.25195312 14.26757812 C28.66670085 18.90241178 28.66670085 18.90241178 25.14453125 19.41796875 C24.43683594 19.28003906 23.72914063 19.14210938 23 19 C24.32 19.66 25.64 20.32 27 21 C24.69 23.97 22.38 26.94 20 30 C26.6 30.33 33.2 30.66 40 31 C38.07575341 35.81061648 36.71655628 38.47279621 33 42 C30.06569037 42.54184419 27.98240437 42.71138616 25.07421875 42.5859375 C23.95283257 42.57320297 23.95283257 42.57320297 22.80879211 42.56021118 C20.43352812 42.52676529 18.06172781 42.45151814 15.6875 42.375 C14.07231486 42.3448883 12.45707619 42.31751458 10.84179688 42.29296875 C6.89320761 42.22700501 2.94718985 42.12355759 -1 42 C0.60128226 37.73754554 2.73418097 34.47263044 5.5625 30.9375 C6.45773902 29.79743042 7.35225272 28.65679097 8.24609375 27.515625 C8.70097168 26.93748047 9.15584961 26.35933594 9.62451172 25.76367188 C11.8309268 22.93457309 13.97908587 20.06260047 16.125 17.1875 C17.40375 15.475625 18.6825 13.76375 20 12 C13.4 11.67 6.8 11.34 0 11 C0 7.37 0 3.74 0 0 Z " fill="#CBC671" transform="translate(126,0)"/>
<path d="M0 0 C3.3 0 6.6 0 10 0 C10.08735463 4.54154478 10.14051247 9.08287232 10.1875 13.625 C10.21263672 14.91019531 10.23777344 16.19539063 10.26367188 17.51953125 C10.27333984 18.76347656 10.28300781 20.00742187 10.29296875 21.2890625 C10.3086792 22.43068848 10.32438965 23.57231445 10.34057617 24.74853516 C9.74432086 30.44095686 6.88526058 34.89272453 3 39 C-2.57538378 43.14579819 -9.36292205 42.9606297 -16 42 C-21.89270044 39.67527859 -25.54397696 36.23103602 -28.23022461 30.53710938 C-29.85879605 25.16948666 -29.40243953 19.55231677 -29.25 14 C-29.23195312 12.74832031 -29.21390625 11.49664062 -29.1953125 10.20703125 C-29.14844512 7.13721758 -29.0828431 4.06901826 -29 1 C-25.44920141 1.66241789 -22.32542534 2.57481771 -19 4 C-18.98541748 4.60996826 -18.97083496 5.21993652 -18.95581055 5.84838867 C-18.88105225 8.62871064 -18.78448518 11.40786824 -18.6875 14.1875 C-18.66494141 15.14720703 -18.64238281 16.10691406 -18.61914062 17.09570312 C-18.40962685 24.05972531 -18.40962685 24.05972531 -15 30 C-12.42900598 31.34689915 -12.42900598 31.34689915 -10 32 C-10 33.65 -10 35.3 -10 37 C-9.95875 36.236875 -9.9175 35.47375 -9.875 34.6875 C-9 32 -9 32 -6.0625 30.375 C-4.5465625 29.694375 -4.5465625 29.694375 -3 29 C-0.70825923 25.56238884 -0.70475953 24.07928385 -0.5859375 20.01953125 C-0.54726562 18.85615234 -0.50859375 17.69277344 -0.46875 16.49414062 C-0.42234375 14.67172852 -0.42234375 14.67172852 -0.375 12.8125 C-0.33632812 11.58595703 -0.29765625 10.35941406 -0.2578125 9.09570312 C-0.16343897 6.06395344 -0.07785451 3.03221159 0 0 Z " fill="#447168" transform="translate(71,0)"/>
<path d="M0 0 C3.87460078 -0.14584726 7.74849117 -0.23425444 11.625 -0.3125 C12.71941406 -0.35439453 13.81382812 -0.39628906 14.94140625 -0.43945312 C24.05892927 -0.57759741 24.05892927 -0.57759741 27.6875 2.37109375 C30.93304851 6.06071225 31.82586516 8.46180887 32.375 13.3125 C31.55946011 21.33197561 27.77628406 25.70542624 21.70703125 30.75 C19 32 19 32 10 32 C16.93 32.33 23.86 32.66 31 33 C31 36.3 31 39.6 31 43 C20.77 43 10.54 43 0 43 C0 33 0 33 2.4140625 29.9765625 C4.00347656 28.81253906 4.00347656 28.81253906 5.625 27.625 C7.19121094 26.43777344 7.19121094 26.43777344 8.7890625 25.2265625 C9.84867187 24.49179687 10.90828125 23.75703125 12 23 C13.08023437 22.24460937 14.16046875 21.48921875 15.2734375 20.7109375 C18 19 18 19 20 19 C20.226875 18.195625 20.45375 17.39125 20.6875 16.5625 C21.120625 15.716875 21.55375 14.87125 22 14 C24.625 13.1875 24.625 13.1875 27 13 C25.576875 13.0928125 25.576875 13.0928125 24.125 13.1875 C23.09375 13.125625 22.0625 13.06375 21 13 C20.34 12.01 19.68 11.02 19 10 C16.97723319 9.49378487 16.97723319 9.49378487 14.6484375 9.48828125 C13.79765625 9.45283203 12.946875 9.41738281 12.0703125 9.38085938 C11.18085938 9.35830078 10.29140625 9.33574219 9.375 9.3125 C8.02921875 9.26125977 8.02921875 9.26125977 6.65625 9.20898438 C4.43794387 9.12638787 2.21899064 9.06152077 0 9 C0 6.03 0 3.06 0 0 Z " fill="#456262" transform="translate(327,0)"/>
<path d="M0 0 C3.3 0 6.6 0 10 0 C10.33 5.61 10.66 11.22 11 17 C13.64 17.33 16.28 17.66 19 18 C19.33 12.06 19.66 6.12 20 0 C23.3 0 26.6 0 30 0 C30 14.52 30 29.04 30 44 C26.7 44 23.4 44 20 44 C20 39.05 20 34.1 20 29 C17.2775 28.566875 17.2775 28.566875 14.5 28.125 C9.53595666 27.33526583 4.92274504 26.23068626 0 25 C0 16.75 0 8.5 0 0 Z " fill="#22364B" transform="translate(363,0)"/>
<path d="M0 0 C1.05445313 -0.01224609 2.10890625 -0.02449219 3.1953125 -0.03710938 C4.21109375 -0.03904297 5.226875 -0.04097656 6.2734375 -0.04296875 C7.66828369 -0.04913208 7.66828369 -0.04913208 9.09130859 -0.05541992 C11.72946455 0.19751563 13.36130225 0.84792981 15.625 2.1875 C15.625 3.5075 15.625 4.8275 15.625 6.1875 C14.635 6.5175 13.645 6.8475 12.625 7.1875 C11.39979736 10.19597418 11.39979736 10.19597418 10.625 13.1875 C8.645 12.5275 6.665 11.8675 4.625 11.1875 C4.625 14.1575 4.625 17.1275 4.625 20.1875 C5.32625 19.960625 6.0275 19.73375 6.75 19.5 C10.50200275 19.09217361 12.41931057 20.32372707 15.625 22.1875 C15.13 23.6725 15.13 23.6725 14.625 25.1875 C10.70215254 25.908023 7.97377978 26.27316521 4.0625 25.3125 C0.67853789 24.80494305 0.67853789 24.80494305 -1.1484375 26.67578125 C-2.66782005 28.45552747 -4.0585804 30.25385803 -5.375 32.1875 C-4.385 33.1775 -3.395 34.1675 -2.375 35.1875 C-5.50849732 36.23199911 -6.36468256 36.12173645 -9.375 35.1875 C-9.705 35.8475 -10.035 36.5075 -10.375 37.1875 C-12.75 36.875 -12.75 36.875 -15.375 36.1875 C-16.035 35.1975 -16.695 34.2075 -17.375 33.1875 C-18.695 33.1875 -20.015 33.1875 -21.375 33.1875 C-24.89003215 27.47557276 -25.23743855 22.6011561 -23.9765625 16.1484375 C-22.10010535 10.03167457 -17.89872119 5.57675814 -13.375 1.1875 C-9.40063582 -0.79968209 -4.36949074 0.00265139 0 0 Z M-5.375 2.1875 C-5.045 4.1675 -4.715 6.1475 -4.375 8.1875 C-0.085 8.1875 4.205 8.1875 8.625 8.1875 C9.285 6.8675 9.945 5.5475 10.625 4.1875 C7.80990007 1.9101499 7.80990007 1.9101499 4.625 2.1875 C4.625 3.5075 4.625 4.8275 4.625 6.1875 C1.985 6.1875 -0.655 6.1875 -3.375 6.1875 C-3.375 5.1975 -3.375 4.2075 -3.375 3.1875 C-2.715 2.8575 -2.055 2.5275 -1.375 2.1875 C-2.695 2.1875 -4.015 2.1875 -5.375 2.1875 Z M-11.375 5.1875 C-12.73327971 6.83389965 -14.06754251 8.50045807 -15.375 10.1875 C-15.045 10.8475 -14.715 11.5075 -14.375 12.1875 C-13.385 12.1875 -12.395 12.1875 -11.375 12.1875 C-11.045 12.8475 -10.715 13.5075 -10.375 14.1875 C-9.14103959 12.4732711 -9.14103959 12.4732711 -8.375 10.1875 C-9.16202351 7.4681707 -9.16202351 7.4681707 -10.375 5.1875 C-10.705 5.1875 -11.035 5.1875 -11.375 5.1875 Z M-17.375 11.1875 C-16.375 13.1875 -16.375 13.1875 -16.375 13.1875 Z M-7.375 13.1875 C-9.33425329 15.32336203 -10.53832962 17.41178949 -11.375 20.1875 C-11.24811765 24.01074656 -11.24811765 24.01074656 -10.375 27.1875 C-5.59052606 27.1875 -4.02154014 26.18576633 -0.375 23.1875 C1.20241269 19.13129594 0.69802322 14.49586978 0.625 10.1875 C-2.24639303 10.1875 -4.99014564 11.7170996 -7.375 13.1875 Z M-18.375 13.1875 C-18.705 15.4975 -19.035 17.8075 -19.375 20.1875 C-18.385 20.5175 -17.395 20.8475 -16.375 21.1875 C-15.715 20.8575 -15.055 20.5275 -14.375 20.1875 C-14.375 21.8375 -14.375 23.4875 -14.375 25.1875 C-16.025 25.1875 -17.675 25.1875 -19.375 25.1875 C-19.375 26.5075 -19.375 27.8275 -19.375 29.1875 C-18.055 28.8575 -16.735 28.5275 -15.375 28.1875 C-16.035 28.1875 -16.695 28.1875 -17.375 28.1875 C-17.375 27.5275 -17.375 26.8675 -17.375 26.1875 C-16.385 26.1875 -15.395 26.1875 -14.375 26.1875 C-14.045 26.8475 -13.715 27.5075 -13.375 28.1875 C-13.045 24.2275 -12.715 20.2675 -12.375 16.1875 C-13.035 16.1875 -13.695 16.1875 -14.375 16.1875 C-14.375 15.5275 -14.375 14.8675 -14.375 14.1875 C-15.695 13.8575 -17.015 13.5275 -18.375 13.1875 Z M-20.375 20.1875 C-19.375 24.1875 -19.375 24.1875 -19.375 24.1875 Z M-13.375 28.1875 C-12.375 30.1875 -12.375 30.1875 -12.375 30.1875 Z " fill="#EEA73C" transform="translate(217.375,-0.1875)"/>
<path d="M0 0 C3.7073348 1.56915101 6.20891864 3.87895254 9.125 6.625 C14.22967376 11.35180424 19.51774791 15.70954184 25 20 C25 14.72 25 9.44 25 4 C32.625 0 32.625 0 36 0 C36 14.19 36 28.38 36 43 C32.34250976 41.17125488 29.56377089 39.27695051 26.375 36.75 C25.41335938 36.00234375 24.45171875 35.2546875 23.4609375 34.484375 C20.69079124 31.6878464 20.20365207 29.68260218 19 26 C16.69655836 23.39132949 16.69655836 23.39132949 13.875 21.0625 C12.89660156 20.19882812 11.91820312 19.33515625 10.91015625 18.4453125 C9.14124661 16.95895353 7.34274544 15.50577738 5.49609375 14.1171875 C0.21142664 10.05205895 0.21142664 10.05205895 -0.48828125 6.5703125 C-0.49880483 4.31826555 -0.36249466 2.22027982 0 0 Z " fill="#B1CC88" transform="translate(248,0)"/>
<path d="M0 0 C3.37635286 -0.13541522 6.74723976 -0.23431111 10.125 -0.3125 C11.07632812 -0.35439453 12.02765625 -0.39628906 13.0078125 -0.43945312 C20.96488086 -0.57759667 20.96488086 -0.57759667 24.58984375 2.37890625 C27.5911099 5.64284399 28.92966111 7.63045873 29.0625 12.10546875 C28.74714493 17.98881183 27.30547259 20.98808236 23 25 C19.0427223 27.29105551 15.50902727 27.1768246 11 27 C11 26.01 11 25.02 11 24 C8.36 24 5.72 24 3 24 C3 21.69 3 19.38 3 17 C3.91523438 16.97421875 4.83046875 16.9484375 5.7734375 16.921875 C6.96195313 16.86515625 8.15046875 16.8084375 9.375 16.75 C10.55835938 16.70359375 11.74171875 16.6571875 12.9609375 16.609375 C16.08375825 16.33791539 16.08375825 16.33791539 17.4140625 14.078125 C18.09045807 12.0390336 18.09045807 12.0390336 18 10 C11.07 9.505 11.07 9.505 4 9 C4 10.32 4 11.64 4 13 C2.68 13 1.36 13 0 13 C0 8.71 0 4.42 0 0 Z " fill="#1E4952" transform="translate(8,0)"/>
<path d="M0 0 C2.31 0 4.62 0 7 0 C7 4.29 7 8.58 7 13 C7.99 13 8.98 13 10 13 C10 16.3 10 19.6 10 23 C12.31 23 14.62 23 17 23 C17.33 24.32 17.66 25.64 18 27 C15.36 27 12.72 27 10 27 C10 31.62 10 36.24 10 41 C6.7 41 3.4 41 0 41 C0 27.47 0 13.94 0 0 Z " fill="#18464F" transform="translate(0,2)"/>
<path d="M0 0 C5.62226169 2.24890468 5.62226169 2.24890468 8.15625 4.6796875 C8.70410156 5.19660156 9.25195312 5.71351562 9.81640625 6.24609375 C10.37199219 6.78363281 10.92757812 7.32117188 11.5 7.875 C12.61310274 8.93645064 13.72766338 9.99637477 14.84375 11.0546875 C15.37395752 11.56064453 15.90416504 12.06660156 16.45043945 12.58789062 C17.86161802 13.87389296 19.37096656 15.0500231 20.88671875 16.2109375 C23 18 23 18 23.3125 20.75 C23.209375 21.4925 23.10625 22.235 23 23 C18.63944901 21.01266924 15.57416555 18.16176183 12 15 C11.67 20.61 11.34 26.22 11 32 C7.37 32 3.74 32 0 32 C0 21.44 0 10.88 0 0 Z " fill="#CAC875" transform="translate(245,11)"/>
<path d="M0 0 C9 3 9 3 10 4 C10.08767112 6.07262076 10.10695873 8.14820294 10.09765625 10.22265625 C10.09443359 11.48271484 10.09121094 12.74277344 10.08789062 14.04101562 C10.07953403 15.38151109 10.07106907 16.72200588 10.0625 18.0625 C10.0574866 19.40689942 10.05292342 20.7513006 10.04882812 22.09570312 C10.03699488 25.39717941 10.02050971 28.69856803 10 32 C12.64 32 15.28 32 18 32 C18 33.32 18 34.64 18 36 C12.06 36 6.12 36 0 36 C0 24.12 0 12.24 0 0 Z " fill="#90BE8A" transform="translate(90,1)"/>
<path d="M0 0 C3.3 0 6.6 0 10 0 C10.08735463 4.54154478 10.14051247 9.08287232 10.1875 13.625 C10.21263672 14.91019531 10.23777344 16.19539063 10.26367188 17.51953125 C10.27333984 18.76347656 10.28300781 20.00742187 10.29296875 21.2890625 C10.3086792 22.43068848 10.32438965 23.57231445 10.34057617 24.74853516 C9.95723398 28.4082852 8.8205057 30.82933839 7 34 C3 34 3 34 0 33 C-1.81180306 33.7872555 -1.81180306 33.7872555 -3.5625 35 C-4.696875 35.66 -5.83125 36.32 -7 37 C-7.66 36.67 -8.32 36.34 -9 36 C-9 34.68 -9 33.36 -9 32 C-8.05125 31.566875 -7.1025 31.13375 -6.125 30.6875 C-2.79958063 29.20697799 -2.79958063 29.20697799 -1 26 C-0.63155492 23.1913957 -0.63155492 23.1913957 -0.5859375 20.01953125 C-0.54726562 18.85615234 -0.50859375 17.69277344 -0.46875 16.49414062 C-0.42234375 14.67172852 -0.42234375 14.67172852 -0.375 12.8125 C-0.31699219 10.97268555 -0.31699219 10.97268555 -0.2578125 9.09570312 C-0.16343897 6.06395344 -0.07785451 3.03221159 0 0 Z " fill="#6B9A7C" transform="translate(71,0)"/>
<path d="M0 0 C1.05445313 -0.01224609 2.10890625 -0.02449219 3.1953125 -0.03710938 C4.21109375 -0.03904297 5.226875 -0.04097656 6.2734375 -0.04296875 C7.66828369 -0.04913208 7.66828369 -0.04913208 9.09130859 -0.05541992 C11.72946455 0.19751563 13.36130225 0.84792981 15.625 2.1875 C15.625 3.5075 15.625 4.8275 15.625 6.1875 C14.635 6.5175 13.645 6.8475 12.625 7.1875 C12.295 7.8475 11.965 8.5075 11.625 9.1875 C10.635 8.8575 9.645 8.5275 8.625 8.1875 C8.955 6.8675 9.285 5.5475 9.625 4.1875 C7.975 3.5275 6.325 2.8675 4.625 2.1875 C4.625 3.5075 4.625 4.8275 4.625 6.1875 C1.985 6.1875 -0.655 6.1875 -3.375 6.1875 C-3.375 5.1975 -3.375 4.2075 -3.375 3.1875 C-4.035 2.8575 -4.695 2.5275 -5.375 2.1875 C-5.045 4.1675 -4.715 6.1475 -4.375 8.1875 C-6.025 8.8475 -7.675 9.5075 -9.375 10.1875 C-10.035 8.8675 -10.695 7.5475 -11.375 6.1875 C-15.67784347 10.63918397 -18.1292451 14.08330099 -19.375 20.1875 C-17.725 20.1875 -16.075 20.1875 -14.375 20.1875 C-14.375 21.8375 -14.375 23.4875 -14.375 25.1875 C-16.025 25.1875 -17.675 25.1875 -19.375 25.1875 C-19.045 28.1575 -18.715 31.1275 -18.375 34.1875 C-22.375 32.1875 -22.375 32.1875 -23.625 30.125 C-25.38668958 23.22504915 -24.97867811 16.41418315 -21.375 10.1875 C-14.41051052 1.20060253 -11.09926854 0.00673499 0 0 Z M-20.375 20.1875 C-19.375 24.1875 -19.375 24.1875 -19.375 24.1875 Z " fill="#EBB048" transform="translate(217.375,-0.1875)"/>
<path d="M0 0 C2.64 0 5.28 0 8 0 C8 3.63 8 7.26 8 11 C8.66 11 9.32 11 10 11 C10 18.26 10 25.52 10 33 C1 30 1 30 0 29 C-0.08775605 26.85441173 -0.10695219 24.70595579 -0.09765625 22.55859375 C-0.09443359 21.25341797 -0.09121094 19.94824219 -0.08789062 18.60351562 C-0.07953401 17.2148431 -0.07106905 15.82617123 -0.0625 14.4375 C-0.05748666 13.04492344 -0.05292347 11.65234519 -0.04882812 10.25976562 C-0.03699434 6.8398013 -0.0205088 3.41992156 0 0 Z " fill="#EAAC43" transform="translate(176,10)"/>
<path d="M0 0 C1.28583984 -0.05607422 1.28583984 -0.05607422 2.59765625 -0.11328125 C4.9375 0.3125 4.9375 0.3125 6.765625 2.12890625 C8.38459993 5.1455962 7.7476921 7.07173159 6.9375 10.3125 C5.9475 10.6425 4.9575 10.9725 3.9375 11.3125 C5.2575 13.9525 6.5775 16.5925 7.9375 19.3125 C5.125 19.5625 5.125 19.5625 1.9375 19.3125 C0.0625 17.4375 0.0625 17.4375 -1.0625 15.3125 C-1.0625 14.6525 -1.0625 13.9925 -1.0625 13.3125 C-2.0525 13.3125 -3.0425 13.3125 -4.0625 13.3125 C-4.0625 14.9625 -4.0625 16.6125 -4.0625 18.3125 C-5.7125 18.6425 -7.3625 18.9725 -9.0625 19.3125 C-9.0625 13.3725 -9.0625 7.4325 -9.0625 1.3125 C-5.82435113 0.50296278 -3.28783476 0.09422151 0 0 Z M-5.0625 7.3125 C-2.4225 7.3125 0.2175 7.3125 2.9375 7.3125 C2.9375 6.6525 2.9375 5.9925 2.9375 5.3125 C-1.55554582 4.88746554 -1.55554582 4.88746554 -5.0625 7.3125 Z " fill="#E6B04C" transform="translate(187.0625,52.6875)"/>
<path d="M0 0 C1.61648437 0.04060547 1.61648437 0.04060547 3.265625 0.08203125 C4.08546875 0.11683594 4.9053125 0.15164062 5.75 0.1875 C3.875 4.0625 3.875 4.0625 2.75 5.1875 C0.07941149 5.32865161 -2.57432238 5.22997107 -5.25 5.1875 C-5.25 5.8475 -5.25 6.5075 -5.25 7.1875 C-3.64125 7.0946875 -3.64125 7.0946875 -2 7 C1.85866187 7.19293309 3.03817788 7.58415076 5.75 10.1875 C5.14501779 16.60031139 5.14501779 16.60031139 3.59375 18.90625 C0.90592305 20.77406195 -1.20770745 20.47918686 -4.4375 20.375 C-5.52417969 20.34792969 -6.61085937 20.32085937 -7.73046875 20.29296875 C-8.97763672 20.24076172 -8.97763672 20.24076172 -10.25 20.1875 C-10.25 18.5375 -10.25 16.8875 -10.25 15.1875 C-6.95 15.1875 -3.65 15.1875 -0.25 15.1875 C-0.25 14.5275 -0.25 13.8675 -0.25 13.1875 C-1.85875 13.2803125 -1.85875 13.2803125 -3.5 13.375 C-7.35866187 13.18206691 -8.53817788 12.79084924 -11.25 10.1875 C-10.76178061 3.71859309 -10.76178061 3.71859309 -8.59375 1.46875 C-5.56292386 -0.18810162 -3.43271536 -0.11193637 0 0 Z " fill="#E6B14B" transform="translate(226.25,51.8125)"/>
<path d="M0 0 C1.07765625 0.03609375 2.1553125 0.0721875 3.265625 0.109375 C4.49539063 0.17898437 4.49539063 0.17898437 5.75 0.25 C3.875 4.125 3.875 4.125 2.75 5.25 C0.07941149 5.39115161 -2.57432238 5.29247107 -5.25 5.25 C-5.25 5.91 -5.25 6.57 -5.25 7.25 C-4.198125 7.146875 -3.14625 7.04375 -2.0625 6.9375 C1.75 7.25 1.75 7.25 4.6875 9.75 C5.368125 10.575 6.04875 11.4 6.75 12.25 C4 19.125 4 19.125 1.75 20.25 C-0.12379605 20.32033769 -2.00001102 20.3343022 -3.875 20.3125 C-4.87789063 20.30347656 -5.88078125 20.29445313 -6.9140625 20.28515625 C-7.68492187 20.27355469 -8.45578125 20.26195313 -9.25 20.25 C-9.25 18.6 -9.25 16.95 -9.25 15.25 C-4.795 14.755 -4.795 14.755 -0.25 14.25 C-2.415625 13.8478125 -2.415625 13.8478125 -4.625 13.4375 C-7.0859375 12.98046875 -7.0859375 12.98046875 -9.25 12.25 C-11.25 9.25 -11.25 9.25 -11.125 6.8125 C-9.12640264 0.95946488 -5.90725454 -0.25683715 0 0 Z " fill="#E6AF4B" transform="translate(327.25,51.75)"/>
<path d="M0 0 C1.76923828 0.04060547 1.76923828 0.04060547 3.57421875 0.08203125 C4.47785156 0.11683594 5.38148438 0.15164062 6.3125 0.1875 C4.546875 2.66796875 4.546875 2.66796875 2.3125 5.1875 C-1.4375 5.5 -1.4375 5.5 -4.6875 5.1875 C-4.6875 5.8475 -4.6875 6.5075 -4.6875 7.1875 C-3.07875 7.06375 -3.07875 7.06375 -1.4375 6.9375 C2.3125 7.1875 2.3125 7.1875 4.8125 8.8125 C6.3125 11.1875 6.3125 11.1875 6.25 14.25 C5.27341452 17.30996784 4.8604113 18.33645333 2.3125 20.1875 C-0.60546875 20.48046875 -0.60546875 20.48046875 -3.875 20.375 C-4.96167969 20.34792969 -6.04835937 20.32085937 -7.16796875 20.29296875 C-8.41513672 20.24076172 -8.41513672 20.24076172 -9.6875 20.1875 C-9.6875 18.5375 -9.6875 16.8875 -9.6875 15.1875 C-6.3875 15.1875 -3.0875 15.1875 0.3125 15.1875 C0.3125 14.5275 0.3125 13.8675 0.3125 13.1875 C-0.945625 13.249375 -2.20375 13.31125 -3.5 13.375 C-6.08219981 13.35668653 -7.43201965 13.31911109 -9.75 12.125 C-11.28876391 8.94488793 -10.52187295 6.52499179 -9.6875 3.1875 C-7.16245776 -0.60440192 -4.2829647 -0.12721677 0 0 Z " fill="#E6B04C" transform="translate(243.6875,51.8125)"/>
<path d="M0 0 C4.62 0 9.24 0 14 0 C14 1.65 14 3.3 14 5 C11.03 5 8.06 5 5 5 C5 5.66 5 6.32 5 7 C7.97 7 10.94 7 14 7 C13.67 8.65 13.34 10.3 13 12 C10.36 12.33 7.72 12.66 5 13 C7.64 13.33 10.28 13.66 13 14 C13 15.65 13 17.3 13 19 C8.38 19 3.76 19 -1 19 C-1.08084859 12.53211242 -0.96509044 6.39372417 0 0 Z M1 10 C5 11 5 11 5 11 Z " fill="#E6B04B" transform="translate(301,53)"/>
<path d="M0 0 C2.5 2 2.5 2 4 4 C2.68 4.99 1.36 5.98 0 7 C-0.33 6.67 -0.66 6.34 -1 6 C-3.33297433 5.95907063 -5.66705225 5.95758277 -8 6 C-7.67 7.98 -7.34 9.96 -7 12 C-6.01 12 -5.02 12 -4 12 C-3.67 10.68 -3.34 9.36 -3 8 C-0.69 8 1.62 8 4 8 C4.8125 10.6875 4.8125 10.6875 5 14 C3 16.875 3 16.875 0 19 C-3.88242397 19.554632 -6.20510578 19.335622 -9.8125 17.8125 C-12.4399112 15.63550215 -13.22849576 14.31746825 -14 11 C-13.91849905 7.08795445 -13.22912265 5.31938309 -10.9375 2.125 C-6.8431078 -0.83690074 -4.9799388 -0.71141983 0 0 Z " fill="#E6B04D" transform="translate(294,53)"/>
<path d="M0 0 C2.97717008 1.98478006 4.62826444 3.36831119 5.44140625 6.9375 C5.66684799 10.77728188 5.23190202 12.63668683 3.125 15.9375 C0.59545149 18.39265003 -0.30574285 18.93828825 -3.8125 19.25 C-7.39154719 18.96929042 -9.14250017 18.12271416 -12 16 C-13.59453633 12.81092735 -13.38561702 9.47055318 -13 6 C-10.15871241 -0.07002348 -6.52996241 -1.07376055 0 0 Z M-6 5 C-6.66 5.66 -7.32 6.32 -8 7 C-7.67673447 10.59679066 -7.67673447 10.59679066 -7 14 C-4.58354218 14.16687448 -4.58354218 14.16687448 -2 14 C-1.34 13.34 -0.68 12.68 0 12 C-0.32198966 8.90073181 -0.32198966 8.90073181 -1 6 C-3.39719432 5.32041397 -3.39719432 5.32041397 -6 5 Z " fill="#E6AF4C" transform="translate(209,53)"/>
<path d="M0 0 C4.62 0 9.24 0 14 0 C14 1.65 14 3.3 14 5 C11.03 5 8.06 5 5 5 C5 5.66 5 6.32 5 7 C7.97 7 10.94 7 14 7 C13.67 8.65 13.34 10.3 13 12 C10.36 12.33 7.72 12.66 5 13 C7.64 13.33 10.28 13.66 13 14 C13 15.65 13 17.3 13 19 C8.38 19 3.76 19 -1 19 C-1.08084859 12.53211242 -0.96509044 6.39372417 0 0 Z M1 10 C5 11 5 11 5 11 Z " fill="#E6B04B" transform="translate(78,53)"/>
<path d="M0 0 C1.65 0 3.3 0 5 0 C5 2.31 5 4.62 5 7 C8.465 6.505 8.465 6.505 12 6 C12 4.02 12 2.04 12 0 C13.65 0 15.3 0 17 0 C17 6.27 17 12.54 17 19 C14.525 18.01 14.525 18.01 12 17 C12 15.35 12 13.7 12 12 C9.69 12 7.38 12 5 12 C5 14.31 5 16.62 5 19 C3.35 19 1.7 19 0 19 C0 12.73 0 6.46 0 0 Z " fill="#E6B04B" transform="translate(111,53)"/>
<path d="M0 0 C3.63 0 7.26 0 11 0 C11 3.3 11 6.6 11 10 C1.1 10 -8.8 10 -19 10 C-19 8.35 -19 6.7 -19 5 C-12.73 5 -6.46 5 0 5 C0 3.35 0 1.7 0 0 Z " fill="#A3C88C" transform="translate(109,33)"/>
<path d="M0 0 C0.66 0 1.32 0 2 0 C3.01428514 2.03460769 4.01086789 4.07804606 5 6.125 C5.556875 7.26195312 6.11375 8.39890625 6.6875 9.5703125 C8.00504969 13.01319533 8.26577282 15.35669762 8 19 C4.16275828 19.90413673 0.62497726 20.10576898 -3.3125 20.0625 C-4.38113281 20.05347656 -5.44976562 20.04445313 -6.55078125 20.03515625 C-7.35902344 20.02355469 -8.16726563 20.01195313 -9 20 C-7.71200424 14.89355216 -5.95593157 10.69861783 -3.375 6.0625 C-2.42753906 4.34740234 -2.42753906 4.34740234 -1.4609375 2.59765625 C-0.97882813 1.74042969 -0.49671875 0.88320313 0 0 Z M0 11 C-0.33 11.66 -0.66 12.32 -1 13 C-0.01 12.67 0.98 12.34 2 12 C1.34 11.67 0.68 11.34 0 11 Z " fill="#E6B14B" transform="translate(272,52)"/>
<path d="M0 0 C4.03065635 3.64953412 6.61168755 8.72025328 7.25390625 14.14453125 C7.25 16.0625 7.25 16.0625 7 19 C3.39006828 20.13480527 0.0157673 20.10015767 -3.75 20.0625 C-4.92046875 20.05347656 -6.0909375 20.04445313 -7.296875 20.03515625 C-8.18890625 20.02355469 -9.0809375 20.01195313 -10 20 C-9.01 17.36 -8.02 14.72 -7 12 C-6.34 12 -5.68 12 -5 12 C-4.9175 11.319375 -4.835 10.63875 -4.75 9.9375 C-3.77667472 6.1253093 -2.04192545 3.35929671 0 0 Z M0 11 C-0.33 11.66 -0.66 12.32 -1 13 C-0.34 13 0.32 13 1 13 C0.67 12.34 0.34 11.68 0 11 Z " fill="#E6B04B" transform="translate(152,52)"/>
<path d="M0 0 C0.680625 -0.00515625 1.36125 -0.0103125 2.0625 -0.015625 C4 0.25 4 0.25 7 2.25 C6.34 3.57 5.68 4.89 5 6.25 C2.69 6.25 0.38 6.25 -2 6.25 C-2.66 8.56 -3.32 10.87 -4 13.25 C-2.081875 13.188125 -2.081875 13.188125 -0.125 13.125 C2.0546875 13.0546875 2.0546875 13.0546875 4 13.25 C6 15.25 6 15.25 6 18.25 C2.78844722 19.85577639 -0.516359 19.72382856 -4 19.25 C-7.45152051 17.34064823 -8.67861815 16.15388647 -10 12.4375 C-10 8.37621419 -8.91547193 5.80730501 -7 2.25 C-4.00261059 0.25174039 -3.36652492 -0.02550398 0 0 Z " fill="#E6B14B" transform="translate(103,52.75)"/>
<path d="M0 0 C0.680625 -0.00515625 1.36125 -0.0103125 2.0625 -0.015625 C4 0.25 4 0.25 7 2.25 C6.34 3.57 5.68 4.89 5 6.25 C2.69 6.25 0.38 6.25 -2 6.25 C-2.66 8.56 -3.32 10.87 -4 13.25 C-2.081875 13.188125 -2.081875 13.188125 -0.125 13.125 C2.0546875 13.0546875 2.0546875 13.0546875 4 13.25 C6 15.25 6 15.25 6 18.25 C2.78844722 19.85577639 -0.516359 19.72382856 -4 19.25 C-7.45152051 17.34064823 -8.67861815 16.15388647 -10 12.4375 C-10 8.37621419 -8.91547193 5.80730501 -7 2.25 C-4.00261059 0.25174039 -3.36652492 -0.02550398 0 0 Z " fill="#E6B14B" transform="translate(170,52.75)"/>
<path d="M0 0 C5.67276511 -0.29341888 8.99067246 -0.00559652 14 3 C13.67 3.99 13.34 4.98 13 6 C11.02 5.34 9.04 4.68 7 4 C7 6.97 7 9.94 7 13 C7.70125 12.773125 8.4025 12.54625 9.125 12.3125 C12.87700275 11.90467361 14.79431057 13.13622707 18 15 C17.67 15.99 17.34 16.98 17 18 C11.06029208 19.26376764 6.87498987 18.53653581 1 17 C1.33 12.71 1.66 8.42 2 4 C0.68 4 -0.64 4 -2 4 C-1.34 2.68 -0.68 1.36 0 0 Z " fill="#E4B554" transform="translate(215,7)"/>
<path d="M0 0 C1.60294922 0.01353516 1.60294922 0.01353516 3.23828125 0.02734375 C4.04652344 0.03894531 4.85476562 0.05054688 5.6875 0.0625 C5.3575 1.7125 5.0275 3.3625 4.6875 5.0625 C3.3675 5.0625 2.0475 5.0625 0.6875 5.0625 C0.3575 9.6825 0.0275 14.3025 -0.3125 19.0625 C-1.9625 19.0625 -3.6125 19.0625 -5.3125 19.0625 C-5.3125 14.7725 -5.3125 10.4825 -5.3125 6.0625 C-7.2925 6.0625 -9.2725 6.0625 -11.3125 6.0625 C-11.3125 4.4125 -11.3125 2.7625 -11.3125 1.0625 C-7.47525828 0.15836327 -3.93747726 -0.04326898 0 0 Z M-2.3125 2.0625 C-2.3125 4.0425 -2.3125 6.0225 -2.3125 8.0625 C-1.9825 8.0625 -1.6525 8.0625 -1.3125 8.0625 C-1.3125 6.0825 -1.3125 4.1025 -1.3125 2.0625 C-1.6425 2.0625 -1.9725 2.0625 -2.3125 2.0625 Z " fill="#E6B04C" transform="translate(70.3125,52.9375)"/>
<path d="M0 0 C3.63 0 7.26 0 11 0 C11 6.27 11 12.54 11 19 C9.68 19.33 8.36 19.66 7 20 C7 16.04 7 12.08 7 8 C4.69 8 2.38 8 0 8 C0 5.36 0 2.72 0 0 Z " fill="#E1B452" transform="translate(178,0)"/>
<path d="M0 0 C3.3 0 6.6 0 10 0 C10.33 1.32 10.66 2.64 11 4 C11 2.68 11 1.36 11 0 C12.98 0 14.96 0 17 0 C17 2.31 17 4.62 17 7 C11.39 7 5.78 7 0 7 C0 4.69 0 2.38 0 0 Z " fill="#E6B04B" transform="translate(339,60)"/>
<path d="M0 0 C2.58361518 -0.05407567 5.16609255 -0.093707 7.75 -0.125 C8.84441406 -0.15013672 8.84441406 -0.15013672 9.9609375 -0.17578125 C13.8044624 -0.21072239 16.74606772 -0.17499684 20 2 C20 3.32 20 4.64 20 6 C19.01 6.33 18.02 6.66 17 7 C16.67 7.66 16.34 8.32 16 9 C15.01 8.67 14.02 8.34 13 8 C13.33 6.68 13.66 5.36 14 4 C11.525 3.01 11.525 3.01 9 2 C9 3.32 9 4.64 9 6 C6.36 6 3.72 6 1 6 C0.67 4.02 0.34 2.04 0 0 Z " fill="#DBBF5E" transform="translate(213,0)"/>
<path d="M0 0 C3.63 0 7.26 0 11 0 C11 2.31 11 4.62 11 7 C8.36 7 5.72 7 3 7 C3 5.68 3 4.36 3 3 C2.01 3 1.02 3 0 3 C0 2.01 0 1.02 0 0 Z " fill="#E6B04C" transform="translate(45,60)"/>
<path d="M0 0 C5.67276511 -0.29341888 8.99067246 -0.00559652 14 3 C13.67 3.99 13.34 4.98 13 6 C11.02 5.34 9.04 4.68 7 4 C6.67 4.66 6.34 5.32 6 6 C5.01 6 4.02 6 3 6 C2.67 5.34 2.34 4.68 2 4 C0.68 4 -0.64 4 -2 4 C-1.34 2.68 -0.68 1.36 0 0 Z " fill="#E3BE5C" transform="translate(215,7)"/>
<path d="M0 0 C0.99 0 1.98 0 3 0 C3.2475 0.5775 3.495 1.155 3.75 1.75 C5.16683317 4.3002997 6.87627537 6.01785701 9 8 C8.01 9.485 8.01 9.485 7 11 C4.39376858 10.64780657 2.39210885 10.23526531 0.125 8.875 C-1.67626472 5.87289213 -0.68453372 3.29820792 0 0 Z " fill="#F5B230" transform="translate(200,26)"/>
<path d="M0 0 C1.98 0 3.96 0 6 0 C6 1.32 6 2.64 6 4 C6.99 4 7.98 4 9 4 C9 4.99 9 5.98 9 7 C6.03 7 3.06 7 0 7 C0 4.69 0 2.38 0 0 Z " fill="#E6B04C" transform="translate(38,60)"/>
<path d="M0 0 C3.94727588 -0.17942163 6.5980513 -0.09350689 10 2 C10 3.32 10 4.64 10 6 C9.01 6.33 8.02 6.66 7 7 C6.67 7.66 6.34 8.32 6 9 C5.01 8.67 4.02 8.34 3 8 C3.33 6.68 3.66 5.36 4 4 C2.68 3.34 1.36 2.68 0 2 C0 1.34 0 0.68 0 0 Z " fill="#D4C166" transform="translate(223,0)"/>
<path d="M0 0 C1.65 0 3.3 0 5 0 C5.25 2.75 5.25 2.75 5 6 C3 8.375 3 8.375 1 10 C0.67 6.7 0.34 3.4 0 0 Z " fill="#6A9578" transform="translate(315,1)"/>
<path d="M0 0 C2.475 0.99 2.475 0.99 5 2 C4.67 3.65 4.34 5.3 4 7 C2.02 6.34 0.04 5.68 -2 5 C-1.34 3.35 -0.68 1.7 0 0 Z " fill="#F0A939" transform="translate(208,35)"/>
<path d="M0 0 C1.65 0 3.3 0 5 0 C5 1.65 5 3.3 5 5 C3.35 5 1.7 5 0 5 C0 3.35 0 1.7 0 0 Z " fill="#DAC065" transform="translate(235,20)"/>
<path d="M0 0 C3 3.75 3 3.75 3 6 C1.35 6.66 -0.3 7.32 -2 8 C-2.33 6.35 -2.66 4.7 -3 3 C-2.34 3 -1.68 3 -1 3 C-0.67 2.01 -0.34 1.02 0 0 Z " fill="#E3BA61" transform="translate(210,2)"/>
<path d="M0 0 C1.65 0 3.3 0 5 0 C5 1.65 5 3.3 5 5 C3.35 5 1.7 5 0 5 C0 3.35 0 1.7 0 0 Z " fill="#EFA53C" transform="translate(198,20)"/>
<path d="M0 0 C1.98 0.495 1.98 0.495 4 1 C3.67 2.65 3.34 4.3 3 6 C1.68 5.34 0.36 4.68 -1 4 C-0.67 2.68 -0.34 1.36 0 0 Z " fill="#E1C266" transform="translate(234,29)"/>
<path d="M0 0 C0 0.66 0 1.32 0 2 C-1.98 2.99 -1.98 2.99 -4 4 C-4.66 2.68 -5.32 1.36 -6 0 C-3.50907189 -1.24546405 -2.58919267 -0.7767578 0 0 Z " fill="#D7C165" transform="translate(238,12)"/>
<path d="M0 0 C1.32 0 2.64 0 4 0 C4.33 1.32 4.66 2.64 5 4 C3.35 4 1.7 4 0 4 C0 2.68 0 1.36 0 0 Z " fill="#EAB243" transform="translate(217,39)"/>
<path d="M0 0 C0.33 0.66 0.66 1.32 1 2 C1.99 2 2.98 2 4 2 C3.67 3.32 3.34 4.64 3 6 C2.34 6 1.68 6 1 6 C1 5.34 1 4.68 1 4 C0.01 3.67 -0.98 3.34 -2 3 C-1.34 2.01 -0.68 1.02 0 0 Z " fill="#EBB246" transform="translate(202,10)"/>
<path d="M0 0 C1.98 0.99 1.98 0.99 4 2 C3.34 3.32 2.68 4.64 2 6 C1.34 6 0.68 6 0 6 C0 4.02 0 2.04 0 0 Z " fill="#E9C655" transform="translate(227,36)"/>
<path d="M0 0 C0.99 0 1.98 0 3 0 C3 0.66 3 1.32 3 2 C2.01 2 1.02 2 0 2 C0 1.34 0 0.68 0 0 Z " fill="#F79C2A" transform="translate(213,40)"/>
<path d="M0 0 C0.99 0 1.98 0 3 0 C3 0.66 3 1.32 3 2 C2.01 2 1.02 2 0 2 C0 1.34 0 0.68 0 0 Z " fill="#EBBF79" transform="translate(231,35)"/>
<path d="M0 0 C0.99 0.33 1.98 0.66 3 1 C2.34 1.66 1.68 2.32 1 3 C0.67 2.01 0.34 1.02 0 0 Z " fill="#ECDC56" transform="translate(236,26)"/>
<path d="M0 0 C0.66 0 1.32 0 2 0 C1.67 0.99 1.34 1.98 1 3 C0.34 2.34 -0.32 1.68 -1 1 C-0.67 0.67 -0.34 0.34 0 0 Z " fill="#D4C768" transform="translate(232,8)"/>
<path d="M0 0 C0.99 0.33 1.98 0.66 3 1 C2.34 1.66 1.68 2.32 1 3 C0.67 2.01 0.34 1.02 0 0 Z " fill="#DDD068" transform="translate(223,3)"/>
<path d="M0 0 C0.66 0.66 1.32 1.32 2 2 C1.01 2 0.02 2 -1 2 C-0.67 1.34 -0.34 0.68 0 0 Z " fill="#E2AC2A" transform="translate(201,16)"/>
<path d="M0 0 C0.66 0 1.32 0 2 0 C2 0.66 2 1.32 2 2 C1.34 2 0.68 2 0 2 C0 1.34 0 0.68 0 0 Z " fill="#EBAA55" transform="translate(223,40)"/>
<path d="M0 0 C0.66 0 1.32 0 2 0 C2 0.66 2 1.32 2 2 C1.34 2 0.68 2 0 2 C0 1.34 0 0.68 0 0 Z " fill="#D9BF67" transform="translate(236,17)"/>
<path d="M0 0 C0.66 0 1.32 0 2 0 C2 0.66 2 1.32 2 2 C1.34 2 0.68 2 0 2 C0 1.34 0 0.68 0 0 Z " fill="#E7B452" transform="translate(205,8)"/>
</svg>
