<svg width="484" height="37" viewBox="0 0 484 37" fill="none" xmlns="http://www.w3.org/2000/svg">
<path d="M0.9325 4.616L8.4205 0.199997H21.6685V7.432H9.2525V29.512H21.4125V37H8.4205L0.9325 32.648V4.616ZM36.9645 25.096V29.512H24.8045V37H37.7965L45.2845 32.648V25.096H36.9645ZM45.2845 11.912V4.616L37.7965 0.199997H24.5485V7.432H36.9645V11.912H45.2845ZM55.495 4.616L62.983 0.199997H76.231V7.432H63.559V29.512H75.975V37H62.983L55.495 32.648V4.616ZM99.591 4.616L92.359 0.199997H79.111V7.432H91.527V29.512H79.111V37H92.359L99.591 32.648V4.616ZM111.088 0.199997H118.384L131.568 12.616V22.28L119.152 10.312V37H111.088V0.199997ZM147.12 26.632V0.199997H155.184V37H147.632L134.448 24.328V14.984L147.12 26.632ZM207.579 7.432H189.147V37H180.315V7.432H163.483V0.199997H207.579V7.432ZM213.87 4.616V37H221.934V22.28H234.35V14.984H221.934V7.432H234.35V0.199997H221.166L213.87 4.616ZM257.966 4.616V37H249.902V22.28H237.23V14.984H249.902V7.432H237.23V0.199997H250.414L257.966 4.616ZM264.245 4.616L271.733 0.199997H284.981V7.432H272.565V29.512H284.725V37H271.733L264.245 32.648V4.616ZM300.277 25.096V29.512H288.117V37H301.109L308.597 32.648V25.096H300.277ZM308.597 11.912V4.616L301.109 0.199997H287.861V7.432H300.277V11.912H308.597ZM359.704 7.432H341.272V37H332.44V7.432H315.608V0.199997H359.704V7.432ZM385.933 0.199997V32.648L393.229 37H406.413V29.512H393.997V0.199997H385.933ZM430.029 0.199997V32.648L422.797 37H409.549V29.512H421.965V0.199997H430.029ZM439.605 4.616V18.12L446.901 22.472H460.085V14.984H447.413V7.752H460.085V0.199997H446.901L439.605 4.616ZM483.701 19.4V32.648L476.149 37H463.221V29.768H475.637V22.472H462.965V14.984H476.149L483.701 19.4ZM447.669 25.352H439.605V32.648L447.093 37H460.085V29.768H447.669V25.352ZM483.701 12.104H475.637V7.752H462.965V0.199997H476.149L483.701 4.616V12.104Z" fill="#CFC36D"/>
</svg>
