<?xml version="1.0" encoding="UTF-8"?>
<svg version="1.1" xmlns="http://www.w3.org/2000/svg" width="280" height="241">
<path d="M0 0 C2.82323495 -0.00217805 5.64607235 -0.02038725 8.46923828 -0.03930664 C25.4629407 -0.09319768 42.31746804 0.947908 58.97314453 4.49780273 C60.01680176 4.71436523 61.06045898 4.93092773 62.13574219 5.15405273 C74.99413032 7.89232157 87.4693656 11.15494611 99.22314453 17.18530273 C100.13451172 17.63647461 101.04587891 18.08764648 101.98486328 18.55249023 C111.08285092 23.24740715 120.64281521 29.19622537 125.44580078 38.57202148 C127.22321345 44.54734348 127.48494853 51.82744417 125.27783203 57.70092773 C124.06040393 59.70700423 122.77706357 61.42963177 121.22314453 63.18530273 C120.07845703 64.48467773 120.07845703 64.48467773 118.91064453 65.81030273 C111.07344499 72.73620001 102.68292621 77.71548107 93.09814453 81.81030273 C92.40849609 82.10936523 91.71884766 82.40842773 91.00830078 82.71655273 C88.15725465 83.94855355 85.32693191 85.14758804 82.40673828 86.20874023 C78.89615006 87.77877074 77.47004601 90.10383784 75.22314453 93.18530273 C75.22314453 93.84530273 75.22314453 94.50530273 75.22314453 95.18530273 C76.35494141 95.75120117 77.48673828 96.31709961 78.65283203 96.90014648 C83.50960286 99.3285319 88.3663737 101.75691732 93.22314453 104.18530273 C93.22314453 105.17530273 93.22314453 106.16530273 93.22314453 107.18530273 C92.62703369 107.30010986 92.03092285 107.41491699 91.41674805 107.53320312 C78.1793559 110.11263594 65.18780088 113.13129136 52.2487793 116.94921875 C51.25547607 117.23982178 50.26217285 117.5304248 49.23876953 117.82983398 C48.36510742 118.09127197 47.49144531 118.35270996 46.59130859 118.62207031 C44.22314453 119.18530273 44.22314453 119.18530273 40.22314453 119.18530273 C39.89314453 117.20530273 39.56314453 115.22530273 39.22314453 113.18530273 C38.28212891 113.50370117 37.34111328 113.82209961 36.37158203 114.15014648 C19.8210661 118.82025952 2.49915806 114.13646762 -13.27929688 108.94140625 C-17.08478588 107.78934374 -20.79838766 107.09464643 -24.76513672 106.86889648 C-25.47089844 106.82700195 -26.17666016 106.78510742 -26.90380859 106.74194336 C-27.62503906 106.70262695 -28.34626953 106.66331055 -29.08935547 106.62280273 C-30.20020508 106.55802734 -30.20020508 106.55802734 -31.33349609 106.49194336 C-33.14777011 106.38659842 -34.96229097 106.28551958 -36.77685547 106.18530273 C-36.77685547 108.16530273 -36.77685547 110.14530273 -36.77685547 112.18530273 C-37.49228516 112.35545898 -38.20771484 112.52561523 -38.94482422 112.70092773 C-55.44228585 116.71324699 -69.33991517 121.75990284 -83.28076172 131.64624023 C-85.77685547 133.18530273 -85.77685547 133.18530273 -88.77685547 133.18530273 C-88.22347047 129.49177961 -87.31063083 127.09644134 -85.15185547 124.06030273 C-82.65180759 120.46193285 -80.24615393 116.82507896 -77.90185547 113.12280273 C-77.30630859 112.18307617 -76.71076172 111.24334961 -76.09716797 110.27514648 C-75.66146484 109.58549805 -75.22576172 108.89584961 -74.77685547 108.18530273 C-78.71893013 106.79329418 -82.53211527 105.76367301 -86.65185547 105.06030273 C-87.61865234 104.89272461 -88.58544922 104.72514648 -89.58154297 104.55249023 C-90.66822266 104.37073242 -90.66822266 104.37073242 -91.77685547 104.18530273 C-91.48852539 102.3125 -91.48852539 102.3125 -90.77685547 100.18530273 C-88.21600263 98.64642807 -85.78829599 97.36350259 -83.08935547 96.12280273 C-82.38101563 95.78442383 -81.67267578 95.44604492 -80.94287109 95.09741211 C-79.54975377 94.43236903 -78.15412487 93.77255786 -76.75585938 93.1184082 C-74.0729136 91.85339232 -71.42393517 90.52343279 -68.77685547 89.18530273 C-71.72567155 87.21942535 -74.04492712 86.35988498 -77.40185547 85.31030273 C-92.59364885 80.34971714 -110.8313559 72.76265908 -118.76904297 58.02124023 C-121.07052727 51.54497046 -121.05794219 44.87421509 -118.80419922 38.38452148 C-110.03942838 21.95377032 -89.95463601 14.79600309 -73.22607422 9.50952148 C-71.74473337 9.0623369 -70.26154234 8.62124957 -68.77685547 8.18530273 C-67.50140869 7.80970215 -67.50140869 7.80970215 -66.20019531 7.42651367 C-59.53263122 5.53170993 -52.86432072 4.17899796 -46.02685547 3.06030273 C-45.05748047 2.89143555 -44.08810547 2.72256836 -43.08935547 2.54858398 C-28.78995316 0.1715891 -14.4559312 -0.00124128 0 0 Z " fill="#FCF5F5" transform="translate(136.77685546875,61.814697265625)"/>
<path d="M0 0 C10.48691394 9.31466072 10.48691394 9.31466072 11.40625 15.91796875 C11.60184513 22.73934908 11.23586263 27.5082212 6.93359375 32.953125 C0.78338466 39.46364937 -5.91444031 43.71478381 -13.9375 47.5625 C-15.05668823 48.10112671 -15.05668823 48.10112671 -16.19848633 48.65063477 C-21.61902903 51.12699032 -21.61902903 51.12699032 -25 50 C-22.51484797 47.06836303 -20.00683578 46.0716315 -16.4375 44.75 C-7.54098201 41.15696855 0.56395674 36.10391689 6 28 C7.82784993 22.51645022 8.31337708 16.08358096 6.01171875 10.6796875 C-0.59458375 1.18894306 -11.6506956 -3.70969945 -22 -8 C-23.03382813 -8.43183594 -24.06765625 -8.86367187 -25.1328125 -9.30859375 C-36.08079276 -13.54269214 -47.47600796 -15.91495201 -59 -18 C-60.38904541 -18.25209229 -60.38904541 -18.25209229 -61.80615234 -18.50927734 C-99.33850152 -24.8981849 -142.40532069 -23.88198117 -179 -13 C-179.87269531 -12.76667969 -180.74539062 -12.53335938 -181.64453125 -12.29296875 C-197.18629958 -7.99952386 -214.63076155 -1.64011747 -223.15234375 12.9765625 C-224.70121133 16.6738593 -224.70456619 20.08085056 -224 24 C-218.28837804 36.57816749 -206.10136952 43.12199281 -193.76660156 47.85742188 C-185.31978691 50.93480576 -176.89172855 53.56585023 -168 55 C-168 53.35 -168 51.7 -168 50 C-159.43133906 47.42184455 -151.67227074 46.60708763 -142.75 46.8125 C-141.61175781 46.82603516 -140.47351563 46.83957031 -139.30078125 46.85351562 C-136.53333013 46.88839946 -133.76693895 46.93740683 -131 47 C-130.67 47.99 -130.34 48.98 -130 50 C-129.10861328 50.12955078 -129.10861328 50.12955078 -128.19921875 50.26171875 C-122.17865012 51.28231281 -117.11767141 53.09192182 -111.640625 55.78125 C-97.08188721 62.50066744 -81.87606663 58.58954909 -67.11206055 54.57250977 C-65.08063292 54.02185692 -63.04347765 53.50385932 -61 53 C-61 54.32 -61 55.64 -61 57 C-53.50178367 57.5124304 -46.94962288 55.17565662 -39.83007812 53.04492188 C-38.88197266 52.77099609 -37.93386719 52.49707031 -36.95703125 52.21484375 C-36.10085205 51.95823975 -35.24467285 51.70163574 -34.36254883 51.43725586 C-31.85961213 50.97401729 -30.38618438 51.18691189 -28 52 C-28.86625 52.90363281 -29.7325 53.80726563 -30.625 54.73828125 C-31.75039006 55.92931906 -32.87536884 57.12074558 -34 58.3125 C-34.57234375 58.90740234 -35.1446875 59.50230469 -35.734375 60.11523438 C-36.27578125 60.69208984 -36.8171875 61.26894531 -37.375 61.86328125 C-37.87773437 62.39219971 -38.38046875 62.92111816 -38.8984375 63.46606445 C-40.29165151 65.09137882 -40.29165151 65.09137882 -40 68 C-35.05 70.64 -30.1 73.28 -25 76 C-28.48224312 77.74112156 -31.25842455 78.66919886 -35 79.5625 C-36.03125 79.81128906 -37.0625 80.06007813 -38.125 80.31640625 C-39.84373166 80.72507207 -41.57199889 81.09952008 -43.3125 81.40234375 C-43.869375 81.59957031 -44.42625 81.79679687 -45 82 C-45.33 82.99 -45.66 83.98 -46 85 C-47.9777832 85.89135742 -47.9777832 85.89135742 -50.55078125 86.60546875 C-51.47697266 86.86650391 -52.40316406 87.12753906 -53.35742188 87.39648438 C-54.33259766 87.65751953 -55.30777344 87.91855469 -56.3125 88.1875 C-57.27607422 88.46013672 -58.23964844 88.73277344 -59.23242188 89.01367188 C-63.3504245 90.15232957 -66.69350987 91 -71 91 C-71.33 89.02 -71.66 87.04 -72 85 C-72.94101563 85.31839844 -73.88203125 85.63679688 -74.8515625 85.96484375 C-91.40207843 90.63495678 -108.72398647 85.95116489 -124.50244141 80.75610352 C-128.30793041 79.60404101 -132.0215322 78.9093437 -135.98828125 78.68359375 C-136.69404297 78.64169922 -137.39980469 78.59980469 -138.12695312 78.55664062 C-138.84818359 78.51732422 -139.56941406 78.47800781 -140.3125 78.4375 C-141.42334961 78.37272461 -141.42334961 78.37272461 -142.55664062 78.30664062 C-144.37091464 78.20129568 -146.1854355 78.10021684 -148 78 C-148 79.98 -148 81.96 -148 84 C-148.71542969 84.17015625 -149.43085938 84.3403125 -150.16796875 84.515625 C-166.66543039 88.52794426 -180.5630597 93.57460011 -194.50390625 103.4609375 C-197 105 -197 105 -200 105 C-199.446615 101.30647688 -198.53377536 98.91113861 -196.375 95.875 C-193.87495212 92.27663011 -191.46929846 88.63977623 -189.125 84.9375 C-188.52945313 83.99777344 -187.93390625 83.05804688 -187.3203125 82.08984375 C-186.88460937 81.40019531 -186.44890625 80.71054688 -186 80 C-189.94207466 78.60799144 -193.7552598 77.57837028 -197.875 76.875 C-198.84179688 76.70742187 -199.80859375 76.53984375 -200.8046875 76.3671875 C-201.89136719 76.18542969 -201.89136719 76.18542969 -203 76 C-202.71166992 74.12719727 -202.71166992 74.12719727 -202 72 C-199.43914716 70.46112534 -197.01144052 69.17819985 -194.3125 67.9375 C-193.60416016 67.59912109 -192.89582031 67.26074219 -192.16601562 66.91210938 C-190.7728983 66.24706629 -189.3772694 65.58725513 -187.97900391 64.93310547 C-185.29605813 63.66808959 -182.6470797 62.33813005 -180 61 C-182.94881608 59.03412261 -185.26807165 58.17458225 -188.625 57.125 C-203.84928889 52.15380363 -221.98945755 44.57157945 -230 29.84765625 C-232.15420572 23.71321888 -232.37432455 16.68248501 -230.0859375 10.55078125 C-229 8.625 -229 8.625 -227 6 C-226.443125 6.268125 -225.88625 6.53625 -225.3125 6.8125 C-224.1678125 6.9053125 -224.1678125 6.9053125 -223 7 C-220.91018576 5.14603141 -220.91018576 5.14603141 -219.50390625 3.58203125 C-203.86005303 -12.87448967 -177.55273832 -18.59461842 -156 -22 C-155.18837402 -22.13535156 -154.37674805 -22.27070312 -153.54052734 -22.41015625 C-107.86776582 -29.78557219 -38.01539011 -30.25974196 0 0 Z " fill="#E3252B" transform="translate(248,90)"/>
<path d="M0 0 C10.48691394 9.31466072 10.48691394 9.31466072 11.40625 15.91796875 C11.60184513 22.73934908 11.23586263 27.5082212 6.93359375 32.953125 C0.78338466 39.46364937 -5.91444031 43.71478381 -13.9375 47.5625 C-15.05668823 48.10112671 -15.05668823 48.10112671 -16.19848633 48.65063477 C-21.61902903 51.12699032 -21.61902903 51.12699032 -25 50 C-22.51484797 47.06836303 -20.00683578 46.0716315 -16.4375 44.75 C-7.54098201 41.15696855 0.56395674 36.10391689 6 28 C7.82784993 22.51645022 8.31337708 16.08358096 6.01171875 10.6796875 C-0.59458375 1.18894306 -11.6506956 -3.70969945 -22 -8 C-23.03382813 -8.43183594 -24.06765625 -8.86367187 -25.1328125 -9.30859375 C-36.08079276 -13.54269214 -47.47600796 -15.91495201 -59 -18 C-60.38904541 -18.25209229 -60.38904541 -18.25209229 -61.80615234 -18.50927734 C-99.33850152 -24.8981849 -142.40532069 -23.88198117 -179 -13 C-179.87269531 -12.76667969 -180.74539062 -12.53335938 -181.64453125 -12.29296875 C-197.18629958 -7.99952386 -214.63076155 -1.64011747 -223.15234375 12.9765625 C-224.70121133 16.6738593 -224.70456619 20.08085056 -224 24 C-218.28837804 36.57816749 -206.10136952 43.12199281 -193.76660156 47.85742188 C-185.31978691 50.93480576 -176.89172855 53.56585023 -168 55 C-168 53.35 -168 51.7 -168 50 C-159.43133906 47.42184455 -151.67227074 46.60708763 -142.75 46.8125 C-141.61175781 46.82603516 -140.47351563 46.83957031 -139.30078125 46.85351562 C-136.53333013 46.88839946 -133.76693895 46.93740683 -131 47 C-130.67 47.66 -130.34 48.32 -130 49 C-130.70495605 48.98428955 -131.40991211 48.9685791 -132.13623047 48.95239258 C-135.38240279 48.88938334 -138.6284458 48.85080204 -141.875 48.8125 C-142.98359375 48.78736328 -144.0921875 48.76222656 -145.234375 48.73632812 C-152.35427541 48.67350547 -158.32474802 49.48757489 -165 52 C-164.95875 53.05960937 -164.9175 54.11921875 -164.875 55.2109375 C-166 59 -166 59 -167.90625 60.34082031 C-170.56847831 61.56557171 -173.24749879 62.61935003 -176 63.625 C-177.85606114 64.34146556 -179.71025291 65.06279354 -181.5625 65.7890625 C-182.46742188 66.14129883 -183.37234375 66.49353516 -184.3046875 66.85644531 C-188.39918928 68.59364154 -192.16144021 70.75821815 -196 73 C-191.05 74.32 -186.1 75.64 -181 77 C-182.37007483 80.42518707 -183.47098814 82.9734813 -185.3828125 85.98828125 C-186.04990234 87.04692383 -186.04990234 87.04692383 -186.73046875 88.12695312 C-187.19066406 88.84818359 -187.65085938 89.56941406 -188.125 90.3125 C-188.59292969 91.05306641 -189.06085938 91.79363281 -189.54296875 92.55664062 C-190.69164196 94.37341968 -191.84532369 96.18703037 -193 98 C-192.06800781 97.40832031 -191.13601562 96.81664062 -190.17578125 96.20703125 C-177.93036406 88.56052041 -166.52085036 83.59230274 -152 82 C-151.67 79.69 -151.34 77.38 -151 75 C-137.83946084 74.56507398 -125.42671254 75.12174346 -113.06713867 80.26245117 C-105.13776717 83.09162695 -96.58334934 83.38582077 -88.25 83.375 C-87.20956543 83.37628906 -86.16913086 83.37757813 -85.09716797 83.37890625 C-76.46335661 83.26120286 -69.16132541 81.71236928 -61 79 C-60.34 79 -59.68 79 -59 79 C-59.66 71.74 -60.32 64.48 -61 57 C-58.69 57 -56.38 57 -54 57 C-51.25373149 56.47634372 -51.25373149 56.47634372 -48.64453125 55.65234375 C-47.69255859 55.37712891 -46.74058594 55.10191406 -45.75976562 54.81835938 C-43.78309229 54.22758424 -41.80653104 53.63643398 -39.83007812 53.04492188 C-38.88197266 52.77099609 -37.93386719 52.49707031 -36.95703125 52.21484375 C-36.10085205 51.95823975 -35.24467285 51.70163574 -34.36254883 51.43725586 C-31.85961213 50.97401729 -30.38618438 51.18691189 -28 52 C-28.86625 52.90363281 -29.7325 53.80726563 -30.625 54.73828125 C-31.75039006 55.92931906 -32.87536884 57.12074558 -34 58.3125 C-34.57234375 58.90740234 -35.1446875 59.50230469 -35.734375 60.11523438 C-36.27578125 60.69208984 -36.8171875 61.26894531 -37.375 61.86328125 C-37.87773437 62.39219971 -38.38046875 62.92111816 -38.8984375 63.46606445 C-40.29165151 65.09137882 -40.29165151 65.09137882 -40 68 C-35.05 70.64 -30.1 73.28 -25 76 C-28.48224312 77.74112156 -31.25842455 78.66919886 -35 79.5625 C-36.03125 79.81128906 -37.0625 80.06007813 -38.125 80.31640625 C-39.84373166 80.72507207 -41.57199889 81.09952008 -43.3125 81.40234375 C-43.869375 81.59957031 -44.42625 81.79679687 -45 82 C-45.33 82.99 -45.66 83.98 -46 85 C-47.9777832 85.89135742 -47.9777832 85.89135742 -50.55078125 86.60546875 C-51.47697266 86.86650391 -52.40316406 87.12753906 -53.35742188 87.39648438 C-54.33259766 87.65751953 -55.30777344 87.91855469 -56.3125 88.1875 C-57.27607422 88.46013672 -58.23964844 88.73277344 -59.23242188 89.01367188 C-63.3504245 90.15232957 -66.69350987 91 -71 91 C-71.33 89.02 -71.66 87.04 -72 85 C-72.94101563 85.31839844 -73.88203125 85.63679688 -74.8515625 85.96484375 C-91.40207843 90.63495678 -108.72398647 85.95116489 -124.50244141 80.75610352 C-128.30793041 79.60404101 -132.0215322 78.9093437 -135.98828125 78.68359375 C-136.69404297 78.64169922 -137.39980469 78.59980469 -138.12695312 78.55664062 C-138.84818359 78.51732422 -139.56941406 78.47800781 -140.3125 78.4375 C-141.42334961 78.37272461 -141.42334961 78.37272461 -142.55664062 78.30664062 C-144.37091464 78.20129568 -146.1854355 78.10021684 -148 78 C-148 79.98 -148 81.96 -148 84 C-148.71542969 84.17015625 -149.43085938 84.3403125 -150.16796875 84.515625 C-166.66543039 88.52794426 -180.5630597 93.57460011 -194.50390625 103.4609375 C-197 105 -197 105 -200 105 C-199.446615 101.30647688 -198.53377536 98.91113861 -196.375 95.875 C-193.87495212 92.27663011 -191.46929846 88.63977623 -189.125 84.9375 C-188.52945313 83.99777344 -187.93390625 83.05804688 -187.3203125 82.08984375 C-186.88460937 81.40019531 -186.44890625 80.71054688 -186 80 C-189.94207466 78.60799144 -193.7552598 77.57837028 -197.875 76.875 C-198.84179688 76.70742187 -199.80859375 76.53984375 -200.8046875 76.3671875 C-201.89136719 76.18542969 -201.89136719 76.18542969 -203 76 C-202.71166992 74.12719727 -202.71166992 74.12719727 -202 72 C-199.43914716 70.46112534 -197.01144052 69.17819985 -194.3125 67.9375 C-193.60416016 67.59912109 -192.89582031 67.26074219 -192.16601562 66.91210938 C-190.7728983 66.24706629 -189.3772694 65.58725513 -187.97900391 64.93310547 C-185.29605813 63.66808959 -182.6470797 62.33813005 -180 61 C-182.94881608 59.03412261 -185.26807165 58.17458225 -188.625 57.125 C-203.84928889 52.15380363 -221.98945755 44.57157945 -230 29.84765625 C-232.15420572 23.71321888 -232.37432455 16.68248501 -230.0859375 10.55078125 C-229 8.625 -229 8.625 -227 6 C-226.443125 6.268125 -225.88625 6.53625 -225.3125 6.8125 C-224.1678125 6.9053125 -224.1678125 6.9053125 -223 7 C-220.91018576 5.14603141 -220.91018576 5.14603141 -219.50390625 3.58203125 C-203.86005303 -12.87448967 -177.55273832 -18.59461842 -156 -22 C-155.18837402 -22.13535156 -154.37674805 -22.27070312 -153.54052734 -22.41015625 C-107.86776582 -29.78557219 -38.01539011 -30.25974196 0 0 Z " fill="#ADA6A6" transform="translate(248,90)"/>
<path d="M0 0 C2.82323495 -0.00217805 5.64607235 -0.02038725 8.46923828 -0.03930664 C25.4629407 -0.09319768 42.31746804 0.947908 58.97314453 4.49780273 C60.01680176 4.71436523 61.06045898 4.93092773 62.13574219 5.15405273 C74.99413032 7.89232157 87.4693656 11.15494611 99.22314453 17.18530273 C100.13451172 17.63647461 101.04587891 18.08764648 101.98486328 18.55249023 C111.08285092 23.24740715 120.64281521 29.19622537 125.44580078 38.57202148 C127.22321345 44.54734348 127.48494853 51.82744417 125.27783203 57.70092773 C124.06040393 59.70700423 122.77706357 61.42963177 121.22314453 63.18530273 C120.07845703 64.48467773 120.07845703 64.48467773 118.91064453 65.81030273 C111.07344499 72.73620001 102.68292621 77.71548107 93.09814453 81.81030273 C92.40849609 82.10936523 91.71884766 82.40842773 91.00830078 82.71655273 C88.15725465 83.94855355 85.32693191 85.14758804 82.40673828 86.20874023 C78.89615006 87.77877074 77.47004601 90.10383784 75.22314453 93.18530273 C75.22314453 93.84530273 75.22314453 94.50530273 75.22314453 95.18530273 C76.35494141 95.75120117 77.48673828 96.31709961 78.65283203 96.90014648 C85.93798828 100.54272461 85.93798828 100.54272461 93.22314453 104.18530273 C93.22314453 105.17530273 93.22314453 106.16530273 93.22314453 107.18530273 C89.28666679 108.02351523 85.34880502 108.85503528 81.41064453 109.68530273 C80.29109375 109.9237793 79.17154297 110.16225586 78.01806641 110.40795898 C76.94492188 110.63354492 75.87177734 110.85913086 74.76611328 111.09155273 C73.77635498 111.30102539 72.78659668 111.51049805 71.7668457 111.72631836 C69.22314453 112.18530273 69.22314453 112.18530273 66.22314453 112.18530273 C66.22314453 111.52530273 66.22314453 110.86530273 66.22314453 110.18530273 C72.46681293 107.71139639 78.72586768 105.89083791 85.22314453 104.18530273 C80.27314453 101.54530273 75.32314453 98.90530273 70.22314453 96.18530273 C71.23972082 92.11899759 71.65169831 91.42178285 74.53564453 88.74780273 C77.35816121 86.0530543 79.86084115 83.3035432 82.22314453 80.18530273 C73.08217427 81.65715388 64.17819257 83.8706981 55.22314453 86.18530273 C56.56944754 83.49269671 58.24367871 83.30466662 60.9855957 82.38305664 C61.64148682 82.17342285 62.29737793 81.96378906 62.97314453 81.74780273 C63.6425708 81.53043457 64.31199707 81.31306641 65.00170898 81.08911133 C82.70740132 75.46089479 82.70740132 75.46089479 88.22314453 77.18530273 C97.32275822 77.18530273 109.95562234 68.39760446 116.22314453 62.18530273 C120.4641123 57.66294374 121.56093844 53.73972021 121.78564453 47.56030273 C121.53348157 42.20952775 121.02175389 39.16479825 117.22314453 35.18530273 C116.58634766 34.50209961 115.94955078 33.81889648 115.29345703 33.11499023 C86.36735913 4.38368087 33.21490824 3.84547272 -4.79101562 3.8684082 C-39.05516515 4.04860941 -81.19426233 8.43064504 -107.77685547 32.18530273 C-108.43685547 32.18530273 -109.09685547 32.18530273 -109.77685547 32.18530273 C-110.43685547 33.50530273 -111.09685547 34.82530273 -111.77685547 36.18530273 C-112.76685547 35.85530273 -113.75685547 35.52530273 -114.77685547 35.18530273 C-111.89480037 26.40261905 -103.11166708 22.05598942 -95.27685547 18.06030273 C-86.76295241 13.87109975 -77.86804654 10.85473834 -68.77685547 8.18530273 C-67.50140869 7.80970215 -67.50140869 7.80970215 -66.20019531 7.42651367 C-59.53263122 5.53170993 -52.86432072 4.17899796 -46.02685547 3.06030273 C-45.05748047 2.89143555 -44.08810547 2.72256836 -43.08935547 2.54858398 C-28.78995316 0.1715891 -14.4559312 -0.00124128 0 0 Z " fill="#BEADAC" transform="translate(136.77685546875,61.814697265625)"/>
<path d="M0 0 C10.48691394 9.31466072 10.48691394 9.31466072 11.40625 15.91796875 C11.60184513 22.73934908 11.23586263 27.5082212 6.93359375 32.953125 C0.78338466 39.46364937 -5.91444031 43.71478381 -13.9375 47.5625 C-15.05668823 48.10112671 -15.05668823 48.10112671 -16.19848633 48.65063477 C-21.61902903 51.12699032 -21.61902903 51.12699032 -25 50 C-22.51484797 47.06836303 -20.00683578 46.0716315 -16.4375 44.75 C-7.54098201 41.15696855 0.56395674 36.10391689 6 28 C7.82784993 22.51645022 8.31337708 16.08358096 6.01171875 10.6796875 C-0.59458375 1.18894306 -11.6506956 -3.70969945 -22 -8 C-23.03382813 -8.43183594 -24.06765625 -8.86367187 -25.1328125 -9.30859375 C-36.08079276 -13.54269214 -47.47600796 -15.91495201 -59 -18 C-60.38904541 -18.25209229 -60.38904541 -18.25209229 -61.80615234 -18.50927734 C-99.33850152 -24.8981849 -142.40532069 -23.88198117 -179 -13 C-179.87269531 -12.76667969 -180.74539062 -12.53335938 -181.64453125 -12.29296875 C-197.18629958 -7.99952386 -214.63076155 -1.64011747 -223.15234375 12.9765625 C-224.70121133 16.6738593 -224.70456619 20.08085056 -224 24 C-218.3026386 36.5467628 -206.1174795 43.1611061 -193.78271484 47.84130859 C-184.99429367 50.99693893 -176.05698937 53.725778 -167 56 C-167 56.66 -167 57.32 -167 58 C-173.72102983 57.45798147 -179.62971795 56.18579771 -186 54 C-187.24394531 53.57589844 -188.48789063 53.15179688 -189.76953125 52.71484375 C-203.69057671 47.81710137 -218.40280718 41.37105936 -226 28 C-228.00003269 21.99990194 -228.10549572 15.25193572 -225.3125 9.5625 C-224.1678125 8.2940625 -224.1678125 8.2940625 -223 7 C-222.278125 6.195625 -221.55625 5.39125 -220.8125 4.5625 C-219.884375 3.716875 -218.95625 2.87125 -218 2 C-217.43152344 1.47664063 -216.86304688 0.95328125 -216.27734375 0.4140625 C-200.05357552 -13.40271122 -176.53214328 -18.75587475 -156 -22 C-155.18837402 -22.13535156 -154.37674805 -22.27070312 -153.54052734 -22.41015625 C-107.86776582 -29.78557219 -38.01539011 -30.25974196 0 0 Z " fill="#E23439" transform="translate(248,90)"/>
<path d="M0 0 C0.50333542 2.60356241 1.00279378 5.20776651 1.5 7.8125 C1.64308594 8.55048828 1.78617188 9.28847656 1.93359375 10.04882812 C2.50926281 13.07794391 3 15.909196 3 19 C6.63 19.66 10.26 20.32 14 21 C13.67 21.66 13.34 22.32 13 23 C10.95398945 23.49128218 8.88581938 23.8910235 6.8125 24.25 C-3.85722688 26.41219516 -13.51518303 30.43782215 -22.328125 36.8984375 C-24 38 -24 38 -26 38 C-24.32508169 33.11963459 -21.63208039 29.00847052 -18.875 24.6875 C-18.40707031 23.94693359 -17.93914063 23.20636719 -17.45703125 22.44335938 C-16.30835804 20.62658032 -15.15467631 18.81296963 -14 17 C-14.60255615 16.94013916 -15.2051123 16.88027832 -15.82592773 16.81860352 C-17.02390991 16.69376587 -17.02390991 16.69376587 -18.24609375 16.56640625 C-19.0342749 16.48592041 -19.82245605 16.40543457 -20.63452148 16.32250977 C-23.89348172 15.87818254 -26.86984856 14.9989845 -30 14 C-26.33344503 9.53681191 -21.57280476 7.6509321 -16.4375 5.3125 C-15.57447266 4.90966797 -14.71144531 4.50683594 -13.82226562 4.09179688 C-5.00125628 0 -5.00125628 0 0 0 Z " fill="#E2242A" transform="translate(81,150)"/>
<path d="M0 0 C-1.299375 1.35544922 -1.299375 1.35544922 -2.625 2.73828125 C-3.75039006 3.92931906 -4.87536884 5.12074558 -6 6.3125 C-6.57234375 6.90740234 -7.1446875 7.50230469 -7.734375 8.11523438 C-8.27578125 8.69208984 -8.8171875 9.26894531 -9.375 9.86328125 C-10.12910156 10.65665894 -10.12910156 10.65665894 -10.8984375 11.46606445 C-12.29165151 13.09137882 -12.29165151 13.09137882 -12 16 C-7.05 18.64 -2.1 21.28 3 24 C0.0107122 25.4946439 -2.06789341 26.38758927 -5.203125 27.1484375 C-6.01168945 27.34735596 -6.82025391 27.54627441 -7.65332031 27.7512207 C-8.51022461 27.95706787 -9.36712891 28.16291504 -10.25 28.375 C-12.04168286 28.81373596 -13.83334928 29.25253905 -15.625 29.69140625 C-16.5221875 29.90941895 -17.419375 30.12743164 -18.34375 30.35205078 C-22.31693114 31.32124405 -26.28340581 32.31675937 -30.25 33.3125 C-31.56767185 33.64207298 -32.88537637 33.97151541 -34.203125 34.30078125 C-35.58757812 34.64689453 -35.58757812 34.64689453 -37 35 C-31.61607143 29.47321429 -31.61607143 29.47321429 -28 28 C-28.33 27.34 -28.66 26.68 -29 26 C-29.15067214 24.5534758 -29.24861036 23.1012066 -29.31640625 21.6484375 C-29.35830078 20.79765625 -29.40019531 19.946875 -29.44335938 19.0703125 C-29.48267578 18.18085938 -29.52199219 17.29140625 -29.5625 16.375 C-29.60568359 15.4778125 -29.64886719 14.580625 -29.69335938 13.65625 C-29.79956861 11.43765717 -29.90161194 9.2189512 -30 7 C-23.77808676 4.56815033 -17.49826839 2.46799168 -11.0625 0.6875 C-9.81597656 0.34074219 -8.56945312 -0.00601563 -7.28515625 -0.36328125 C-4.14998461 -0.97093045 -2.93068371 -0.88147758 0 0 Z " fill="#E22228" transform="translate(220,142)"/>
<path d="M0 0 C2.82323495 -0.00217805 5.64607235 -0.02038725 8.46923828 -0.03930664 C17.85649424 -0.06881347 27.14685846 0.19556016 36.49658203 1.07202148 C37.74358383 1.1886187 37.74358383 1.1886187 39.01577759 1.30757141 C44.83284932 1.91122289 50.5082702 2.95174983 56.22314453 4.18530273 C55.89314453 4.84530273 55.56314453 5.50530273 55.22314453 6.18530273 C48.05164922 6.40902356 41.07088077 6.22305116 33.9440918 5.46850586 C-8.28470351 1.07322524 -67.90879723 0.15237415 -102.93701172 27.89624023 C-104.55948487 29.31548779 -106.16950683 30.74894863 -107.77685547 32.18530273 C-108.43685547 32.18530273 -109.09685547 32.18530273 -109.77685547 32.18530273 C-110.43685547 33.50530273 -111.09685547 34.82530273 -111.77685547 36.18530273 C-112.76685547 35.85530273 -113.75685547 35.52530273 -114.77685547 35.18530273 C-111.89480037 26.40261905 -103.11166708 22.05598942 -95.27685547 18.06030273 C-86.76295241 13.87109975 -77.86804654 10.85473834 -68.77685547 8.18530273 C-67.50140869 7.80970215 -67.50140869 7.80970215 -66.20019531 7.42651367 C-59.53263122 5.53170993 -52.86432072 4.17899796 -46.02685547 3.06030273 C-45.05748047 2.89143555 -44.08810547 2.72256836 -43.08935547 2.54858398 C-28.78995316 0.1715891 -14.4559312 -0.00124128 0 0 Z " fill="#D3CACB" transform="translate(136.77685546875,61.814697265625)"/>
<path d="M0 0 C1.3213258 8.7419859 2.33165588 17.137418 2 26 C-0.70407915 26.87024374 -3.41187337 27.7213415 -6.125 28.5625 C-6.88554687 28.80935547 -7.64609375 29.05621094 -8.4296875 29.31054688 C-9.55117187 29.65375977 -9.55117187 29.65375977 -10.6953125 30.00390625 C-11.7164917 30.32597046 -11.7164917 30.32597046 -12.75830078 30.65454102 C-15 31 -15 31 -21 30 C-20.67 25.38 -20.34 20.76 -20 16 C-19.34 16 -18.68 16 -18 16 C-17.67 17.65 -17.34 19.3 -17 21 C-15.49440461 19.03617993 -14.10868317 17.21736634 -13 15 C-12.34 15 -11.68 15 -11 15 C-11 16.98 -11 18.96 -11 21 C-10.34 21 -9.68 21 -9 21 C-9 18.69 -9 16.38 -9 14 C-6.525 14.495 -6.525 14.495 -4 15 C-4 15.66 -4 16.32 -4 17 C-4.66 17 -5.32 17 -6 17 C-6 17.66 -6 18.32 -6 19 C-5.01 18.67 -4.02 18.34 -3 18 C-3.33 16.02 -3.66 14.04 -4 12 C-3.34 12 -2.68 12 -2 12 C-2 11.34 -2 10.68 -2 10 C-2.55429688 10.22816406 -3.10859375 10.45632812 -3.6796875 10.69140625 C-4.40414062 10.97886719 -5.12859375 11.26632813 -5.875 11.5625 C-6.59429687 11.85253906 -7.31359375 12.14257812 -8.0546875 12.44140625 C-10 13 -10 13 -12 12 C-12 12.66 -12 13.32 -12 14 C-17.75 15.125 -17.75 15.125 -20 14 C-20 12.68 -20 11.36 -20 10 C-19.34 9.67 -18.68 9.34 -18 9 C-20.31 8.34 -22.62 7.68 -25 7 C-25 6.67 -25 6.34 -25 6 C-24.37432129 5.85377197 -23.74864258 5.70754395 -23.10400391 5.55688477 C-20.27705709 4.89467208 -17.45102513 4.2286345 -14.625 3.5625 C-13.64015625 3.33240234 -12.6553125 3.10230469 -11.640625 2.86523438 C-10.69960937 2.64287109 -9.75859375 2.42050781 -8.7890625 2.19140625 C-7.91975098 1.98717041 -7.05043945 1.78293457 -6.15478516 1.57250977 C-0.23624733 0 -0.23624733 0 0 0 Z " fill="#E3272D" transform="translate(187,143)"/>
<path d="M0 0 C1.65 0.33 3.3 0.66 5 1 C4.34 1.33 3.68 1.66 3 2 C3.10248047 2.60473145 3.20496094 3.20946289 3.31054688 3.83251953 C3.75216993 6.59160711 4.1263936 9.35591731 4.5 12.125 C4.66242188 13.07632813 4.82484375 14.02765625 4.9921875 15.0078125 C5.35034821 17.87309816 5.5449242 20.15941371 5 23 C2.68001257 25.67005235 0.11566589 27.36040234 -3 29 C-1.49759766 28.58427734 -1.49759766 28.58427734 0.03515625 28.16015625 C1.37754409 27.79405048 2.71999543 27.42817749 4.0625 27.0625 C4.71927734 26.88009766 5.37605469 26.69769531 6.05273438 26.50976562 C10.3587782 25.34310351 14.57159654 24.54707195 19 24 C17.515 24.495 17.515 24.495 16 25 C15.505 26.485 15.505 26.485 15 28 C13.0222168 28.89135742 13.0222168 28.89135742 10.44921875 29.60546875 C9.05993164 29.99702148 9.05993164 29.99702148 7.64257812 30.39648438 C6.17981445 30.78803711 6.17981445 30.78803711 4.6875 31.1875 C3.72392578 31.46013672 2.76035156 31.73277344 1.76757812 32.01367188 C-2.3504245 33.15232957 -5.69350987 34 -10 34 C-10.495 31.03 -10.495 31.03 -11 28 C-11.94101563 28.31839844 -12.88203125 28.63679688 -13.8515625 28.96484375 C-29.39469531 33.3507002 -45.39394397 29.32510146 -60.3125 24.69140625 C-66.81537156 22.68030902 -73.21256358 21.59496312 -80 21 C-80 20.67 -80 20.34 -80 20 C-83.3 19.67 -86.6 19.34 -90 19 C-90 18.67 -90 18.34 -90 18 C-76.83946084 17.56507398 -64.42671254 18.12174346 -52.06713867 23.26245117 C-44.13776717 26.09162695 -35.58334934 26.38582077 -27.25 26.375 C-26.20956543 26.37628906 -25.16913086 26.37757813 -24.09716797 26.37890625 C-15.46335661 26.26120286 -8.16132541 24.71236928 0 22 C0.66 22 1.32 22 2 22 C1.01 11.11 1.01 11.11 0 0 Z " fill="#C4A7A8" transform="translate(187,147)"/>
<path d="M0 0 C0 0.66 0 1.32 0 2 C0.66 2.33 1.32 2.66 2 3 C-2.92008288 5.91608045 -7.86861591 8.37936143 -13.125 10.625 C-13.81464844 10.9240625 -14.50429687 11.223125 -15.21484375 11.53125 C-18.06588989 12.76325082 -20.89621262 13.96228531 -23.81640625 15.0234375 C-27.32699447 16.59346801 -28.75309852 18.91853511 -31 22 C-31 22.66 -31 23.32 -31 24 C-29.86820313 24.56589844 -28.73640625 25.13179687 -27.5703125 25.71484375 C-20.28515625 29.35742188 -20.28515625 29.35742188 -13 33 C-13 33.99 -13 34.98 -13 36 C-16.93647774 36.8382125 -20.87433951 37.66973255 -24.8125 38.5 C-25.93205078 38.73847656 -27.05160156 38.97695312 -28.20507812 39.22265625 C-29.27822266 39.44824219 -30.35136719 39.67382812 -31.45703125 39.90625 C-32.9416687 40.22045898 -32.9416687 40.22045898 -34.45629883 40.54101562 C-37 41 -37 41 -40 41 C-40 40.34 -40 39.68 -40 39 C-33.7563316 36.52609365 -27.49727686 34.70553517 -21 33 C-25.95 30.36 -30.9 27.72 -36 25 C-34.98342371 20.93369486 -34.57144622 20.23648012 -31.6875 17.5625 C-28.86498332 14.86775156 -26.36230338 12.11824046 -24 9 C-33.14097026 10.47185114 -42.04495196 12.68539536 -51 15 C-49.65369699 12.30739398 -47.97946583 12.11936389 -45.23754883 11.19775391 C-44.58165771 10.98812012 -43.9257666 10.77848633 -43.25 10.5625 C-42.58057373 10.34513184 -41.91114746 10.12776367 -41.22143555 9.90380859 C-23.51574321 4.27559206 -23.51574321 4.27559206 -18 6 C-14.15615736 6 -11.8915823 4.66722185 -8.4375 3 C-2.20833333 0 -2.20833333 0 0 0 Z " fill="#BEB0B0" transform="translate(243,133)"/>
<path d="M0 0 C2.69990662 1.79993774 4.5418865 3.083773 6 6 C6.52802088 10.81278044 6.85640895 15.38923205 4.125 19.5625 C1.65713779 22.39328312 0.85234558 22.86741291 -2.8125 23.4375 C-6 23 -6 23 -8.875 20.75 C-11.78960923 16.78499589 -11.69768833 12.56289186 -11.484375 7.79296875 C-11 5 -11 5 -8.875 1.75 C-5.46347205 -0.32658223 -3.92041738 -0.73507826 0 0 Z " fill="#E42C31" transform="translate(217,95)"/>
<path d="M0 0 C11.80645161 0 11.80645161 0 15 3 C17.18416347 6.78588335 18.01302405 9.24460506 17.9375 13.625 C16.87585274 17.44693015 15.83080892 19.2346974 13 22 C8.5791491 22.66739899 4.4960002 22.22480001 0 22 C0 14.74 0 7.48 0 0 Z " fill="#E53339" transform="translate(77,95)"/>
<path d="M0 0 C10.7421875 -0.1953125 10.7421875 -0.1953125 14 0 C14.66 0.66 15.32 1.32 16 2 C15.625 4.4375 15.625 4.4375 15 7 C14.7226499 10.18490007 14.7226499 10.18490007 17 13 C17.53950641 18.17926153 17.53950641 18.17926153 15.8984375 20.67578125 C11.84526156 23.50299656 5.66982067 22.13870754 1 22 C0.67 14.74 0.34 7.48 0 0 Z " fill="#E53035" transform="translate(169,95)"/>
<path d="M0 0 C10.83984375 -0.09765625 10.83984375 -0.09765625 14 0 C15 1 15 1 15.1875 3.375 C15 6 15 6 13 9 C13.66 9.53625 14.32 10.0725 15 10.625 C17 13 17 13 17.4375 16.0625 C17 19 17 19 15.890625 20.671875 C11.85200443 23.50892251 5.66035868 22.1384265 1 22 C0.67 14.74 0.34 7.48 0 0 Z " fill="#E73E43" transform="translate(41,95)"/>
<path d="M0 0 C2 1 2 1 3 3 C2.69707031 3.58007812 2.39414062 4.16015625 2.08203125 4.7578125 C-0.43847513 9.98081129 0.30724499 16.96022137 2.125 22.3125 C2.74375 23.199375 3.3625 24.08625 4 25 C4.35578125 25.53753906 4.7115625 26.07507813 5.078125 26.62890625 C12.4030424 36.49106914 24.80711625 41.07613911 36 45 C37.92165242 45.69469359 39.83886726 46.40186869 41.75 47.125 C42.54921875 47.41632813 43.3484375 47.70765625 44.171875 48.0078125 C46 49 46 49 47 52 C39.13844564 54.62051812 27.54333718 47.23816315 20.3515625 43.6953125 C10.31702412 38.49534163 -0.07836534 32.16746744 -4 21 C-4.90592366 14.65145686 -5.23013573 8.35326229 -2 2.625 C-1.34 1.75875 -0.68 0.8925 0 0 Z " fill="#B9AFB0" transform="translate(21,96)"/>
<path d="M0 0 C9.9609375 -0.1953125 9.9609375 -0.1953125 13 0 C13.66 0.66 14.32 1.32 15 2 C14.6852582 4.39203772 14.16893104 6.54090506 13.3359375 8.8046875 C12.8648462 11.88321434 13.80759208 13.87387075 14.9375 16.75 C15.50791016 18.22726563 15.50791016 18.22726563 16.08984375 19.734375 C16.39019531 20.48203125 16.69054687 21.2296875 17 22 C14.69 22 12.38 22 10 22 C9.86722656 21.43410156 9.73445312 20.86820313 9.59765625 20.28515625 C9.42105469 19.55167969 9.24445313 18.81820312 9.0625 18.0625 C8.88847656 17.33160156 8.71445313 16.60070312 8.53515625 15.84765625 C8.16112431 14.00030102 8.16112431 14.00030102 7 13 C7 15.97 7 18.94 7 22 C4.69 22 2.38 22 0 22 C0 14.74 0 7.48 0 0 Z " fill="#E74247" transform="translate(188,95)"/>
<path d="M0 0 C2.31 0 4.62 0 7 0 C6.67 1.98 6.34 3.96 6 6 C7.32 6 8.64 6 10 6 C9.67 4.02 9.34 2.04 9 0 C11.31 0 13.62 0 16 0 C16 7.26 16 14.52 16 22 C13.69 22 11.38 22 9 22 C9.33 17.71 9.66 13.42 10 9 C8.68 9 7.36 9 6 9 C6 13.29 6 17.58 6 22 C4.02 22 2.04 22 0 22 C0 14.74 0 7.48 0 0 Z " fill="#E63D42" transform="translate(97,95)"/>
<path d="M0 0 C0 0.33 0 0.66 0 1 C6.6 1.33 13.2 1.66 20 2 C20 2.33 20 2.66 20 3 C18.50895752 3.01401855 18.50895752 3.01401855 16.98779297 3.02832031 C-10.30575853 3.32734337 -37.63881612 4.13442828 -64 12 C-64.91910156 12.25652344 -65.83820313 12.51304688 -66.78515625 12.77734375 C-72.2165924 14.33038191 -77.42585392 16.28254441 -82.65234375 18.42578125 C-83.42707031 18.61527344 -84.20179687 18.80476563 -85 19 C-85.99 18.34 -86.98 17.68 -88 17 C-62.38300008 3.44158787 -28.65014968 -1.15283762 0 0 Z " fill="#E3474C" transform="translate(133,65)"/>
<path d="M0 0 C1.13824219 0.01353516 2.27648437 0.02707031 3.44921875 0.04101562 C6.21666987 0.07589946 8.98306105 0.12490683 11.75 0.1875 C12.245 1.1775 12.245 1.1775 12.75 2.1875 C12.04504395 2.17178955 11.34008789 2.1560791 10.61376953 2.13989258 C7.36759721 2.07688334 4.1215542 2.03830204 0.875 2 C-0.23359375 1.97486328 -1.3421875 1.94972656 -2.484375 1.92382812 C-9.60427541 1.86100547 -15.57474802 2.67507489 -22.25 5.1875 C-22.20875 6.24710938 -22.1675 7.30671875 -22.125 8.3984375 C-23.25 12.1875 -23.25 12.1875 -25.15625 13.52832031 C-27.81847831 14.75307171 -30.49749879 15.80685003 -33.25 16.8125 C-35.10606114 17.52896556 -36.96025291 18.25029354 -38.8125 18.9765625 C-39.71742187 19.32879883 -40.62234375 19.68103516 -41.5546875 20.04394531 C-45.64918928 21.78114154 -49.41144021 23.94571815 -53.25 26.1875 C-48.3 27.5075 -43.35 28.8275 -38.25 30.1875 C-38.91 31.5075 -39.57 32.8275 -40.25 34.1875 C-40.77207031 33.99414062 -41.29414062 33.80078125 -41.83203125 33.6015625 C-47.88926991 31.4587215 -53.91108225 30.19461777 -60.25 29.1875 C-59.96166992 27.31469727 -59.96166992 27.31469727 -59.25 25.1875 C-56.68914716 23.64862534 -54.26144052 22.36569985 -51.5625 21.125 C-50.85416016 20.78662109 -50.14582031 20.44824219 -49.41601562 20.09960938 C-48.0228983 19.43456629 -46.6272694 18.77475513 -45.22900391 18.12060547 C-42.54605813 16.85558959 -39.8970797 15.52563005 -37.25 14.1875 C-37.91 12.5375 -38.57 10.8875 -39.25 9.1875 C-37.49967156 9.32933696 -35.74974466 9.47613429 -34 9.625 C-32.53820312 9.74681641 -32.53820312 9.74681641 -31.046875 9.87109375 C-28.68538247 10.13824584 -26.53098935 10.54121968 -24.25 11.1875 C-24.25 10.5275 -24.25 9.8675 -24.25 9.1875 C-24.91 8.8575 -25.57 8.5275 -26.25 8.1875 C-25.92 6.5375 -25.59 4.8875 -25.25 3.1875 C-16.68133906 0.60934455 -8.92227074 -0.20541237 0 0 Z " fill="#DBC6C7" transform="translate(105.25,136.8125)"/>
<path d="M0 0 C0.90105469 0.02707031 1.80210937 0.05414063 2.73046875 0.08203125 C3.76107422 0.13423828 3.76107422 0.13423828 4.8125 0.1875 C4.8125 2.1675 4.8125 4.1475 4.8125 6.1875 C2.5025 5.1975 0.1925 4.2075 -2.1875 3.1875 C-2.1875 4.5075 -2.1875 5.8275 -2.1875 7.1875 C-1.259375 7.47625 -0.33125 7.765 0.625 8.0625 C3.8125 9.1875 3.8125 9.1875 6.8125 11.1875 C7.45532699 15.44622884 7.23375882 17.51348589 4.9375 21.1875 C0.44242999 24.06434481 -3.1129541 23.18270221 -8.1875 22.1875 C-8.1875 19.5475 -8.1875 16.9075 -8.1875 14.1875 C-7.61 15.0125 -7.0325 15.8375 -6.4375 16.6875 C-5.695 17.5125 -4.9525 18.3375 -4.1875 19.1875 C-2.8675 19.1875 -1.5475 19.1875 -0.1875 19.1875 C-0.1875 17.8675 -0.1875 16.5475 -0.1875 15.1875 C-1.13625 14.73375 -2.085 14.28 -3.0625 13.8125 C-6.1875 12.1875 -6.1875 12.1875 -8.1875 10.1875 C-8.75059148 3.99349369 -8.75059148 3.99349369 -6.9921875 1.4765625 C-4.5585717 -0.2617345 -2.958327 -0.11525949 0 0 Z " fill="#E53238" transform="translate(233.1875,94.8125)"/>
<path d="M0 0 C2.64 0 5.28 0 8 0 C8.19335938 0.9178125 8.38671875 1.835625 8.5859375 2.78125 C9.95178397 9.2183086 11.34408272 15.6310874 13 22 C10.36 22 7.72 22 5 22 C5.04125 21.21625 5.0825 20.4325 5.125 19.625 C5.28728734 16.83883881 5.28728734 16.83883881 3 15 C2.01 15 1.02 15 0 15 C-0.33 17.31 -0.66 19.62 -1 22 C-2.32 21.67 -3.64 21.34 -5 21 C-4.70351562 20.34644531 -4.40703125 19.69289063 -4.1015625 19.01953125 C-2.74058476 15.28890787 -2.05851205 11.58979585 -1.375 7.6875 C-1.2409375 6.94693359 -1.106875 6.20636719 -0.96875 5.44335938 C-0.64113016 3.62974956 -0.31991506 1.81498476 0 0 Z " fill="#E73E43" transform="translate(119,95)"/>
<path d="M0 0 C2.64 0 5.28 0 8 0 C8 0.66 8 1.32 8 2 C7.34 2 6.68 2 6 2 C6.33 7.61 6.66 13.22 7 19 C8.32 19 9.64 19 11 19 C11.33 13.39 11.66 7.78 12 2 C11.34 2 10.68 2 10 2 C10 1.34 10 0.68 10 0 C11.98 0 13.96 0 16 0 C15.96688725 2.89887118 15.89962106 5.79016622 15.8125 8.6875 C15.80669922 9.50412109 15.80089844 10.32074219 15.79492188 11.16210938 C15.6353377 15.54180841 15.40120234 17.48036646 12.64453125 21.05078125 C10 23 10 23 6.875 23.5 C3.65892247 22.94068217 2.94197145 22.52817406 1 20 C0.56762695 17.82348633 0.56762695 17.82348633 0.48828125 15.33203125 C0.45283203 14.43935547 0.41738281 13.54667969 0.38085938 12.62695312 C0.35830078 11.69818359 0.33574219 10.76941406 0.3125 9.8125 C0.27833984 8.87212891 0.24417969 7.93175781 0.20898438 6.96289062 C0.12651782 4.64204607 0.05736597 2.32157852 0 0 Z " fill="#E42D32" transform="translate(59,95)"/>
<path d="M0 0 C2.97 0 5.94 0 9 0 C9.66 1.65 10.32 3.3 11 5 C11.33 3.68 11.66 2.36 12 1 C12.99 1 13.98 1 15 1 C15 7.93 15 14.86 15 22 C13.68 21.67 12.36 21.34 11 21 C10.95875 20.195625 10.9175 19.39125 10.875 18.5625 C9.6360518 13.51821091 7.00765405 10.2235142 4 6 C4 11.28 4 16.56 4 22 C2.68 21.67 1.36 21.34 0 21 C0 14.07 0 7.14 0 0 Z " fill="#E6363B" transform="translate(133,95)"/>
<path d="M0 0 C3.55331403 2.25043222 4.73252184 4.01491582 6 8 C6.84780483 15.46960674 7.09561172 22.22805475 2.421875 28.3984375 C0.35823344 30.72286892 -1.68953467 32.91494592 -4 35 C-4.49757812 35.46664062 -4.99515625 35.93328125 -5.5078125 36.4140625 C-8.66022166 39.24964662 -9.60478942 40 -14 40 C-13.64127661 37.24978731 -13.23892698 36.20733333 -11.109375 34.359375 C-10.33078125 33.82828125 -9.5521875 33.2971875 -8.75 32.75 C-4.3002766 29.38609427 -0.82579245 26.38874666 1 21 C1.79416782 14.10594742 1.18442419 8.54389735 -1 2 C-0.67 1.34 -0.34 0.68 0 0 Z " fill="#C8BABA" transform="translate(257,95)"/>
<path d="M0 0 C3 2 3 2 3.8125 4.875 C4.00786981 8.13116344 3.86775994 9.38513609 2 12 C-1 14 -1 14 -4.5 13.8125 C-8 13 -8 13 -9.9375 11.875 C-11.64550843 8.86086748 -11.36204814 6.37911601 -11 3 C-7.82481137 -1.32980268 -4.99182437 -1.12061363 0 0 Z M-1 6 C0 8 0 8 0 8 Z " fill="#DE181D" transform="translate(253,70)"/>
<path d="M0 0 C0.66 0.99 1.32 1.98 2 3 C3.67442081 4.1108426 3.67442081 4.1108426 5.625 5.0078125 C6.33140625 5.35457031 7.0378125 5.70132813 7.765625 6.05859375 C8.50296875 6.41050781 9.2403125 6.76242188 10 7.125 C10.73734375 7.48464844 11.4746875 7.84429687 12.234375 8.21484375 C13.59979209 8.88011084 14.96682329 9.5420822 16.3359375 10.19970703 C17.56230154 10.78949889 18.78284818 11.39142409 20 12 C20 12.99 20 13.98 20 15 C16.06352226 15.8382125 12.12566049 16.66973255 8.1875 17.5 C7.06794922 17.73847656 5.94839844 17.97695312 4.79492188 18.22265625 C3.72177734 18.44824219 2.64863281 18.67382812 1.54296875 18.90625 C0.0583313 19.22045898 0.0583313 19.22045898 -1.45629883 19.54101562 C-4 20 -4 20 -7 20 C-7 19.34 -7 18.68 -7 18 C-0.7563316 15.52609365 5.50272314 13.70553517 12 12 C7.05 9.36 2.1 6.72 -3 4 C-3 3.34 -3 2.68 -3 2 C-2.01 1.34 -1.02 0.68 0 0 Z " fill="#D5C8C9" transform="translate(210,154)"/>
<path d="M0 0 C2.0625 0.4375 2.0625 0.4375 4 1 C3.01 1.33 2.02 1.66 1 2 C1 3.32 1 4.64 1 6 C1.94875 5.814375 2.8975 5.62875 3.875 5.4375 C7 5 7 5 9 6 C9 5.34 9 4.68 9 4 C9.9075 3.855625 10.815 3.71125 11.75 3.5625 C14.21476956 3.13590527 16.58847107 2.64925779 19 2 C19 5.27275026 18.70074844 7.846632 18 11 C17.01 11 16.02 11 15 11 C15 10.34 15 9.68 15 9 C15.66 9 16.32 9 17 9 C16.67 8.34 16.34 7.68 16 7 C13.97536745 6.34786708 13.97536745 6.34786708 12 6 C12 8.31 12 10.62 12 13 C11.34 13 10.68 13 10 13 C10 11.02 10 9.04 10 7 C9.34 7 8.68 7 8 7 C7.690625 7.61875 7.38125 8.2375 7.0625 8.875 C6.375 10.25 5.6875 11.625 5 13 C5.66 13.33 6.32 13.66 7 14 C5.68 13.67 4.36 13.34 3 13 C3 11.35 3 9.7 3 8 C2.34 8 1.68 8 1 8 C1 11.96 1 15.92 1 20 C-0.32 20.33 -1.64 20.66 -3 21 C-3 20.34 -3 19.68 -3 19 C-2.34 19 -1.68 19 -1 19 C-1.01160156 17.71222656 -1.02320313 16.42445313 -1.03515625 15.09765625 C-1.0445327 13.41927228 -1.05363305 11.74088674 -1.0625 10.0625 C-1.07506836 8.78729492 -1.07506836 8.78729492 -1.08789062 7.48632812 C-1.09111328 6.67744141 -1.09433594 5.86855469 -1.09765625 5.03515625 C-1.10289307 4.2862915 -1.10812988 3.53742676 -1.11352539 2.76586914 C-1 1 -1 1 0 0 Z " fill="#F4ABAD" transform="translate(166,151)"/>
<path d="M0 0 C2.64 0 5.28 0 8 0 C7.67 7.26 7.34 14.52 7 22 C5.02 22 3.04 22 1 22 C0.67 14.74 0.34 7.48 0 0 Z " fill="#E73E43" transform="translate(151,95)"/>
<path d="M0 0 C3.96 0 7.92 0 12 0 C12 0.33 12 0.66 12 1 C10.02 1.33 8.04 1.66 6 2 C5.67 3.98 5.34 5.96 5 8 C5.99 8.33 6.98 8.66 8 9 C7.67 9.33 7.34 9.66 7 10 C6.76712992 11.68183948 6.58735834 13.3712416 6.4375 15.0625 C6.31181641 16.44115234 6.31181641 16.44115234 6.18359375 17.84765625 C6.12300781 18.55792969 6.06242187 19.26820312 6 20 C6.66 20.33 7.32 20.66 8 21 C5.36 21 2.72 21 0 21 C0 14.07 0 7.14 0 0 Z " fill="#E42C32" transform="translate(42,96)"/>
<path d="M0 0 C13.28009795 0.31594344 26.02739455 1.00632182 39 4 C38.67 4.66 38.34 5.32 38 6 C24.75576067 6.85293849 11.98948612 4.30108211 -1 2 C-0.67 1.34 -0.34 0.68 0 0 Z " fill="#EEEAEB" transform="translate(154,62)"/>
<path d="M0 0 C2.31 0 4.62 0 7 0 C7 7.26 7 14.52 7 22 C4.69 22 2.38 22 0 22 C0.33 17.38 0.66 12.76 1 8 C-0.32 7.67 -1.64 7.34 -3 7 C-1.68 7 -0.36 7 1 7 C0.67 4.69 0.34 2.38 0 0 Z " fill="#E42A30" transform="translate(106,95)"/>
<path d="M0 0 C0.81984375 0.22171875 1.6396875 0.4434375 2.484375 0.671875 C6.82958227 1.85947184 11.11674803 3.15045967 15.375 4.625 C15.375 5.615 15.375 6.605 15.375 7.625 C6.25547689 6.00484246 -2.78200508 4.20880917 -11.77514648 1.98339844 C-16.05467921 0.93755612 -20.26203473 0.18100858 -24.625 -0.375 C-24.625 -0.705 -24.625 -1.035 -24.625 -1.375 C-23.635 -1.54 -22.645 -1.705 -21.625 -1.875 C-20.7896875 -2.01421875 -20.7896875 -2.01421875 -19.9375 -2.15625 C-12.74105916 -2.8369944 -6.90541796 -1.9510546 0 0 Z " fill="#CBBABA" transform="translate(209.625,69.375)"/>
<path d="M0 0 C0.33 0 0.66 0 1 0 C2.89849251 12.56719497 2.89849251 12.56719497 -0.6015625 17.4296875 C-8.14966502 25.90548977 -19.14447503 32.55893167 -30 36 C-30.99 35.67 -31.98 35.34 -33 35 C-30.51484797 32.06836303 -28.00683578 31.0716315 -24.4375 29.75 C-16.19897541 26.42271196 -6.24274938 21.26297695 -2 13 C-0.95916776 8.6901461 -0.38493935 4.4135287 0 0 Z " fill="#E63E43" transform="translate(256,105)"/>
<path d="M0 0 C0.33 0.99 0.66 1.98 1 3 C-0.20603077 3.77443092 -1.41496905 4.54433428 -2.625 5.3125 C-3.29789063 5.74175781 -3.97078125 6.17101562 -4.6640625 6.61328125 C-7.36405048 8.21611692 -10.19158162 9.59579081 -13 11 C-8.05 12.32 -3.1 13.64 2 15 C1.34 16.32 0.68 17.64 0 19 C-0.52207031 18.80664062 -1.04414062 18.61328125 -1.58203125 18.4140625 C-7.63926991 16.2712215 -13.66108225 15.00711777 -20 14 C-19.44845652 10.33801893 -19.44845652 10.33801893 -17.46533203 8.84326172 C-16.81935059 8.54178223 -16.17336914 8.24030273 -15.5078125 7.9296875 C-14.80269531 7.59066406 -14.09757812 7.25164062 -13.37109375 6.90234375 C-12.62988281 6.56332031 -11.88867188 6.22429687 -11.125 5.875 C-9.66853787 5.18644409 -8.21278105 4.49639386 -6.7578125 3.8046875 C-6.1095752 3.50546387 -5.46133789 3.20624023 -4.79345703 2.89794922 C-2.74080198 1.91639183 -2.74080198 1.91639183 0 0 Z " fill="#C7BDBF" transform="translate(65,152)"/>
<path d="M0 0 C5.072007 -0.04942365 10.14387394 -0.08573068 15.21606445 -0.10986328 C16.94167523 -0.11992326 18.66726895 -0.13357276 20.39282227 -0.15087891 C22.8726014 -0.17512754 25.35215523 -0.18648301 27.83203125 -0.1953125 C28.60400345 -0.20563507 29.37597565 -0.21595764 30.17134094 -0.22659302 C33.99281476 -0.22739422 35.74136107 -0.17242595 39 2 C40.9896995 2.39013716 42.99019869 2.73202649 45 3 C45 3.33 45 3.66 45 4 C38.91235009 3.93129663 32.82539852 3.84341594 26.73828125 3.73754883 C24.66641973 3.70424177 22.59446621 3.67622803 20.52246094 3.65356445 C17.54842827 3.62012437 14.57524321 3.56781495 11.6015625 3.51171875 C10.67131256 3.50532883 9.74106262 3.4989389 8.78262329 3.49235535 C7.92188202 3.47256119 7.06114075 3.45276703 6.17431641 3.43237305 C5.41486725 3.42126999 4.65541809 3.41016693 3.87295532 3.39872742 C2 3 2 3 0 0 Z " fill="#A29B9F" transform="translate(118,62)"/>
<path d="M0 0 C2.64 0 5.28 0 8 0 C7.01 0.33 6.02 0.66 5 1 C5.08670137 3.95980532 5.19353023 6.91646869 5.3125 9.875 C5.33505859 10.71675781 5.35761719 11.55851562 5.38085938 12.42578125 C5.41630859 13.23144531 5.45175781 14.03710938 5.48828125 14.8671875 C5.51446533 15.61081543 5.54064941 16.35444336 5.56762695 17.12060547 C5.86729591 19.40733826 5.86729591 19.40733826 9 21 C5.7 21 2.4 21 -1 21 C-0.67 14.07 -0.34 7.14 0 0 Z " fill="#E32228" transform="translate(78,96)"/>
<path d="M0 0 C3.63 0 7.26 0 11 0 C11 0.33 11 0.66 11 1 C9.02 1.33 7.04 1.66 5 2 C4.67 4.31 4.34 6.62 4 9 C4.66 9.33 5.32 9.66 6 10 C6 13.63 6 17.26 6 21 C3.69 21 1.38 21 -1 21 C-0.67 14.07 -0.34 7.14 0 0 Z " fill="#E32027" transform="translate(189,96)"/>
<path d="M0 0 C1.65 0.33 3.3 0.66 5 1 C4.01 1.495 4.01 1.495 3 2 C3.10248047 2.60473145 3.20496094 3.20946289 3.31054688 3.83251953 C3.75216993 6.59160711 4.1263936 9.35591731 4.5 12.125 C4.74363281 13.55199219 4.74363281 13.55199219 4.9921875 15.0078125 C5.34970125 17.8679225 5.53683932 20.16354853 5 23 C2.68318157 25.68100508 0.0479466 27.25235898 -3 29 C-3.66 29.66 -4.32 30.32 -5 31 C-5.99 30.67 -6.98 30.34 -8 30 C-8.33 28.02 -8.66 26.04 -9 24 C-3.555 23.01 -3.555 23.01 2 22 C1.34 14.74 0.68 7.48 0 0 Z " fill="#C47C7B" transform="translate(187,147)"/>
<path d="M0 0 C1.32 0 2.64 0 4 0 C6.23465229 3.35197843 6.27108649 4.57791246 6.25 8.5 C6.25515625 9.4590625 6.2603125 10.418125 6.265625 11.40625 C6 14 6 14 4 17 C2.0625 16.625 2.0625 16.625 0 16 C-1.43316898 13.13366205 -1.13200361 10.62764499 -1.125 7.4375 C-1.12757813 6.26058594 -1.13015625 5.08367187 -1.1328125 3.87109375 C-1 1 -1 1 0 0 Z " fill="#FBE9EA" transform="translate(212,98)"/>
<path d="M0 0 C3.63 0 7.26 0 11 0 C10.67 0.66 10.34 1.32 10 2 C7.69 2 5.38 2 3 2 C3 3.98 3 5.96 3 8 C2.26136719 8.18175781 1.52273437 8.36351562 0.76171875 8.55078125 C-5.43066382 10.0851073 -11.5892863 11.69296744 -17.72265625 13.44921875 C-20 14 -20 14 -23 14 C-23 13.34 -23 12.68 -23 12 C-15.8876539 8.21410001 -8.958346 6.9348289 -1 6 C-0.67 4.02 -0.34 2.04 0 0 Z " fill="#DAC9CA" transform="translate(97,166)"/>
<path d="M0 0 C0.99 0 1.98 0 3 0 C3.33 0.66 3.66 1.32 4 2 C4.33 1.34 4.66 0.68 5 0 C6.32 0 7.64 0 9 0 C9.33 0.66 9.66 1.32 10 2 C10.33 1.34 10.66 0.68 11 0 C11.99 0 12.98 0 14 0 C13.60404157 1.48484412 13.18249294 2.9628831 12.75 4.4375 C12.40195313 5.67306641 12.40195313 5.67306641 12.046875 6.93359375 C11 9 11 9 8.890625 9.78515625 C8.26671875 9.85605469 7.6428125 9.92695313 7 10 C6.67 9.34 6.34 8.68 6 8 C5.67 8.66 5.34 9.32 5 10 C3.68 10 2.36 10 1 10 C0.67 6.7 0.34 3.4 0 0 Z " fill="#E8494E" transform="translate(148,124)"/>
<path d="M0 0 C0.33 0 0.66 0 1 0 C1.33821197 2.85366354 1.6706978 5.70780596 2 8.5625 C2.09539062 9.36236328 2.19078125 10.16222656 2.2890625 10.98632812 C2.82714176 15.69452167 3.10176703 20.26147265 3 25 C6.96 24.67 10.92 24.34 15 24 C15 25.98 15 27.96 15 30 C11.90124328 30 9.75578485 29.41738748 6.8125 28.5 C5.91144531 28.2215625 5.01039062 27.943125 4.08203125 27.65625 C3.39496094 27.4396875 2.70789063 27.223125 2 27 C1.49521515 24.58424393 0.99602358 22.16755639 0.5 19.75 C0.35691406 19.06808594 0.21382813 18.38617188 0.06640625 17.68359375 C-0.61251049 14.35366879 -1 11.41667449 -1 8 C-1.66 7.67 -2.32 7.34 -3 7 C-2.01 7 -1.02 7 0 7 C0 4.69 0 2.38 0 0 Z " fill="#BF7D7C" transform="translate(82,142)"/>
<path d="M0 0 C1.890625 0.24609375 1.890625 0.24609375 4 1 C5.046875 2.84765625 5.046875 2.84765625 5.75 5.0625 C5.99234375 5.79597656 6.2346875 6.52945313 6.484375 7.28515625 C6.65453125 7.85105469 6.8246875 8.41695312 7 9 C6.67 6.69 6.34 4.38 6 2 C8.31 2 10.62 2 13 2 C12.67 4.64 12.34 7.28 12 10 C12.99 7.36 13.98 4.72 15 2 C15.99 2.33 16.98 2.66 18 3 C16.35 6.63 14.7 10.26 13 14 C12.34 14 11.68 14 11 14 C10.34 13.34 9.68 12.68 9 12 C8.67 12.66 8.34 13.32 8 14 C7.34 14 6.68 14 6 14 C4.99515796 12.04414675 3.99626195 10.08523763 3 8.125 C2.1646875 6.48917969 2.1646875 6.48917969 1.3125 4.8203125 C0 2 0 2 0 0 Z " fill="#F6B9BB" transform="translate(139,152)"/>
<path d="M0 0 C4 1 4 1 6 4 C6.265625 6.375 6.265625 6.375 6.25 9 C6.25515625 9.86625 6.2603125 10.7325 6.265625 11.625 C6 14 6 14 4 17 C2.68 17 1.36 17 0 17 C0 11.39 0 5.78 0 0 Z " fill="#FCEAEB" transform="translate(83,98)"/>
<path d="M0 0 C0.99 0.33 1.98 0.66 3 1 C3 6.61 3 12.22 3 18 C1.35 18.33 -0.3 18.66 -2 19 C-2.05380578 16.20807795 -2.09357669 13.4171859 -2.125 10.625 C-2.14175781 9.8309375 -2.15851563 9.036875 -2.17578125 8.21875 C-2.19335473 6.14507985 -2.10335168 4.07116759 -2 2 C-1.34 1.34 -0.68 0.68 0 0 Z " fill="#FDF9F9" transform="translate(68,96)"/>
<path d="M0 0 C0.66 0 1.32 0 2 0 C2.66 1.32 3.32 2.64 4 4 C3.34 4 2.68 4 2 4 C2.33 5.32 2.66 6.64 3 8 C3.66 8 4.32 8 5 8 C5.33 6.68 5.66 5.36 6 4 C8.375 4.3125 8.375 4.3125 11 5 C13 8 13 8 12.625 10.6875 C12.41875 11.450625 12.2125 12.21375 12 13 C7.90708476 12.20415537 3.95712221 11.31904074 0 10 C-1.125 2.25 -1.125 2.25 0 0 Z " fill="#F29497" transform="translate(121,149)"/>
<path d="M0 0 C0.99 0 1.98 0 3 0 C3 1.65 3 3.3 3 5 C3.66 5 4.32 5 5 5 C5.33 3.68 5.66 2.36 6 1 C6.99 1 7.98 1 9 1 C9 2.32 9 3.64 9 5 C9.66 5 10.32 5 11 5 C11.33 3.68 11.66 2.36 12 1 C12.99 1.33 13.98 1.66 15 2 C13.68 4.97 12.36 7.94 11 11 C10.01 11 9.02 11 8 11 C8 9.35 8 7.7 8 6 C7.34 6 6.68 6 6 6 C5.67 7.65 5.34 9.3 5 11 C4.01 11 3.02 11 2 11 C1.34 7.37 0.68 3.74 0 0 Z " fill="#E6383E" transform="translate(81,123)"/>
<path d="M0 0 C0.33 0 0.66 0 1 0 C1.31864792 3.4254651 1.33161591 5.43769477 -0.4375 8.4375 C-3.98481528 11.98481528 -7.70771492 15.37777654 -12 18 C-13.32 18 -14.64 18 -16 18 C-15.63742025 15.271736 -15.21933887 14.19809763 -13.14453125 12.32421875 C-12.37496094 11.78410156 -11.60539063 11.24398437 -10.8125 10.6875 C-6.50485741 7.51344756 -3.37400161 4.13315197 0 0 Z " fill="#F3EFEF" transform="translate(259,117)"/>
<path d="M0 0 C0.04898438 0.95261719 0.09796875 1.90523438 0.1484375 2.88671875 C0.22320312 4.14097656 0.29796875 5.39523438 0.375 6.6875 C0.47941406 8.54955078 0.47941406 8.54955078 0.5859375 10.44921875 C0.96422094 13.69317772 1.61979976 16.06567185 3 19 C0.08317863 18.68466796 -1.54790258 18.45209742 -3.65625 16.34375 C-5.39570049 13.30982472 -5.3007392 11.22266891 -5.1875 7.75 C-5.14689453 6.13351563 -5.14689453 6.13351563 -5.10546875 4.484375 C-5.07066406 3.66453125 -5.03585938 2.8446875 -5 2 C-1.125 0 -1.125 0 0 0 Z " fill="#E4282D" transform="translate(211,98)"/>
<path d="M0 0 C0.33 0 0.66 0 1 0 C1 6.27 1 12.54 1 19 C2.65 19 4.3 19 6 19 C6 16.03 6 13.06 6 10 C8 11.625 8 11.625 10 14 C10.25 17.25 10.25 17.25 10 20 C12.31 20 14.62 20 17 20 C17 20.33 17 20.66 17 21 C11.06 21 5.12 21 -1 21 C-1.66 19.68 -2.32 18.36 -3 17 C-2.38008503 15.6442981 -1.70420841 14.31389221 -1 13 C-0.71306612 10.75866742 -0.51033409 8.5055681 -0.375 6.25 C-0.30023438 5.07953125 -0.22546875 3.9090625 -0.1484375 2.703125 C-0.09945312 1.81109375 -0.05046875 0.9190625 0 0 Z " fill="#FAD7D8" transform="translate(188,97)"/>
<path d="M0 0 C2.29141286 -0.05384521 4.58318188 -0.09272087 6.875 -0.125 C8.78925781 -0.15980469 8.78925781 -0.15980469 10.7421875 -0.1953125 C14 0 14 0 16 2 C15.63723355 4.82957829 14.90305236 7.29084291 14 10 C13.34 10 12.68 10 12 10 C11.67 9.34 11.34 8.68 11 8 C9.35 8.33 7.7 8.66 6 9 C5.95745644 7.00045254 5.95919217 4.99958364 6 3 C6.33 2.67 6.66 2.34 7 2 C4.69 2 2.38 2 0 2 C0 1.34 0 0.68 0 0 Z " fill="#E94F54" transform="translate(169,95)"/>
<path d="M0 0 C0 0.66 0 1.32 0 2 C0.66 2.33 1.32 2.66 2 3 C-11.42857143 11 -11.42857143 11 -17 11 C-16.04991702 7.33092954 -15.33268016 6.20179678 -12.03125 4.19921875 C-10.8659375 3.70035156 -9.700625 3.20148438 -8.5 2.6875 C-7.3346875 2.17574219 -6.169375 1.66398438 -4.96875 1.13671875 C-2 0 -2 0 0 0 Z " fill="#9A9396" transform="translate(243,133)"/>
<path d="M0 0 C0.93086426 -0.00451172 1.86172852 -0.00902344 2.82080078 -0.01367188 C7.82171344 -0.00286104 12.57088655 0.27188421 17.5 1.125 C17.17 1.785 16.84 2.445 16.5 3.125 C2.31 2.795 -11.88 2.465 -26.5 2.125 C-26.5 1.795 -26.5 1.465 -26.5 1.125 C-17.6601382 0.35392171 -8.8730368 0.01781436 0 0 Z " fill="#E0242A" transform="translate(144.5,64.875)"/>
<path d="M0 0 C0.33 0.99 0.66 1.98 1 3 C2.32303717 3.3721042 3.65737935 3.70630173 5 4 C6.39935013 6.79870027 6.25265405 8.90498792 6 12 C4.9375 13.9375 4.9375 13.9375 3 15 C-0.6875 14.6875 -0.6875 14.6875 -4 14 C-3.34 13.649375 -2.68 13.29875 -2 12.9375 C0.41103961 11.03442858 0.41103961 11.03442858 0.25 7.3125 C0.12625 5.6728125 0.12625 5.6728125 0 4 C-0.99 4 -1.98 4 -3 4 C-3 3.34 -3 2.68 -3 2 C-2.01 1.34 -1.02 0.68 0 0 Z " fill="#E52F34" transform="translate(180,102)"/>
<path d="M0 0 C0.66 0.33 1.32 0.66 2 1 C-0.32216997 5.51533049 -2.98560245 8.01055501 -7 11 C-7.66 11 -8.32 11 -9 11 C-9.66 12.32 -10.32 13.64 -11 15 C-11.99 14.67 -12.98 14.34 -14 14 C-12.62592928 9.53427015 -10.68609315 7.55743141 -7 4.75 C-6.113125 4.06421875 -5.22625 3.3784375 -4.3125 2.671875 C-2 1 -2 1 0 0 Z " fill="#E7DEDF" transform="translate(36,83)"/>
<path d="M0 0 C1.32 0.33 2.64 0.66 4 1 C4.33 4.3 4.66 7.6 5 11 C4.01 11 3.02 11 2 11 C2 10.34 2 9.68 2 9 C0.68 9 -0.64 9 -2 9 C-2 9.66 -2 10.32 -2 11 C-2.99 11 -3.98 11 -5 11 C-3.77472971 6.94718288 -2.30119506 3.55639236 0 0 Z " fill="#E63A3F" transform="translate(103,123)"/>
<path d="M0 0 C1.65 0 3.3 0 5 0 C6.60725635 3.21451269 6.05748185 6.43612536 6 10 C5.34 10 4.68 10 4 10 C4 9.34 4 8.68 4 8 C2.8553125 8.495 2.8553125 8.495 1.6875 9 C-1 10 -1 10 -4 10 C-2.8905928 6.51329166 -1.73662334 3.22515763 0 0 Z " fill="#E95156" transform="translate(168,124)"/>
<path d="M0 0 C1.32 0 2.64 0 4 0 C5.19287411 3.87684087 6 6.91621923 6 11 C5.01 11 4.02 11 3 11 C3 10.34 3 9.68 3 9 C0.69 9.66 -1.62 10.32 -4 11 C-3.39301257 6.87248551 -1.96189209 3.6678852 0 0 Z " fill="#E53238" transform="translate(193,123)"/>
<path d="M0 0 C1.32 0 2.64 0 4 0 C4 5.94 4 11.88 4 18 C2.35 18.66 0.7 19.32 -1 20 C-0.34 19.01 0.32 18.02 1 17 C1.52114798 13.00453212 1.33169207 11.47680735 -1 8.125 C-1.66 7.42375 -2.32 6.7225 -3 6 C-2.34 5.34 -1.68 4.68 -1 4 C-0.3574765 1.93125966 -0.3574765 1.93125966 0 0 Z " fill="#FBE4E5" transform="translate(56,97)"/>
<path d="M0 0 C0.33 0.99 0.66 1.98 1 3 C1.66 3 2.32 3 3 3 C4.32 6.63 5.64 10.26 7 14 C4.69 14 2.38 14 0 14 C-2.47272727 5.41818182 -2.47272727 5.41818182 -1 1 C-0.67 0.67 -0.34 0.34 0 0 Z " fill="#E4282E" transform="translate(198,103)"/>
<path d="M0 0 C2.31 0 4.62 0 7 0 C6.67 3.3 6.34 6.6 6 10 C3.66666667 10 1.33333333 10 -1 10 C-0.67 6.7 -0.34 3.4 0 0 Z " fill="#E8464B" transform="translate(136,124)"/>
<path d="M0 0 C3.65938172 1.43164111 7.23988068 2.98934296 10.8125 4.625 C12.27623047 5.29402344 12.27623047 5.29402344 13.76953125 5.9765625 C14.50558594 6.31429687 15.24164063 6.65203125 16 7 C15.67 8.32 15.34 9.64 15 11 C9.52067211 9.45454854 4.88570819 6.84456788 0 4 C0 2.68 0 1.36 0 0 Z " fill="#B0ADAD" transform="translate(35,132)"/>
<path d="M0 0 C2.31 0 4.62 0 7 0 C8.76462683 3.08809695 9 4.23312136 9 8 C8.01 8.33 7.02 8.66 6 9 C5.01 8.01 4.02 7.02 3 6 C3 6.99 3 7.98 3 9 C2.01 9 1.02 9 0 9 C0 6.03 0 3.06 0 0 Z " fill="#EA585D" transform="translate(112,78)"/>
<path d="M0 0 C2.625 0.25 2.625 0.25 4.5 1.4375 C5.625 3.25 5.625 3.25 5.3125 5.9375 C5.085625 6.700625 4.85875 7.46375 4.625 8.25 C3.635 8.58 2.645 8.91 1.625 9.25 C1.625 6.94 1.625 4.63 1.625 2.25 C0.965 1.92 0.305 1.59 -0.375 1.25 C0.285 6.2 0.945 11.15 1.625 16.25 C0.635 16.58 -0.355 16.91 -1.375 17.25 C-1.73582877 14.60491639 -2.08895352 11.95920453 -2.4375 9.3125 C-2.54126953 8.55775391 -2.64503906 7.80300781 -2.75195312 7.02539062 C-3.00165638 5.10525872 -3.19290281 3.17771856 -3.375 1.25 C-2.375 0.25 -2.375 0.25 0 0 Z " fill="#F8C7C9" transform="translate(91.375,142.75)"/>
<path d="M0 0 C1.4540625 0.0309375 1.4540625 0.0309375 2.9375 0.0625 C2.9375 1.0525 2.9375 2.0425 2.9375 3.0625 C1.6175 3.0625 0.2975 3.0625 -1.0625 3.0625 C-1.0625 3.7225 -1.0625 4.3825 -1.0625 5.0625 C-0.0725 5.0625 0.9175 5.0625 1.9375 5.0625 C1.9375 7.0425 1.9375 9.0225 1.9375 11.0625 C-0.0425 11.0625 -2.0225 11.0625 -4.0625 11.0625 C-4.08938151 9.41675434 -4.10884123 7.77088587 -4.125 6.125 C-4.13660156 5.20847656 -4.14820312 4.29195313 -4.16015625 3.34765625 C-4.00919455 -0.18484756 -3.60673121 0.07360676 0 0 Z " fill="#E84A4E" transform="translate(128.0625,122.9375)"/>
<path d="M0 0 C-2.29109785 2.29109785 -3.28378059 2.45603769 -6.39453125 3.0703125 C-7.26787109 3.24433594 -8.14121094 3.41835937 -9.04101562 3.59765625 C-9.95560547 3.77167969 -10.87019531 3.94570312 -11.8125 4.125 C-12.71548828 4.30675781 -13.61847656 4.48851563 -14.54882812 4.67578125 C-18.78130702 5.50299608 -22.67304613 6.09889632 -27 6 C-19.60045377 -0.2450071 -9.26502269 -0.49243231 0 0 Z " fill="#E23136" transform="translate(93,70)"/>
<path d="M0 0 C2.31 0 4.62 0 7 0 C7.144375 0.7425 7.28875 1.485 7.4375 2.25 C7.90187492 4.52027739 8.41863569 6.75759479 9 9 C6 9 6 9 3.8125 7 C3.214375 6.34 2.61625 5.68 2 5 C2 6.32 2 7.64 2 9 C1.34 9 0.68 9 0 9 C0 6.03 0 3.06 0 0 Z " fill="#E95256" transform="translate(151,78)"/>
<path d="M0 0 C18.83243243 -0.38918919 18.83243243 -0.38918919 26 2 C26.99 3.485 26.99 3.485 28 5 C22.06 4.34 16.12 3.68 10 3 C10 2.67 10 2.34 10 2 C6.7 1.67 3.4 1.34 0 1 C0 0.67 0 0.34 0 0 Z " fill="#B8B1B0" transform="translate(97,165)"/>
<path d="M0 0 C0.8971875 0.309375 0.8971875 0.309375 1.8125 0.625 C-4.16864471 4.57481254 -10.36776291 8.31135737 -17.1875 10.625 C-18.1775 10.295 -19.1675 9.965 -20.1875 9.625 C-17.63417458 6.58406035 -14.84521618 5.49241601 -11.1875 4.0625 C-0.59925377 -0.10272922 -0.59925377 -0.10272922 0 0 Z " fill="#E33C41" transform="translate(243.1875,130.375)"/>
<path d="M0 0 C0.33 0.66 0.66 1.32 1 2 C1.66 2 2.32 2 3 2 C3 5.96 3 9.92 3 14 C2.01 14.33 1.02 14.66 0 15 C-3.41356674 7.12253829 -3.41356674 7.12253829 -1.6875 2.4375 C-1.130625 1.633125 -0.57375 0.82875 0 0 Z " fill="#FADCDD" transform="translate(203,98)"/>
<path d="M0 0 C0.66 0 1.32 0 2 0 C2 6.27 2 12.54 2 19 C1.01 19 0.02 19 -1 19 C-1.02683987 16.02077407 -1.04676037 13.04178705 -1.0625 10.0625 C-1.07087891 9.21236328 -1.07925781 8.36222656 -1.08789062 7.48632812 C-1.09111328 6.67744141 -1.09433594 5.86855469 -1.09765625 5.03515625 C-1.10289307 4.2862915 -1.10812988 3.53742676 -1.11352539 2.76586914 C-1 1 -1 1 0 0 Z " fill="#FDFDFD" transform="translate(149,97)"/>
<path d="M0 0 C1.12591553 0.04713135 2.25183105 0.0942627 3.41186523 0.14282227 C5.23427734 0.21533203 5.23427734 0.21533203 7.09350586 0.28930664 C8.37290039 0.34538086 9.65229492 0.40145508 10.97045898 0.45922852 C12.89535156 0.53753906 12.89535156 0.53753906 14.85913086 0.61743164 C18.0422929 0.74759812 21.22517902 0.88257852 24.40795898 1.02172852 C24.07795898 1.68172852 23.74795898 2.34172852 23.40795898 3.02172852 C19.6580242 3.07984625 15.90820547 3.11536445 12.15795898 3.14672852 C10.56274414 3.17186523 10.56274414 3.17186523 8.93530273 3.19750977 C7.3980957 3.20717773 7.3980957 3.20717773 5.82983398 3.21704102 C4.41589355 3.23275146 4.41589355 3.23275146 2.97338867 3.2487793 C0.30843957 3.01292065 -1.31067194 2.37834511 -3.59204102 1.02172852 C-2.59204102 0.02172852 -2.59204102 0.02172852 0 0 Z " fill="#F0EDED" transform="translate(145.592041015625,173.978271484375)"/>
<path d="M0 0 C2.31 0 4.62 0 7 0 C7.33 1.65 7.66 3.3 8 5 C6.35 5.33 4.7 5.66 3 6 C3 6.99 3 7.98 3 9 C2.01 9 1.02 9 0 9 C0 6.03 0 3.06 0 0 Z " fill="#F0878A" transform="translate(174,78)"/>
<path d="M0 0 C-0.33 0.66 -0.66 1.32 -1 2 C-0.34 2.33 0.32 2.66 1 3 C-4.94 4.32 -10.88 5.64 -17 7 C-16.67 5.68 -16.34 4.36 -16 3 C-13.71068726 2.30364247 -11.4191243 1.61765623 -9.125 0.9375 C-8.47402344 0.73833984 -7.82304688 0.53917969 -7.15234375 0.33398438 C-2.2265625 -1.11328125 -2.2265625 -1.11328125 0 0 Z " fill="#B6A8A7" transform="translate(81,68)"/>
<path d="M0 0 C1.91731918 0.11455681 3.8338675 0.24206258 5.75 0.375 C6.81734375 0.44460937 7.8846875 0.51421875 8.984375 0.5859375 C11.80206432 0.9728223 13.5830366 1.55686166 16 3 C15 4 15 4 12.12109375 4.1328125 C5.65593151 4.1191006 -0.6113224 4.02218842 -7 3 C-7 2.67 -7 2.34 -7 2 C-4.69 2 -2.38 2 0 2 C0 1.34 0 0.68 0 0 Z " fill="#EEEAEA" transform="translate(177,64)"/>
<path d="M0 0 C2 1 2 1 3 3 C2.2578125 4.91796875 2.2578125 4.91796875 1.125 7.1875 C-0.76896006 11.22359419 -1.62334987 14.57436094 -2 19 C-2.66 19 -3.32 19 -4 19 C-4.44701413 11.43801103 -4.53574091 6.23664375 0 0 Z " fill="#C7C6C7" transform="translate(21,96)"/>
<path d="M0 0 C3.69230769 0.69230769 3.69230769 0.69230769 5 2 C5.1875 4.9375 5.1875 4.9375 5 8 C4.34 8.66 3.68 9.32 3 10 C0.875 9.625 0.875 9.625 -1 9 C-1.09765625 2.84765625 -1.09765625 2.84765625 -1 1 C-0.67 0.67 -0.34 0.34 0 0 Z " fill="#F29B9E" transform="translate(99,148)"/>
<path d="M0 0 C-0.99 0 -1.98 0 -3 0 C-3.33 0.99 -3.66 1.98 -4 3 C-6.54698226 3.88040196 -8.95191274 4.5759039 -11.5625 5.1875 C-12.27341797 5.36474609 -12.98433594 5.54199219 -13.71679688 5.72460938 C-15.47505269 6.16122323 -17.23720155 6.58210434 -19 7 C-19 6.34 -19 5.68 -19 5 C-19.66 4.67 -20.32 4.34 -21 4 C-18.25336296 3.13343002 -15.5035757 2.28148214 -12.75 1.4375 C-11.97269531 1.19064453 -11.19539062 0.94378906 -10.39453125 0.68945312 C-9.26337891 0.34624023 -9.26337891 0.34624023 -8.109375 -0.00390625 C-7.07248535 -0.32597046 -7.07248535 -0.32597046 -6.01464844 -0.65454102 C-3.71321296 -1.0491764 -2.20383318 -0.71084423 0 0 Z " fill="#BCA3A6" transform="translate(206,172)"/>
<path d="M0 0 C0.99 0 1.98 0 3 0 C3.33 0.66 3.66 1.32 4 2 C4.66 1.34 5.32 0.68 6 0 C6.99 0.33 7.98 0.66 9 1 C8.34 1.66 7.68 2.32 7 3 C7.35355436 5.26274788 7.97544426 6.95088852 9 9 C6 9 6 9 4.3125 7.5 C3.879375 7.005 3.44625 6.51 3 6 C2.67 6.99 2.34 7.98 2 9 C1.34 9 0.68 9 0 9 C0 6.03 0 3.06 0 0 Z " fill="#EB6165" transform="translate(140,78)"/>
<path d="M0 0 C0 0.66 0 1.32 0 2 C0.66 2.33 1.32 2.66 2 3 C-5.2274605 3.24091535 -11.90294338 2.34495828 -19 1 C-19 0.67 -19 0.34 -19 0 C-12.76552084 -1.03907986 -6.13111842 -2.04370614 0 0 Z " fill="#DDC8C8" transform="translate(204,68)"/>
<path d="M0 0 C1.98 0 3.96 0 6 0 C5.67 5.94 5.34 11.88 5 18 C4.01 18 3.02 18 2 18 C2 12.72 2 7.44 2 2 C1.34 2 0.68 2 0 2 C0 1.34 0 0.68 0 0 Z " fill="#ED7579" transform="translate(69,95)"/>
<path d="M0 0 C0.99 0 1.98 0 3 0 C3 2.31 3 4.62 3 7 C4.32 7 5.64 7 7 7 C7 4.69 7 2.38 7 0 C7.66 0 8.32 0 9 0 C9.125 3.375 9.125 3.375 9 7 C7 9 7 9 4.5 9.25 C2 9 2 9 0 7 C-0.125 3.375 -0.125 3.375 0 0 Z " fill="#EB6166" transform="translate(100,78)"/>
<path d="M0 0 C0.33 0.99 0.66 1.98 1 3 C-4.33333333 5.66666667 -9.66666667 8.33333333 -15 11 C-14.04339166 7.6575649 -13.34453331 6.2451078 -10.46875 4.19921875 C-9.4890625 3.70035156 -8.509375 3.20148438 -7.5 2.6875 C-6.5203125 2.17574219 -5.540625 1.66398438 -4.53125 1.13671875 C-2 0 -2 0 0 0 Z " fill="#BDACAD" transform="translate(74,178)"/>
<path d="M0 0 C4.62 0 9.24 0 14 0 C14.33 0.66 14.66 1.32 15 2 C13.0852312 2.36428777 11.16807707 2.71605306 9.25 3.0625 C8.18265625 3.25972656 7.1153125 3.45695312 6.015625 3.66015625 C3.25228095 3.97156937 1.59053383 3.8991416 -1 3 C-0.67 2.01 -0.34 1.02 0 0 Z " fill="#DDD5D8" transform="translate(105,63)"/>
<path d="M0 0 C2.70108504 0.090916 5.36930311 0.23740766 8.0625 0.4375 C9.20041992 0.51581055 9.20041992 0.51581055 10.36132812 0.59570312 C12.24121722 0.72575835 14.12065685 0.86228038 16 1 C16.33 1.99 16.66 2.98 17 4 C14.37405216 3.8863485 11.74988453 3.75960946 9.125 3.625 C8.37863281 3.5940625 7.63226563 3.563125 6.86328125 3.53125 C1.2265625 3.2265625 1.2265625 3.2265625 -1 1 C-0.67 0.67 -0.34 0.34 0 0 Z " fill="#E7454A" transform="translate(162,66)"/>
<path d="M0 0 C-1.65 1.98 -3.3 3.96 -5 6 C-6.32 5.67 -7.64 5.34 -9 5 C-9.33 3.02 -9.66 1.04 -10 -1 C-5.94568308 -2.15837626 -3.78187881 -1.83691257 0 0 Z " fill="#C96364" transform="translate(188,172)"/>
<path d="M0 0 C1.65 0 3.3 0 5 0 C5.33 3.3 5.66 6.6 6 10 C5.01 10 4.02 10 3 10 C3 7.36 3 4.72 3 2 C2.01 2.495 2.01 2.495 1 3 C1 4.98 1 6.96 1 9 C0.01 8.67 -0.98 8.34 -2 8 C-1.125 1.125 -1.125 1.125 0 0 Z " fill="#F6BCBE" transform="translate(113,149)"/>
<path d="M0 0 C0.99 0 1.98 0 3 0 C3.99 2.97 4.98 5.94 6 9 C5.01 9 4.02 9 3 9 C3 8.34 3 7.68 3 7 C1.68 7 0.36 7 -1 7 C-1 7.66 -1 8.32 -1 9 C-1.66 9 -2.32 9 -3 9 C-2.01 6.03 -1.02 3.06 0 0 Z " fill="#ED7276" transform="translate(186,78)"/>
<path d="M0 0 C3.3 0.99 6.6 1.98 10 3 C9.67 4.32 9.34 5.64 9 7 C4 5.33333333 -1 3.66666667 -6 2 C-2.25 0.875 -2.25 0.875 0 2 C0 1.34 0 0.68 0 0 Z " fill="#C9B5B4" transform="translate(225,75)"/>
<path d="M0 0 C0.99 0 1.98 0 3 0 C2.67 2.64 2.34 5.28 2 8 C2.99 8 3.98 8 5 8 C5 8.99 5 9.98 5 11 C3.02 11 1.04 11 -1 11 C-0.67 7.37 -0.34 3.74 0 0 Z " fill="#E73E44" transform="translate(180,123)"/>
<path d="M0 0 C1.32 0 2.64 0 4 0 C4.625 3.375 4.625 3.375 5 7 C4.34 7.66 3.68 8.32 3 9 C2.01 9 1.02 9 0 9 C0 6.03 0 3.06 0 0 Z " fill="#FBE8E9" transform="translate(176,106)"/>
<path d="M0 0 C1.890625 0.24609375 1.890625 0.24609375 4 1 C5.046875 2.84765625 5.046875 2.84765625 5.75 5.0625 C5.99234375 5.79597656 6.2346875 6.52945313 6.484375 7.28515625 C6.65453125 7.85105469 6.8246875 8.41695312 7 9 C7.66 8.34 8.32 7.68 9 7 C8.67 9.31 8.34 11.62 8 14 C7.34 14 6.68 14 6 14 C4.99515796 12.04414675 3.99626195 10.08523763 3 8.125 C2.1646875 6.48917969 2.1646875 6.48917969 1.3125 4.8203125 C0 2 0 2 0 0 Z " fill="#F5B1B3" transform="translate(139,152)"/>
<path d="M0 0 C0.33 0 0.66 0 1 0 C1 6.27 1 12.54 1 19 C2.98 19.33 4.96 19.66 7 20 C7 20.33 7 20.66 7 21 C4.36 21 1.72 21 -1 21 C-2.125 19.25 -2.125 19.25 -3 17 C-2.7009375 16.4328125 -2.401875 15.865625 -2.09375 15.28125 C-0.64225957 12.25385568 -0.57538858 9.58980971 -0.375 6.25 C-0.30023438 5.07953125 -0.22546875 3.9090625 -0.1484375 2.703125 C-0.09945312 1.81109375 -0.05046875 0.9190625 0 0 Z " fill="#F7C4C6" transform="translate(188,97)"/>
<path d="M0 0 C0.94875 0.04125 1.8975 0.0825 2.875 0.125 C2.875 1.115 2.875 2.105 2.875 3.125 C0.895 3.125 -1.085 3.125 -3.125 3.125 C-3.125 4.115 -3.125 5.105 -3.125 6.125 C-1.145 5.795 0.835 5.465 2.875 5.125 C2.545 6.445 2.215 7.765 1.875 9.125 C-0.5 9.25 -0.5 9.25 -3.125 9.125 C-5.125 7.125 -5.125 7.125 -5.375 4.625 C-4.98192433 0.69424327 -3.8631953 0.15452781 0 0 Z " fill="#EA5559" transform="translate(94.125,77.875)"/>
<path d="M0 0 C8.16837993 2.93400493 8.16837993 2.93400493 10.87890625 5.64453125 C10.87890625 6.30453125 10.87890625 6.96453125 10.87890625 7.64453125 C5.43014622 5.92387019 0.16721174 3.79747776 -5.12109375 1.64453125 C-2.12109375 -0.35546875 -2.12109375 -0.35546875 0 0 Z " fill="#E54146" transform="translate(228.12109375,79.35546875)"/>
<path d="M0 0 C0 0.66 0 1.32 0 2 C0.66 2.33 1.32 2.66 2 3 C-3.17578125 6.22265625 -3.17578125 6.22265625 -5 7 C-5.99 6.67 -6.98 6.34 -8 6 C-8 5.01 -8 4.02 -8 3 C-2.25 0 -2.25 0 0 0 Z " fill="#BFB5B8" transform="translate(243,133)"/>
<path d="M0 0 C0.33 0 0.66 0 1 0 C1.95619733 3.99795892 2.1039592 7.70803922 2.0625 11.8125 C2.05347656 12.97394531 2.04445312 14.13539063 2.03515625 15.33203125 C2.02355469 16.21246094 2.01195312 17.09289062 2 18 C0.68 18.33 -0.64 18.66 -2 19 C-2 18.34 -2 17.68 -2 17 C-1.34 17 -0.68 17 0 17 C0 11.39 0 5.78 0 0 Z " fill="#F6BEBF" transform="translate(165,153)"/>
<path d="M0 0 C0.54140625 0.23589844 1.0828125 0.47179687 1.640625 0.71484375 C-0.15028258 1.86186315 -1.94212497 3.0074231 -3.734375 4.15234375 C-5.23097656 5.10947266 -5.23097656 5.10947266 -6.7578125 6.0859375 C-9.359375 7.71484375 -9.359375 7.71484375 -11.359375 8.71484375 C-12.019375 8.05484375 -12.679375 7.39484375 -13.359375 6.71484375 C-11.61979359 5.51213316 -9.86727755 4.32811365 -8.109375 3.15234375 C-6.64757813 2.16041016 -6.64757813 2.16041016 -5.15625 1.1484375 C-2.359375 -0.28515625 -2.359375 -0.28515625 0 0 Z " fill="#E4383E" transform="translate(45.359375,83.28515625)"/>
<path d="M0 0 C0 0.66 0 1.32 0 2 C-1.76949612 2.50471197 -3.54065223 3.00360685 -5.3125 3.5 C-6.79169922 3.91765625 -6.79169922 3.91765625 -8.30078125 4.34375 C-11 5 -11 5 -14 5 C-14 4.34 -14 3.68 -14 3 C-9.07015675 0.96006486 -5.42039575 -0.40652968 0 0 Z " fill="#F1E6E7" transform="translate(217,169)"/>
<path d="M0 0 C1.60379341 -0.05416188 3.20811406 -0.09286638 4.8125 -0.125 C5.70582031 -0.14820313 6.59914062 -0.17140625 7.51953125 -0.1953125 C10 0 10 0 13 2 C14.9896995 2.39013716 16.99019869 2.73202649 19 3 C19 3.33 19 3.66 19 4 C12.4294834 4.24794402 6.43028541 3.32388229 0 2 C0 1.34 0 0.68 0 0 Z " fill="#C8B2B5" transform="translate(144,62)"/>
<path d="M0 0 C0 1.65 0 3.3 0 5 C-3.92896395 5 -7.19893228 3.99700137 -11 3 C-7.75987532 -0.24012468 -4.46544827 0 0 0 Z " fill="#CC5F60" transform="translate(97,167)"/>
<path d="M0 0 C0.33 2.97 0.66 5.94 1 9 C0.01 9 -0.98 9 -2 9 C-2.33 7.02 -2.66 5.04 -3 3 C-3.33 4.65 -3.66 6.3 -4 8 C-4.66 8 -5.32 8 -6 8 C-6.25 5.6875 -6.25 5.6875 -6 3 C-3.95575462 1.02389614 -2.8823175 0 0 0 Z " fill="#F6BDBF" transform="translate(162,158)"/>
<path d="M0 0 C0.33 0.99 0.66 1.98 1 3 C-0.24252679 3.84443568 -1.4943886 4.6751458 -2.75 5.5 C-3.79414062 6.19609375 -3.79414062 6.19609375 -4.859375 6.90625 C-7 8 -7 8 -11 8 C-11 7.34 -11 6.68 -11 6 C-7.37 4.02 -3.74 2.04 0 0 Z " fill="#E9E1E2" transform="translate(65,152)"/>
<path d="M0 0 C1.65 0 3.3 0 5 0 C5 0.66 5 1.32 5 2 C4.01 2 3.02 2 2 2 C2 2.66 2 3.32 2 4 C2.99 4 3.98 4 5 4 C5 4.66 5 5.32 5 6 C3.68 6 2.36 6 1 6 C1 7.32 1 8.64 1 10 C0.34 10 -0.32 10 -1 10 C-0.67 6.7 -0.34 3.4 0 0 Z " fill="#E4292F" transform="translate(114,124)"/>
<path d="M0 0 C1.32 0.33 2.64 0.66 4 1 C4 3.31 4 5.62 4 8 C2.68 8.33 1.36 8.66 0 9 C0 6.03 0 3.06 0 0 Z " fill="#FDF4F4" transform="translate(48,106)"/>
<path d="M0 0 C0.66 0 1.32 0 2 0 C2.09765625 6.15234375 2.09765625 6.15234375 2 8 C1 9 1 9 -2 9.125 C-5 9 -5 9 -6 8 C-6.04092937 5.66702567 -6.04241723 3.33294775 -6 1 C-5.67 1 -5.34 1 -5 1 C-5 2.98 -5 4.96 -5 7 C-3.35 7 -1.7 7 0 7 C0 4.69 0 2.38 0 0 Z " fill="#E84A4E" transform="translate(130,78)"/>
<path d="M0 0 C4.37934119 0.51958285 8.68803391 1.05675742 13 2 C12.34 3.32 11.68 4.64 11 6 C7.37 4.68 3.74 3.36 0 2 C0 1.34 0 0.68 0 0 Z " fill="#DAD5D6" transform="translate(54,165)"/>
<path d="M0 0 C0.99 0 1.98 0 3 0 C3.33 1.65 3.66 3.3 4 5 C4.33 5 4.66 5 5 5 C5 6.65 5 8.3 5 10 C3.68 10 2.36 10 1 10 C0.67 6.7 0.34 3.4 0 0 Z " fill="#E6393E" transform="translate(148,124)"/>
<path d="M0 0 C1.1446875 0.2475 1.1446875 0.2475 2.3125 0.5 C5.03596236 1.09145396 5.03596236 1.09145396 8 1 C8 2.32 8 3.64 8 5 C5.39417629 5.93065133 4.35801776 6.14917407 1.75 5.0625 C1.1725 4.711875 0.595 4.36125 0 4 C0 2.68 0 1.36 0 0 Z " fill="#FAE0E1" transform="translate(231,98)"/>
<path d="M0 0 C1.32 0 2.64 0 4 0 C5.60725635 3.21451269 5.05748185 6.43612536 5 10 C4.34 10 3.68 10 3 10 C3 9.01 3 8.02 3 7 C2.01 6.67 1.02 6.34 0 6 C0.66 6 1.32 6 2 6 C1.34 4.02 0.68 2.04 0 0 Z " fill="#E53237" transform="translate(169,124)"/>
<path d="M0 0 C0.66 0.66 1.32 1.32 2 2 C1.34 2 0.68 2 0 2 C-0.33 2.99 -0.66 3.98 -1 5 C-1 4.34 -1 3.68 -1 3 C-3.97 3.66 -6.94 4.32 -10 5 C-7.28572348 -0.42855305 -5.81430009 -0.36339376 0 0 Z " fill="#E73D43" transform="translate(217,95)"/>
<path d="M0 0 C1.32 0 2.64 0 4 0 C5.4606285 2.64738916 6 3.89448334 6 7 C4.02 7.66 2.04 8.32 0 9 C0 6 0 6 2 4 C1.34 2.68 0.68 1.36 0 0 Z " fill="#D4CECF" transform="translate(66,146)"/>
<path d="M0 0 C0.5775 0.78375 1.155 1.5675 1.75 2.375 C3.87476433 4.85389172 5.09696889 5.74201985 8 7 C8.66 7.66 9.32 8.32 10 9 C6.7 8.67 3.4 8.34 0 8 C0 5.36 0 2.72 0 0 Z " fill="#E94C50" transform="translate(225,109)"/>
<path d="M0 0 C1.32 0 2.64 0 4 0 C4 0.99 4 1.98 4 3 C4.99 3 5.98 3 7 3 C6.67 3.99 6.34 4.98 6 6 C4.02 6 2.04 6 0 6 C0 4.02 0 2.04 0 0 Z " fill="#F19295" transform="translate(47,98)"/>
<path d="M0 0 C1.65 0 3.3 0 5 0 C5.66 2.31 6.32 4.62 7 7 C4 7 4 7 2.3125 5.5 C1.879375 5.005 1.44625 4.51 1 4 C0.67 4.99 0.34 5.98 0 7 C0 4.69 0 2.38 0 0 Z " fill="#F0878A" transform="translate(114,80)"/>
<path d="M0 0 C0.33 0.33 0.66 0.66 1 1 C1.66 1.33 2.32 1.66 3 2 C1.71211992 2.53012738 0.41953322 3.0488329 -0.875 3.5625 C-1.95394531 3.99755859 -1.95394531 3.99755859 -3.0546875 4.44140625 C-5 5 -5 5 -7 4 C-7 2.68 -7 1.36 -7 0 C-3.86350275 -1.04549908 -3.0051095 -1.00170317 0 0 Z " fill="#BF9FA0" transform="translate(225,139)"/>
<path d="M0 0 C0.99 0.33 1.98 0.66 3 1 C3 1.66 3 2.32 3 3 C2.34 3 1.68 3 1 3 C1 3.99 1 4.98 1 6 C1.66 6.66 2.32 7.32 3 8 C1.68 8 0.36 8 -1 8 C-1 8.66 -1 9.32 -1 10 C-1.99 10 -2.98 10 -4 10 C-2.8905928 6.51329166 -1.73662334 3.22515763 0 0 Z " fill="#E6363C" transform="translate(102,124)"/>
<path d="M0 0 C2.56695636 0.39491636 4.67123994 0.83561997 7 2 C6.67 3.32 6.34 4.64 6 6 C6 5.01 6 4.02 6 3 C5.67 3.66 5.34 4.32 5 5 C3.35 5 1.7 5 0 5 C-0.5625 3.0625 -0.5625 3.0625 -1 1 C-0.67 0.67 -0.34 0.34 0 0 Z " fill="#F9D0D2" transform="translate(91,80)"/>
<path d="M0 0 C0.99 0.33 1.98 0.66 3 1 C0.525 5.455 0.525 5.455 -2 10 C-2.99 9.34 -3.98 8.68 -5 8 C-3.35 5.36 -1.7 2.72 0 0 Z " fill="#BBB1B1" transform="translate(62,170)"/>
<path d="M0 0 C0.66 0 1.32 0 2 0 C2 0.66 2 1.32 2 2 C2.66 2 3.32 2 4 2 C4 2.66 4 3.32 4 4 C3.34 4 2.68 4 2 4 C2.33 6.31 2.66 8.62 3 11 C2.01 11 1.02 11 0 11 C-0.19491452 9.54263913 -0.38069358 8.08405407 -0.5625 6.625 C-0.66691406 5.81289062 -0.77132812 5.00078125 -0.87890625 4.1640625 C-1 2 -1 2 0 0 Z " fill="#F6BFC1" transform="translate(106,146)"/>
<path d="M0 0 C1.4606285 2.64738916 2 3.89448334 2 7 C-1.3 7.66 -4.6 8.32 -8 9 C-8.33 8.34 -8.66 7.68 -9 7 C-4.545 6.505 -4.545 6.505 0 6 C0 4.02 0 2.04 0 0 Z " fill="#DEDFDF" transform="translate(98,167)"/>
<path d="M0 0 C0.66 0 1.32 0 2 0 C2.66 1.32 3.32 2.64 4 4 C3.34 4 2.68 4 2 4 C2 5.65 2 7.3 2 9 C2.66 9.33 3.32 9.66 4 10 C2.68 10 1.36 10 0 10 C-1.125 2.25 -1.125 2.25 0 0 Z " fill="#F7C5C6" transform="translate(121,149)"/>
<path d="M0 0 C-0.33 1.32 -0.66 2.64 -1 4 C-3.97 4 -6.94 4 -10 4 C-8 1 -8 1 -5 0.3125 C-2 0 -2 0 0 0 Z " fill="#F7F7F7" transform="translate(105,63)"/>
<path d="M0 0 C-2.33214148 1.20628008 -4.49642139 2.1654738 -7 3 C-7.33 5.31 -7.66 7.62 -8 10 C-8.33 9.01 -8.66 8.02 -9 7 C-9.66 6.67 -10.32 6.34 -11 6 C-10.67 4.35 -10.34 2.7 -10 1 C-6.61981469 -0.04005702 -3.5219721 -0.08004482 0 0 Z " fill="#C5B4B2" transform="translate(90,139)"/>
<path d="M0 0 C2.35694954 0.09031574 4.71153582 0.24688128 7.0625 0.4375 C8.35285156 0.53933594 9.64320313 0.64117187 10.97265625 0.74609375 C12.47119141 0.87177734 12.47119141 0.87177734 14 1 C10.16675992 3.11836952 7.40022616 3.31430187 3 3 C0.5625 2 0.5625 2 -1 1 C-0.67 0.67 -0.34 0.34 0 0 Z " fill="#D7D3D2" transform="translate(143,174)"/>
<path d="M0 0 C5.61 0 11.22 0 17 0 C16.01 0.99 15.02 1.98 14 3 C12.140625 2.72265625 12.140625 2.72265625 10 2 C8.25309081 1.7856066 6.5025977 1.59892347 4.75 1.4375 C3.85796875 1.35371094 2.9659375 1.26992187 2.046875 1.18359375 C1.37140625 1.12300781 0.6959375 1.06242188 0 1 C0 0.67 0 0.34 0 0 Z " fill="#CDA7A8" transform="translate(97,165)"/>
<path d="M0 0 C2.80362763 -0.22732116 4.46186517 -0.34081872 6.875 1.1875 C8 3 8 3 7.6875 5.6875 C7.460625 6.450625 7.23375 7.21375 7 8 C6.01 8.33 5.02 8.66 4 9 C4 6.69 4 4.38 4 2 C2.68 1.34 1.36 0.68 0 0 Z " fill="#F5B5B7" transform="translate(89,143)"/>
<path d="M0 0 C1.65 0 3.3 0 5 0 C5.66 2.31 6.32 4.62 7 7 C4 7 4 7 1.8125 5.1875 C0 3 0 3 0 0 Z " fill="#F08487" transform="translate(153,80)"/>
<path d="M0 0 C0.33 0.66 0.66 1.32 1 2 C-1.39509338 4.89932357 -3.31245243 5.50168276 -7 6 C-7.33 5.01 -7.66 4.02 -8 3 C-5.36 2.01 -2.72 1.02 0 0 Z " fill="#C6BEBF" transform="translate(64,71)"/>
<path d="M0 0 C2.31 0 4.62 0 7 0 C7 0.33 7 0.66 7 1 C5.35 1 3.7 1 2 1 C2 1.99 2 2.98 2 4 C2.66 4.33 3.32 4.66 4 5 C3.34 5 2.68 5 2 5 C2 6.32 2 7.64 2 9 C1.34 9 0.68 9 0 9 C0 6.03 0 3.06 0 0 Z " fill="#EA5C61" transform="translate(174,78)"/>
<path d="M0 0 C1.66519519 0.34060811 3.33157466 0.67558396 5 1 C5 1.33 5 1.66 5 2 C0.71 2 -3.58 2 -8 2 C-8.33 1.34 -8.66 0.68 -9 0 C-5.56852163 -0.85786959 -3.36740401 -1.05231375 0 0 Z " fill="#EBDCDC" transform="translate(96,66)"/>
<path d="M0 0 C0.99 0.33 1.98 0.66 3 1 C3 3.64 3 6.28 3 9 C2.01 9 1.02 9 0 9 C0 6.03 0 3.06 0 0 Z " fill="#E74146" transform="translate(91,144)"/>
<path d="M0 0 C2.375 0.25 2.375 0.25 5 1 C6.3125 3.0625 6.3125 3.0625 7 5 C6.01 5.495 6.01 5.495 5 6 C2.375 4.75 2.375 4.75 0 3 C0 2.01 0 1.02 0 0 Z " fill="#C3C2C3" transform="translate(50,140)"/>
<path d="M0 0 C3.3 0 6.6 0 10 0 C10 0.66 10 1.32 10 2 C7.36 2.33 4.72 2.66 2 3 C1.34 2.01 0.68 1.02 0 0 Z " fill="#AEAEB1" transform="translate(118,62)"/>
<path d="M0 0 C2.475 0.99 2.475 0.99 5 2 C5 2.99 5 3.98 5 5 C2.69 5.33 0.38 5.66 -2 6 C-1.01 5.34 -0.02 4.68 1 4 C0.34 3.34 -0.32 2.68 -1 2 C-0.67 1.34 -0.34 0.68 0 0 Z " fill="#C4A1A2" transform="translate(221,162)"/>
<path d="M0 0 C0.1875 2.875 0.1875 2.875 0 6 C-0.99 6.66 -1.98 7.32 -3 8 C-3.33 7.34 -3.66 6.68 -4 6 C-4.66 5.67 -5.32 5.34 -6 5 C-1.125 0 -1.125 0 0 0 Z " fill="#E2D8D8" transform="translate(260,117)"/>
<path d="M0 0 C0.66 1.32 1.32 2.64 2 4 C1.34 4.66 0.68 5.32 0 6 C-1.32 6 -2.64 6 -4 6 C-3.6875 4.125 -3.6875 4.125 -3 2 C-2.01 1.34 -1.02 0.68 0 0 Z " fill="#E2DADD" transform="translate(247,129)"/>
<path d="M0 0 C4.05606165 0.46800711 7.46588679 0.87953208 11 3 C11 3.33 11 3.66 11 4 C3.57142857 3 3.57142857 3 0 2 C0 1.34 0 0.68 0 0 Z " fill="#E42E33" transform="translate(215,76)"/>
<path d="M0 0 C2.31 0 4.62 0 7 0 C7.66 1.32 8.32 2.64 9 4 C5.17902761 3.46930939 2.93828597 2.50298434 0 0 Z " fill="#D9B9BA" transform="translate(212,160)"/>
<path d="M0 0 C2.0625 2.25 2.0625 2.25 4 5 C3.75 7.3125 3.75 7.3125 3 9 C0.9375 6.75 0.9375 6.75 -1 4 C-0.75 1.6875 -0.75 1.6875 0 0 Z " fill="#E3373C" transform="translate(23,114)"/>
<path d="M0 0 C1.32 0 2.64 0 4 0 C3.67 1.65 3.34 3.3 3 5 C2.01 5.33 1.02 5.66 0 6 C0 4.02 0 2.04 0 0 Z " fill="#FADEDF" transform="translate(194,98)"/>
<path d="M0 0 C2.475 0.99 2.475 0.99 5 2 C5 2.99 5 3.98 5 5 C2.5625 4.625 2.5625 4.625 0 4 C-0.33 3.34 -0.66 2.68 -1 2 C-0.67 1.34 -0.34 0.68 0 0 Z " fill="#B3A2A2" transform="translate(245,85)"/>
<path d="M0 0 C0.99 0 1.98 0 3 0 C3 1.32 3 2.64 3 4 C2.01 4 1.02 4 0 4 C-0.33 5.65 -0.66 7.3 -1 9 C-1.66 9 -2.32 9 -3 9 C-2.01 6.03 -1.02 3.06 0 0 Z " fill="#EA575C" transform="translate(186,78)"/>
<path d="M0 0 C0 0.66 0 1.32 0 2 C-2.31 2.66 -4.62 3.32 -7 4 C-7 3.34 -7 2.68 -7 2 C-7.66 1.67 -8.32 1.34 -9 1 C-5.8035914 -0.06546953 -3.34252724 -0.07427838 0 0 Z " fill="#978489" transform="translate(194,175)"/>
<path d="M0 0 C1.98 0.495 1.98 0.495 4 1 C3.01 1 2.02 1 1 1 C1 1.66 1 2.32 1 3 C1.66 3 2.32 3 3 3 C3 4.32 3 5.64 3 7 C2.01 7 1.02 7 0 7 C-1.125 2.25 -1.125 2.25 0 0 Z " fill="#EC666B" transform="translate(193,123)"/>
<path d="M0 0 C0 0.99 0 1.98 0 3 C-2.64 3 -5.28 3 -8 3 C-8 2.34 -8 1.68 -8 1 C-5.10765685 0.17361624 -3.11257569 0 0 0 Z " fill="#F7F8F8" transform="translate(177,63)"/>
<path d="M0 0 C0.33 0 0.66 0 1 0 C1.33 2.31 1.66 4.62 2 7 C0.35 7.66 -1.3 8.32 -3 9 C-3.66 8.34 -4.32 7.68 -5 7 C-3.35 6.67 -1.7 6.34 0 6 C0 4.02 0 2.04 0 0 Z " fill="#B7908D" transform="translate(190,163)"/>
<path d="M0 0 C2.0625 0.4375 2.0625 0.4375 4 1 C3.01 1.33 2.02 1.66 1 2 C1 3.32 1 4.64 1 6 C1.99 6.33 2.98 6.66 4 7 C3.67 7.66 3.34 8.32 3 9 C0 7 0 7 -0.75 3.9375 C-0.8325 2.968125 -0.915 1.99875 -1 1 C-0.67 0.67 -0.34 0.34 0 0 Z " fill="#F08487" transform="translate(166,151)"/>
<path d="M0 0 C0.99 0 1.98 0 3 0 C3 1.98 3 3.96 3 6 C2.01 6 1.02 6 0 6 C0 4.02 0 2.04 0 0 Z " fill="#E74146" transform="translate(108,150)"/>
<path d="M0 0 C1.32 0.33 2.64 0.66 4 1 C4 2.32 4 3.64 4 5 C3.34 5 2.68 5 2 5 C2 5.66 2 6.32 2 7 C1.34 7 0.68 7 0 7 C0 6.01 0 5.02 0 4 C0.66 4 1.32 4 2 4 C2 3.34 2 2.68 2 2 C1.34 2 0.68 2 0 2 C0 1.34 0 0.68 0 0 Z " fill="#EB5F64" transform="translate(103,123)"/>
<path d="M0 0 C0.33 0 0.66 0 1 0 C1.22211116 1.93596892 1.42722992 3.87389328 1.625 5.8125 C1.74101562 6.89144531 1.85703125 7.97039062 1.9765625 9.08203125 C2 12 2 12 0 15 C-1.5111995 9.96266834 -0.64599773 5.11828973 0 0 Z " fill="#EB6B6F" transform="translate(256,105)"/>
<path d="M0 0 C2.97 0.33 5.94 0.66 9 1 C8.67 1.66 8.34 2.32 8 3 C5.69 3 3.38 3 1 3 C0.67 2.01 0.34 1.02 0 0 Z " fill="#E7E4E5" transform="translate(184,65)"/>
<path d="M0 0 C0.66 0.33 1.32 0.66 2 1 C2 2.98 2 4.96 2 7 C1.34 6.67 0.68 6.34 0 6 C-0.33 6.66 -0.66 7.32 -1 8 C-1.66 7.67 -2.32 7.34 -3 7 C-2.01 4.69 -1.02 2.38 0 0 Z " fill="#E73D43" transform="translate(154,159)"/>
<path d="M0 0 C0.66 0 1.32 0 2 0 C2 1.98 2 3.96 2 6 C1.01 6 0.02 6 -1 6 C-1.042721 4.33388095 -1.04063832 2.66617115 -1 1 C-0.67 0.67 -0.34 0.34 0 0 Z " fill="#EB5D61" transform="translate(114,151)"/>
<path d="M0 0 C3.37503669 1.1858237 5.64722731 2.27573689 8 5 C5.125 4.75 5.125 4.75 2 4 C0.625 1.9375 0.625 1.9375 0 0 Z " fill="#E23237" transform="translate(32,127)"/>
<path d="M0 0 C2.52259061 1.97420135 2.9929808 2.96745642 3.6875 6.1875 C3.790625 7.115625 3.89375 8.04375 4 9 C0.06153846 5.67692308 0.06153846 5.67692308 -0.25 2.25 C-0.1675 1.5075 -0.085 0.765 0 0 Z " fill="#DE3C41" transform="translate(255,98)"/>
<path d="M0 0 C2.31 0 4.62 0 7 0 C6.67 0.66 6.34 1.32 6 2 C5.01 1.67 4.02 1.34 3 1 C3 2.65 3 4.3 3 6 C2.01 5.34 1.02 4.68 0 4 C0 2.68 0 1.36 0 0 Z " fill="#F7C3C4" transform="translate(142,95)"/>
<path d="M0 0 C0.99 0.33 1.98 0.66 3 1 C3 1.99 3 2.98 3 4 C-1.455 3.01 -1.455 3.01 -6 2 C-2 1 -2 1 0 2 C0 1.34 0 0.68 0 0 Z " fill="#C8A2A2" transform="translate(225,75)"/>
<path d="M0 0 C0.66 0 1.32 0 2 0 C2.99 1.32 3.98 2.64 5 4 C1.04 3.67 -2.92 3.34 -7 3 C-7 2.67 -7 2.34 -7 2 C-4.69 2 -2.38 2 0 2 C0 1.34 0 0.68 0 0 Z " fill="#F2C6C7" transform="translate(177,64)"/>
<path d="M0 0 C1.98 0 3.96 0 6 0 C6.33 0.99 6.66 1.98 7 3 C4.36 2.67 1.72 2.34 -1 2 C-0.67 1.34 -0.34 0.68 0 0 Z " fill="#D8D7D9" transform="translate(154,62)"/>
<path d="M0 0 C1.32 0 2.64 0 4 0 C3.6875 1.9375 3.6875 1.9375 3 4 C2.01 4.33 1.02 4.66 0 5 C0 3.35 0 1.7 0 0 Z " fill="#FADEDF" transform="translate(176,98)"/>
<path d="M0 0 C0.99 0 1.98 0 3 0 C2.34 1.98 1.68 3.96 1 6 C0.01 6 -0.98 6 -2 6 C-1.34 4.02 -0.68 2.04 0 0 Z " fill="#E23D42" transform="translate(23,99)"/>
<path d="M0 0 C1.98 0 3.96 0 6 0 C6.33 0.66 6.66 1.32 7 2 C4.69 2.33 2.38 2.66 0 3 C0 2.01 0 1.02 0 0 Z " fill="#C9C2C5" transform="translate(113,63)"/>
</svg>
